<?xml version="1.0" encoding="utf-8"?>
<!-- Generator: Adobe Illustrator 25.4.1, SVG Export Plug-In . SVG Version: 6.00 Build 0)  -->
<svg version="1.1" id="Capa_1" xmlns="http://www.w3.org/2000/svg" xmlns:xlink="http://www.w3.org/1999/xlink" x="0px" y="0px"
	 viewBox="0 0 2560 1440" style="enable-background:new 0 0 2560 1440;" xml:space="preserve">
<style type="text/css">
	.st0{stroke:#000000;stroke-width:1.407;stroke-miterlimit:10;}
	.st1{fill:url(#SVGID_1_);stroke:#000000;stroke-width:1.407;stroke-miterlimit:10;}
	.st2{fill:#EFEFEF;stroke:#000000;stroke-width:1.407;stroke-miterlimit:10;}
	.st3{fill:#C9C9C9;stroke:#000000;stroke-width:1.407;stroke-miterlimit:10;}
	.st4{fill:#02FA95;stroke:#000000;stroke-width:1.407;stroke-miterlimit:10;}
	.st5{fill:#EFEFEF;}
	.st6{fill:#FFFFFF;}
	.st7{fill:none;stroke:#000000;stroke-width:1.407;stroke-miterlimit:10;}
	.st8{fill:#C9C9C9;}
	.st9{clip-path:url(#SVGID_00000073717980875999761580000015400337404577737661_);fill:#02FA95;}
	.st10{fill:none;stroke:#1D1D1B;stroke-width:1.407;stroke-miterlimit:10;}
	.st11{clip-path:url(#SVGID_00000119809560532942048010000006627602054232631697_);fill:#02FA95;}
	.st12{clip-path:url(#SVGID_00000065789454905109180270000009183921940008544163_);fill:#02FA95;}
	.st13{clip-path:url(#SVGID_00000109710712665799948450000013885780900207356302_);fill:#02FA95;}
	.st14{clip-path:url(#SVGID_00000064329750892786786420000004799903333695610526_);fill:#02FA95;}
	
		.st15{fill:url(#SVGID_00000176740115520538372220000014756169286426238615_);stroke:#000000;stroke-width:1.407;stroke-miterlimit:10;}
	.st16{fill:#02FA95;stroke:#000000;stroke-width:1.407;stroke-miterlimit:10.0001;}
	.st17{fill:none;}
	.st18{fill:none;stroke:#000000;stroke-width:1.407;stroke-miterlimit:10.0001;}
	
		.st19{fill:url(#SVGID_00000123425227562875607220000013775968665963913631_);stroke:#000000;stroke-width:1.407;stroke-miterlimit:10;}
	.st20{fill:#FFB0A6;stroke:#000000;stroke-width:1.407;stroke-miterlimit:10.0001;}
	.st21{fill:#FFB0A6;stroke:#000000;stroke-width:1.407;stroke-miterlimit:10;}
	.st22{clip-path:url(#SVGID_00000013891705410236461910000003722077769487739323_);fill:#02FA95;}
	.st23{clip-path:url(#SVGID_00000111154397971747585320000017541361720915482801_);fill:#02FA95;}
	.st24{clip-path:url(#SVGID_00000028298254401489566400000012809377095687786150_);fill:#02FA95;}
	.st25{clip-path:url(#SVGID_00000165935614793514696060000006503377237890801550_);fill:#02FA95;}
	
		.st26{fill:url(#SVGID_00000180350429597498422020000011242738321793158785_);stroke:#000000;stroke-width:1.407;stroke-miterlimit:10;}
	
		.st27{fill:url(#SVGID_00000122687770468662982580000000866184387514716301_);stroke:#000000;stroke-width:1.407;stroke-miterlimit:10;}
	.st28{clip-path:url(#SVGID_00000062898745573494297120000004278002858046614939_);fill:#FFFFFF;}
	.st29{clip-path:url(#SVGID_00000008134571548530645010000010350550285816126639_);fill:#FFFFFF;}
	
		.st30{fill:url(#SVGID_00000134961314311851176160000011117325655752741534_);stroke:#000000;stroke-width:1.407;stroke-miterlimit:10;}
	
		.st31{fill:url(#SVGID_00000147212650061402584460000015516186340361005993_);stroke:#000000;stroke-width:1.407;stroke-miterlimit:10;}
	.st32{fill:#02FA95;}
	.st33{clip-path:url(#SVGID_00000044875525138029162740000009320546654006651056_);fill:#02FA95;}
	.st34{clip-path:url(#SVGID_00000123414716295435002850000006409960510104346790_);fill:#02FA95;}
	.st35{clip-path:url(#SVGID_00000103947886717119196270000005815124491592956317_);fill:#02FA95;}
	.st36{clip-path:url(#SVGID_00000147200290388456954490000006527877635255642545_);fill:#02FA95;}
	.st37{clip-path:url(#SVGID_00000063629126034471096940000000036742454034533802_);fill:#FFFFFF;}
	
		.st38{fill:url(#SVGID_00000123420833551690357610000011371197071355583133_);stroke:#000000;stroke-width:1.407;stroke-miterlimit:10;}
	
		.st39{fill:url(#SVGID_00000054955280138861233900000009478461483554708123_);stroke:#000000;stroke-width:1.407;stroke-miterlimit:10;}
	.st40{clip-path:url(#SVGID_00000064339761953720080500000001583788491726888848_);fill:#02FA95;}
	.st41{clip-path:url(#SVGID_00000088115825610419359120000013421956207153806734_);fill:#02FA95;}
	.st42{clip-path:url(#SVGID_00000112599467151100608910000007271181155457604258_);fill:#02FA95;}
	.st43{clip-path:url(#SVGID_00000157271898379132298270000017631696467182527651_);fill:#02FA95;}
	.st44{fill:url(#SVGID_00000155106910719682180060000006821970600834745256_);}
	
		.st45{fill:url(#SVGID_00000173135006987045975640000013415958254152138682_);stroke:#000000;stroke-width:1.407;stroke-miterlimit:10;}
</style>
<g id="Base">
	<g>
		<g>
			<g>
				<g>
					<path class="st0" d="M1028.6,684.5l-48.3-27.9c-12-6.9-26.7-6.9-38.7,0l-48.3,27.9c-12.9,7.4-12.9,26.1,0,33.5l48.3,27.9
						c12,6.9,26.7,6.9,38.7,0l48.3-27.9C1041.5,710.5,1041.5,691.9,1028.6,684.5z"/>
				</g>
			</g>
			<g>
				<g>
					<path class="st0" d="M1589.5,684.5l48.3-27.9c12-6.9,26.7-6.9,38.7,0l48.3,27.9c12.9,7.4,12.9,26.1,0,33.5l-48.3,27.9
						c-12,6.9-26.7,6.9-38.7,0l-48.3-27.9C1576.6,710.5,1576.6,691.9,1589.5,684.5z"/>
				</g>
			</g>
			<g>
				<g>
					<path class="st0" d="M893.2,1086.5l48.3-27.9c12-6.9,26.7-6.9,38.7,0l48.3,27.9c12.9,7.4,12.9,26.1,0,33.5l-48.3,27.9
						c-12,6.9-26.7,6.9-38.7,0l-48.3-27.9C880.3,1112.6,880.3,1094,893.2,1086.5z"/>
				</g>
			</g>
			<g>
				<g>
					<g>
						<path class="st0" d="M1724.8,1086.5l-48.3-27.9c-12-6.9-26.7-6.9-38.7,0l-48.3,27.9c-12.9,7.4-12.9,26.1,0,33.5l48.3,27.9
							c12,6.9,26.7,6.9,38.7,0l48.3-27.9C1737.7,1112.6,1737.7,1094,1724.8,1086.5z"/>
					</g>
				</g>
			</g>
			<path class="st0" d="M1531.2,907.7l-204.8-118.3c-10.9-6.3-24.4-6.8-35.5-0.9c-0.4,0.2-0.8,0.4-1.1,0.6l-203.1,117.2
				c-12.9,7.4-12.9,26.1,0,33.5l203.1,117.2c12,6.9,26.7,6.9,38.7,0l203.1-117.2c0.3-0.2,0.6-0.4,0.9-0.5
				C1543.9,931.9,1543.1,914.6,1531.2,907.7z"/>
		</g>
		
			<linearGradient id="SVGID_1_" gradientUnits="userSpaceOnUse" x1="1280.1" y1="395.7484" x2="1280.1" y2="541.7485" gradientTransform="matrix(1 0 0 -1 0 1440)">
			<stop  offset="0" style="stop-color:#02FA95"/>
			<stop  offset="1" style="stop-color:#FFFFFF;stop-opacity:0.5"/>
		</linearGradient>
		<path class="st1" d="M1048,898.1v13.2c0,3.8,2,7.4,5.4,9.3l203.1,117.2c7.2,4.1,15.3,6.3,23.6,6.3s16.4-2.2,23.6-6.3l203.1-117.2
			c0,0,0,0,0.1,0c3.3-1.9,5.3-5.6,5.3-9.4v-13.1L1048,898.1z"/>
		<path class="st2" d="M1299.4,762.6l203.1,117.2c12.9,7.4,12.9,26.1,0,33.5l-203.1,117.2c-12,6.9-26.7,6.9-38.7,0l-203.1-117.2
			c-12.9-7.4-12.9-26.1,0-33.5l203.1-117.2C1272.6,755.7,1287.4,755.7,1299.4,762.6z"/>
		<g>
			<g>
				<g>
					<path class="st3" d="M951.2,572.8l48.3-27.9c6.4-3.7,9.7-10.2,9.7-16.7v78.2V651v33.5c0,6.5-3.2,13-9.7,16.8l-48.3,27.9
						c-6,3.5-12.7,5.2-19.3,5.2v-10.8v-88.9V578C938.6,578,945.2,576.2,951.2,572.8z"/>
					<g>
						<g>
							<g>
								<path class="st2" d="M999.6,511.4l-48.3-27.9c-12-6.9-26.7-6.9-38.7,0l-48.3,27.9c-12.9,7.4-12.9,26.1,0,33.5l48.3,27.9
									c12,6.9,26.7,6.9,38.7,0l48.3-27.9C1012.5,537.4,1012.5,518.8,999.6,511.4z"/>
							</g>
						</g>
						<g>
							<g>
								<path class="st4" d="M936.8,514.1c-1.6,0.3-3,1-3.6,2.1l-3.4,7.6l-2.5,5l-3.3,7.5c-0.4,0.9-1.8,1.7-3.6,2.1l-10.2,1.5
									c-1.6,0.3-3.5,0-4.9-0.8l-7.4-4.2c-1.2-0.7-1.8-1.7-1.3-2.8l2.7-5.8c0.4-0.9,1.8-1.7,3.6-2.1l10.2-1.5
									c1.6-0.3,3.5,0,4.9,0.8l4.9,2.8l2.4-5.1l-5-2.9c-1.2-0.7-2.9-1-4.9-0.8l-18.8,2.9c-1.6,0.3-3,1-3.6,2.1l-5.1,11.1
									c-0.6,1,0,2,1.2,2.7l13.8,8c1.2,0.7,2.9,1,4.9,0.8l18.9-2.9c1.6-0.3,3-1,3.6-2.1l3.4-7.4l2.4-5.1l3.4-7.4
									c0.4-0.9,1.8-1.7,3.6-2.1l10.1-1.6c1.6-0.3,3.5,0,4.9,0.8l7.4,4.2c1.2,0.7,1.8,1.7,1.3,2.8l-2.5,5.7
									c-0.4,0.9-1.8,1.7-3.6,2.1l-10.1,1.6c-1.6,0.3-3.5,0-4.9-0.8l-4.7-2.7l-2.4,5.1l4.9,2.8c1.2,0.7,2.9,1,4.9,0.8l18.9-2.9
									c1.6-0.3,3-1,3.6-2.1L976,523c0.4-0.9,0-2-1.3-2.8l-14-8.1c-1.2-0.7-2.9-1-4.9-0.8L936.8,514.1z"/>
							</g>
						</g>
					</g>
					<path class="st5" d="M864.2,544.9l48.3,27.9c6,3.5,12.7,5.2,19.3,5.2v56.6v88.9v10.8c-6.7,0-13.4-1.7-19.3-5.2l-48.3-27.9
						c-6.4-3.7-9.7-10.2-9.7-16.8V528.1C854.5,534.6,857.7,541.1,864.2,544.9z"/>
					<path class="st6" d="M864.2,544.9L864.2,544.9c-6.4-3.7-9.7-10.2-9.7-16.7v156.3c0,6.5,3.2,13,9.7,16.8l0,0V544.9z"/>
					<path class="st7" d="M951.2,572.8l48.3-27.9c6.4-3.7,9.7-10.2,9.7-16.7v78.2V651v33.5c0,6.5-3.2,13-9.7,16.8l-48.3,27.9
						c-6,3.5-12.7,5.2-19.3,5.2v-10.8v-88.9V578C938.6,578,945.2,576.2,951.2,572.8z"/>
					<path class="st7" d="M864.2,544.9l48.3,27.9c6,3.5,12.7,5.2,19.3,5.2v56.6v88.9v10.8c-6.7,0-13.4-1.7-19.3-5.2l-48.3-27.9
						c-6.4-3.7-9.7-10.2-9.7-16.8V528.1C854.5,534.6,857.7,541.1,864.2,544.9z"/>
					<g>
						<g>
							<polygon class="st5" points="876.7,696.8 884.3,692.4 902.1,702.6 902.1,723.1 884.3,733.3 866.6,723.1 							"/>
							<polygon class="st8" points="902.1,723.1 902.1,702.6 894.5,707 884.3,733.3 							"/>
							<g>
								<polyline class="st7" points="902.1,702.6 894.5,707 876.7,696.8 								"/>
								<line class="st7" x1="894.5" y1="707" x2="884.3" y2="733.3"/>
							</g>
							<polygon class="st7" points="876.7,696.8 884.3,692.4 902.1,702.6 902.1,723.1 884.3,733.3 866.6,723.1 							"/>
						</g>
					</g>
					<g>
						<g>
							<path class="st5" d="M911.7,680.6l0.5,0.3c1.6,0.9,2.9-0.1,2.9-2.2V609c0-2.1-1.3-4.6-2.9-5.5l-0.5-0.3
								c-1.6-0.9-2.9,0.1-2.9,2.2v69.7C908.8,677.2,910.1,679.7,911.7,680.6z"/>
							<g>
								<g>
									<defs>
										<path id="SVGID_00000179629564886199683960000007421184841821766027_" d="M911.7,680.6l0.5,0.3c1.6,0.9,2.9-0.1,2.9-2.2
											V609c0-2.1-1.3-4.6-2.9-5.5l-0.5-0.3c-1.6-0.9-2.9,0.1-2.9,2.2v69.7C908.8,677.2,910.1,679.7,911.7,680.6z"/>
									</defs>
									<clipPath id="SVGID_00000004524264474281136540000011613187276301940884_">
										<use xlink:href="#SVGID_00000179629564886199683960000007421184841821766027_"  style="overflow:visible;"/>
									</clipPath>
									<polygon style="clip-path:url(#SVGID_00000004524264474281136540000011613187276301940884_);fill:#02FA95;" points="
										908.8,679 915.1,682.6 915.1,643.8 908.8,640.2 									"/>
								</g>
							</g>
							<path class="st10" d="M911.7,603.2l0.5,0.3c1.6,0.9,2.9,3.4,2.9,5.5v69.7c0,2.1-1.3,3.1-2.9,2.2l-0.5-0.3
								c-1.6-0.9-2.9-3.4-2.9-5.5v-69.7C908.8,603.2,910.1,602.3,911.7,603.2z"/>
						</g>
						<g>
							<path class="st5" d="M874.2,659l0.5,0.3c1.6,0.9,2.9-0.1,2.9-2.2v-69.7c0-2.1-1.3-4.6-2.9-5.5l-0.5-0.3
								c-1.6-0.9-2.9,0.1-2.9,2.2v69.7C871.3,655.6,872.6,658.1,874.2,659z"/>
							<g>
								<g>
									<defs>
										<path id="SVGID_00000172434779602515806760000011295422791584694402_" d="M874.2,659l0.5,0.3c1.6,0.9,2.9-0.1,2.9-2.2
											v-69.7c0-2.1-1.3-4.6-2.9-5.5l-0.5-0.3c-1.6-0.9-2.9,0.1-2.9,2.2v69.7C871.3,655.6,872.6,658.1,874.2,659z"/>
									</defs>
									<clipPath id="SVGID_00000172412234782951134710000008336922761561323925_">
										<use xlink:href="#SVGID_00000172434779602515806760000011295422791584694402_"  style="overflow:visible;"/>
									</clipPath>
									<polygon style="clip-path:url(#SVGID_00000172412234782951134710000008336922761561323925_);fill:#02FA95;" points="
										871.3,657.3 877.6,660.9 877.6,622.2 871.3,618.6 									"/>
								</g>
							</g>
							<path class="st10" d="M874.2,581.5l0.5,0.3c1.6,0.9,2.9,3.4,2.9,5.5V657c0,2.1-1.3,3.1-2.9,2.2l-0.5-0.3
								c-1.6-0.9-2.9-3.4-2.9-5.5v-69.7C871.3,581.6,872.6,580.6,874.2,581.5z"/>
						</g>
						<g>
							<path class="st5" d="M899.2,673.4l0.5,0.3c1.6,0.9,2.9-0.1,2.9-2.2v-69.7c0-2.1-1.3-4.6-2.9-5.5l-0.5-0.3
								c-1.6-0.9-2.9,0.1-2.9,2.2v69.7C896.3,670,897.6,672.5,899.2,673.4z"/>
							<g>
								<g>
									<defs>
										<path id="SVGID_00000158713129272002514280000007483453962916531134_" d="M899.2,673.4l0.5,0.3c1.6,0.9,2.9-0.1,2.9-2.2
											v-69.7c0-2.1-1.3-4.6-2.9-5.5l-0.5-0.3c-1.6-0.9-2.9,0.1-2.9,2.2v69.7C896.3,670,897.6,672.5,899.2,673.4z"/>
									</defs>
									<clipPath id="SVGID_00000100381434918849227540000016680162337826933402_">
										<use xlink:href="#SVGID_00000158713129272002514280000007483453962916531134_"  style="overflow:visible;"/>
									</clipPath>
									<polygon style="clip-path:url(#SVGID_00000100381434918849227540000016680162337826933402_);fill:#02FA95;" points="
										896.3,671.7 902.6,675.4 902.6,661 896.3,657.4 									"/>
								</g>
							</g>
							<path class="st10" d="M899.2,596l0.5,0.3c1.6,0.9,2.9,3.4,2.9,5.5v69.7c0,2.1-1.3,3.1-2.9,2.2l-0.5-0.3
								c-1.6-0.9-2.9-3.4-2.9-5.5v-69.7C896.3,596,897.6,595,899.2,596z"/>
						</g>
						<g>
							<path class="st5" d="M886.7,666.2l0.5,0.3c1.6,0.9,2.9-0.1,2.9-2.2v-69.7c0-2.1-1.3-4.6-2.9-5.5l-0.5-0.3
								c-1.6-0.9-2.9,0.1-2.9,2.2v69.7C883.8,662.8,885.1,665.3,886.7,666.2z"/>
							<g>
								<g>
									<defs>
										<path id="SVGID_00000109735646941083941250000001510708612814872495_" d="M886.7,666.2l0.5,0.3c1.6,0.9,2.9-0.1,2.9-2.2
											v-69.7c0-2.1-1.3-4.6-2.9-5.5l-0.5-0.3c-1.6-0.9-2.9,0.1-2.9,2.2v69.7C883.8,662.8,885.1,665.3,886.7,666.2z"/>
									</defs>
									<clipPath id="SVGID_00000123399142799112222680000003986985568441974444_">
										<use xlink:href="#SVGID_00000109735646941083941250000001510708612814872495_"  style="overflow:visible;"/>
									</clipPath>
									<polygon style="clip-path:url(#SVGID_00000123399142799112222680000003986985568441974444_);fill:#02FA95;" points="
										883.8,664.5 890.1,668.1 890.1,605 883.8,601.4 									"/>
								</g>
							</g>
							<path class="st10" d="M886.7,588.7l0.5,0.3c1.6,0.9,2.9,3.4,2.9,5.5v69.7c0,2.1-1.3,3.1-2.9,2.2l-0.5-0.3
								c-1.6-0.9-2.9-3.4-2.9-5.5v-69.7C883.8,588.8,885.1,587.8,886.7,588.7z"/>
						</g>
						<g>
							<path class="st5" d="M874.2,659l0.5,0.3c1.6,0.9,2.9-0.1,2.9-2.2v-69.7c0-2.1-1.3-4.6-2.9-5.5l-0.5-0.3
								c-1.6-0.9-2.9,0.1-2.9,2.2v69.7C871.3,655.6,872.6,658.1,874.2,659z"/>
							<g>
								<g>
									<defs>
										<path id="SVGID_00000021112945065397116980000010183224716595674275_" d="M874.2,659l0.5,0.3c1.6,0.9,2.9-0.1,2.9-2.2
											v-69.7c0-2.1-1.3-4.6-2.9-5.5l-0.5-0.3c-1.6-0.9-2.9,0.1-2.9,2.2v69.7C871.3,655.6,872.6,658.1,874.2,659z"/>
									</defs>
									<clipPath id="SVGID_00000114789018054928638650000004436367510166288520_">
										<use xlink:href="#SVGID_00000021112945065397116980000010183224716595674275_"  style="overflow:visible;"/>
									</clipPath>
									<polygon style="clip-path:url(#SVGID_00000114789018054928638650000004436367510166288520_);fill:#02FA95;" points="
										871.3,657.3 877.6,660.9 877.6,583.5 871.3,579.8 									"/>
								</g>
							</g>
							<path class="st10" d="M874.2,581.5l0.5,0.3c1.6,0.9,2.9,3.4,2.9,5.5V657c0,2.1-1.3,3.1-2.9,2.2l-0.5-0.3
								c-1.6-0.9-2.9-3.4-2.9-5.5v-69.7C871.3,581.6,872.6,580.6,874.2,581.5z"/>
						</g>
					</g>
				</g>
				<path class="st3" d="M976.7,588.7c4.5,0,7.6,3.5,7.6,9.7c0,8.7-6.1,19.3-13.7,23.7c-2.2,1.3-4.3,1.9-6.2,1.9
					c-4.5,0-7.6-3.5-7.6-9.7c0-8.7,6.1-19.3,13.7-23.7C972.8,589.3,974.9,588.7,976.7,588.7 M976.7,583c-2.9,0-5.9,0.9-9,2.6
					c-9.3,5.4-16.5,17.9-16.5,28.5c0,4.3,1.2,8,3.3,10.7c2.4,3,5.9,4.6,9.9,4.6c2.9,0,5.9-0.9,9-2.6c9.3-5.4,16.5-17.9,16.5-28.5
					c0-4.3-1.2-8-3.3-10.7C984.2,584.7,980.7,583,976.7,583L976.7,583L976.7,583z"/>
				<path class="st3" d="M976.7,655.7c4.5,0,7.6,3.5,7.6,9.7c0,8.7-6.1,19.3-13.7,23.7c-2.2,1.3-4.3,1.9-6.2,1.9
					c-4.5,0-7.6-3.5-7.6-9.7c0-8.7,6.1-19.3,13.7-23.7C972.8,656.3,974.9,655.7,976.7,655.7 M976.7,650c-2.9,0-5.9,0.9-9,2.6
					c-9.3,5.4-16.5,17.9-16.5,28.5c0,4.3,1.2,8,3.3,10.7c2.4,3,5.9,4.6,9.9,4.6c2.9,0,5.9-0.9,9-2.6c9.3-5.4,16.5-17.9,16.5-28.5
					c0-4.3-1.2-8-3.3-10.7C984.2,651.7,980.7,650,976.7,650L976.7,650L976.7,650z"/>
				<g>
					
						<linearGradient id="SVGID_00000105388597465967933390000010628287964607367584_" gradientUnits="userSpaceOnUse" x1="5485.3013" y1="749.248" x2="5469.3042" y2="776.9553" gradientTransform="matrix(-1 0 0 -1 6568.1836 1440)">
						<stop  offset="0" style="stop-color:#02FA95"/>
						<stop  offset="1" style="stop-color:#FFFFFF;stop-opacity:0.5"/>
					</linearGradient>
					
						<polygon style="fill:url(#SVGID_00000105388597465967933390000010628287964607367584_);stroke:#000000;stroke-width:1.407;stroke-miterlimit:10;" points="
						980.2,589.5 1202.6,718 1202.6,762.6 960.8,623 					"/>
					<g>
						
							<ellipse transform="matrix(0.5054 -0.8629 0.8629 0.5054 -43.0254 1137.3264)" class="st16" cx="970.6" cy="606.2" rx="19.3" ry="11.2"/>
					</g>
					<polygon class="st17" points="1009.2,606.3 970.6,583.9 931.9,606.3 970.6,628.6 					"/>
					<g>
						<circle class="st4" cx="989.9" cy="617.5" r="14.9"/>
						
							<ellipse transform="matrix(0.5054 -0.8629 0.8629 0.5054 -40.9851 1151.7211)" class="st6" cx="984.2" cy="611.6" rx="5.7" ry="3.3"/>
					</g>
					<g>
						<g>
							
								<ellipse transform="matrix(0.5054 -0.8629 0.8629 0.5054 -43.248 1181.7159)" class="st18" cx="1009.2" cy="628.6" rx="19.3" ry="11.2"/>
						</g>
						<polygon class="st17" points="1047.9,628.6 1009.2,606.3 970.6,628.6 1009.2,651 						"/>
					</g>
					<g>
						<g>
							
								<ellipse transform="matrix(0.5054 -0.8629 0.8629 0.5054 -43.3665 1226.2041)" class="st18" cx="1047.9" cy="650.9" rx="19.3" ry="11.2"/>
						</g>
						<polygon class="st17" points="1086.6,651 1047.9,628.6 1009.2,651 1047.9,673.3 						"/>
					</g>
					<g>
						<g>
							<g>
								<circle class="st4" cx="1067.3" cy="662.1" r="14.9"/>
								
									<ellipse transform="matrix(0.5054 -0.8629 0.8629 0.5054 -41.321 1240.5969)" class="st6" cx="1061.5" cy="656.3" rx="5.7" ry="3.3"/>
							</g>
						</g>
						<g>
							<g>
								
									<ellipse transform="matrix(0.5054 -0.8629 0.8629 0.5054 -43.4843 1270.5929)" class="st18" cx="1086.6" cy="673.2" rx="19.3" ry="11.2"/>
							</g>
							<polygon class="st17" points="1125.3,673.3 1086.6,651 1047.9,673.3 1086.6,695.6 							"/>
						</g>
					</g>
					<g>
						<g>
							<g>
								
									<ellipse transform="matrix(0.5054 -0.8629 0.8629 0.5054 -43.6019 1314.9816)" class="st18" cx="1125.3" cy="695.5" rx="19.3" ry="11.2"/>
							</g>
							<polygon class="st17" points="1164,695.6 1125.3,673.3 1086.6,695.6 1125.3,718 							"/>
						</g>
					</g>
					<g>
						<g>
							<g>
								<circle class="st4" cx="1144.6" cy="706.8" r="14.9"/>
								
									<ellipse transform="matrix(0.5054 -0.8629 0.8629 0.5054 -41.5564 1329.3744)" class="st6" cx="1138.8" cy="700.9" rx="5.7" ry="3.3"/>
							</g>
						</g>
						<g>
							<g>
								
									<ellipse transform="matrix(0.5054 -0.8629 0.8629 0.5054 -43.7207 1359.4697)" class="st18" cx="1164" cy="717.9" rx="19.3" ry="11.2"/>
							</g>
							<polygon class="st17" points="1202.6,718 1164,695.6 1125.3,718 1164,740.3 							"/>
						</g>
					</g>
				</g>
				<g>
					
						<linearGradient id="SVGID_00000051342698997622344560000006788941667559921030_" gradientUnits="userSpaceOnUse" x1="5485.3008" y1="682.249" x2="5469.3032" y2="709.9568" gradientTransform="matrix(-1 0 0 -1 6568.1836 1440)">
						<stop  offset="4.210723e-03" style="stop-color:#FFB0A6"/>
						<stop  offset="1" style="stop-color:#FFFFFF;stop-opacity:0.5"/>
					</linearGradient>
					
						<polygon style="fill:url(#SVGID_00000051342698997622344560000006788941667559921030_);stroke:#000000;stroke-width:1.407;stroke-miterlimit:10;" points="
						980.2,656.5 1202.6,785 1202.6,829.6 960.8,690 					"/>
					<g>
						
							<ellipse transform="matrix(0.5054 -0.8629 0.8629 0.5054 -100.8391 1170.4738)" class="st20" cx="970.6" cy="673.2" rx="19.3" ry="11.2"/>
					</g>
					<polygon class="st17" points="1009.2,673.3 970.6,650.9 931.9,673.3 970.6,695.6 					"/>
					<g>
						<circle class="st21" cx="989.9" cy="684.5" r="14.9"/>
						
							<ellipse transform="matrix(0.5054 -0.8629 0.8629 0.5054 -98.799 1184.8684)" class="st6" cx="984.2" cy="678.6" rx="5.7" ry="3.3"/>
					</g>
					<g>
						<g>
							
								<ellipse transform="matrix(0.5054 -0.8629 0.8629 0.5054 -101.0617 1214.8633)" class="st18" cx="1009.2" cy="695.6" rx="19.3" ry="11.2"/>
						</g>
						<polygon class="st17" points="1047.9,695.6 1009.2,673.3 970.6,695.6 1009.2,718 						"/>
					</g>
					<g>
						<g>
							
								<ellipse transform="matrix(0.5054 -0.8629 0.8629 0.5054 -101.1804 1259.3516)" class="st18" cx="1047.9" cy="717.9" rx="19.3" ry="11.2"/>
						</g>
						<polygon class="st17" points="1086.6,718 1047.9,695.6 1009.2,718 1047.9,740.3 						"/>
					</g>
					<g>
						<g>
							<g>
								<circle class="st21" cx="1067.3" cy="729.1" r="14.9"/>
								
									<ellipse transform="matrix(0.5054 -0.8629 0.8629 0.5054 -99.1348 1273.7444)" class="st6" cx="1061.5" cy="723.3" rx="5.7" ry="3.3"/>
							</g>
						</g>
						<g>
							<g>
								
									<ellipse transform="matrix(0.5054 -0.8629 0.8629 0.5054 -101.2981 1303.7402)" class="st18" cx="1086.6" cy="740.2" rx="19.3" ry="11.2"/>
							</g>
							<polygon class="st17" points="1125.3,740.3 1086.6,718 1047.9,740.3 1086.6,762.6 							"/>
						</g>
					</g>
					<g>
						<g>
							<g>
								
									<ellipse transform="matrix(0.5054 -0.8629 0.8629 0.5054 -101.4158 1348.1289)" class="st18" cx="1125.3" cy="762.5" rx="19.3" ry="11.2"/>
							</g>
							<polygon class="st17" points="1164,762.6 1125.3,740.3 1086.6,762.6 1125.3,785 							"/>
						</g>
					</g>
					<g>
						<g>
							<g>
								<circle class="st21" cx="1144.6" cy="773.8" r="14.9"/>
								
									<ellipse transform="matrix(0.5054 -0.8629 0.8629 0.5054 -99.3702 1362.5217)" class="st6" cx="1138.8" cy="767.9" rx="5.7" ry="3.3"/>
							</g>
						</g>
						<g>
							<g>
								
									<ellipse transform="matrix(0.5054 -0.8629 0.8629 0.5054 -101.5346 1392.6171)" class="st18" cx="1164" cy="784.9" rx="19.3" ry="11.2"/>
							</g>
							<polygon class="st17" points="1202.6,785 1164,762.6 1125.3,785 1164,807.3 							"/>
						</g>
					</g>
				</g>
			</g>
		</g>
		<g>
			<path class="st2" d="M1608.8,572.8l-48.3-27.9c-6.4-3.7-9.7-10.2-9.7-16.7v78.2V651v33.5c0,6.5,3.2,13,9.7,16.8l48.3,27.9
				c6,3.5,12.7,5.2,19.3,5.2v-10.8v-88.9V578C1621.4,578,1614.8,576.2,1608.8,572.8z"/>
			<g>
				<g>
					<g>
						<path class="st2" d="M1560.4,511.4l48.3-27.9c12-6.9,26.7-6.9,38.7,0l48.3,27.9c12.9,7.4,12.9,26.1,0,33.5l-48.3,27.9
							c-12,6.9-26.7,6.9-38.7,0l-48.3-27.9C1547.5,537.4,1547.5,518.8,1560.4,511.4z"/>
					</g>
				</g>
				<g>
					<g>
						<polygon class="st4" points="1599.8,537.1 1599.7,544.5 1612.5,544.5 1612.6,537.1 						"/>
						<polygon class="st4" points="1612.7,519.2 1634.6,519.1 1634.6,511.8 1599.9,511.8 1599.8,531.9 1612.6,531.8 						"/>
						<polygon class="st4" points="1643.7,511.7 1643.7,519.1 1656.5,519.1 1656.5,511.7 						"/>
						<polygon class="st4" points="1643.6,537 1621.7,537.1 1621.6,544.5 1656.3,544.4 1656.4,524.4 1643.7,524.4 						"/>
						<polygon class="st4" points="1621.7,531.8 1634.5,531.8 1634.5,524.4 1621.8,524.4 						"/>
					</g>
				</g>
			</g>
			<path class="st3" d="M1695.8,544.9l-48.3,27.9c-6,3.5-12.7,5.2-19.3,5.2v56.6v88.9v10.8c6.7,0,13.4-1.7,19.3-5.2l48.3-27.9
				c6.4-3.7,9.7-10.2,9.7-16.8V528.1C1705.5,534.6,1702.3,541.1,1695.8,544.9z"/>
			<g>
				<polygon class="st3" points="1683.3,696.8 1675.7,692.4 1657.9,702.6 1657.9,723.1 1675.7,733.3 1693.4,723.1 				"/>
				<g>
					<polyline class="st7" points="1657.9,702.6 1665.5,707 1683.3,696.8 					"/>
					<line class="st7" x1="1665.5" y1="707" x2="1675.7" y2="733.3"/>
				</g>
			</g>
			<path class="st6" d="M1560.4,544.9L1560.4,544.9c-6.4-3.7-9.7-10.2-9.7-16.7v156.3c0,6.5,3.2,13,9.7,16.8l0,0V544.9z"/>
			<path class="st3" d="M1583.3,588.7c1.9,0,3.9,0.6,6.2,1.9c7.6,4.4,13.7,15,13.7,23.7c0,6.1-3.1,9.7-7.6,9.7
				c-1.9,0-3.9-0.6-6.2-1.9c-7.6-4.4-13.7-15-13.7-23.7C1575.7,592.2,1578.8,588.7,1583.3,588.7 M1583.3,583L1583.3,583
				c-3.9,0-7.4,1.7-9.9,4.6c-2.2,2.7-3.3,6.4-3.3,10.7c0,10.6,7.3,23.2,16.5,28.5c3,1.8,6.1,2.6,9,2.6c3.9,0,7.4-1.7,9.9-4.6
				c2.2-2.7,3.3-6.4,3.3-10.7c0-10.6-7.3-23.2-16.5-28.5C1589.2,583.9,1586.2,583,1583.3,583L1583.3,583z"/>
			<g>
				<path class="st5" d="M1648.3,680.6l-0.5,0.3c-1.6,0.9-2.9-0.1-2.9-2.2V609c0-2.1,1.3-4.6,2.9-5.5l0.5-0.3
					c1.6-0.9,2.9,0.1,2.9,2.2v69.7C1651.2,677.2,1649.9,679.7,1648.3,680.6z"/>
				<g>
					<g>
						<defs>
							<path id="SVGID_00000096050121783405104360000001536488559253410451_" d="M1648.3,680.6l-0.5,0.3c-1.6,0.9-2.9-0.1-2.9-2.2
								V609c0-2.1,1.3-4.6,2.9-5.5l0.5-0.3c1.6-0.9,2.9,0.1,2.9,2.2v69.7C1651.2,677.2,1649.9,679.7,1648.3,680.6z"/>
						</defs>
						<clipPath id="SVGID_00000094612084746716869050000012840088231029612734_">
							<use xlink:href="#SVGID_00000096050121783405104360000001536488559253410451_"  style="overflow:visible;"/>
						</clipPath>
						<polygon style="clip-path:url(#SVGID_00000094612084746716869050000012840088231029612734_);fill:#02FA95;" points="
							1651.2,679 1644.9,682.6 1644.9,643.8 1651.2,640.2 						"/>
					</g>
				</g>
				<path class="st5" d="M1660.8,673.4l-0.5,0.3c-1.6,0.9-2.9-0.1-2.9-2.2v-69.7c0-2.1,1.3-4.6,2.9-5.5l0.5-0.3
					c1.6-0.9,2.9,0.1,2.9,2.2v69.7C1663.7,670,1662.4,672.5,1660.8,673.4z"/>
				<g>
					<g>
						<defs>
							<path id="SVGID_00000050650391919770135740000008525390321417879186_" d="M1660.8,673.4l-0.5,0.3c-1.6,0.9-2.9-0.1-2.9-2.2
								v-69.7c0-2.1,1.3-4.6,2.9-5.5l0.5-0.3c1.6-0.9,2.9,0.1,2.9,2.2v69.7C1663.7,670,1662.4,672.5,1660.8,673.4z"/>
						</defs>
						<clipPath id="SVGID_00000098190581612072704090000013749817983244624256_">
							<use xlink:href="#SVGID_00000050650391919770135740000008525390321417879186_"  style="overflow:visible;"/>
						</clipPath>
						<polygon style="clip-path:url(#SVGID_00000098190581612072704090000013749817983244624256_);fill:#02FA95;" points="
							1663.7,671.7 1657.4,675.4 1657.4,661 1663.7,657.4 						"/>
					</g>
				</g>
				<path class="st5" d="M1673.3,666.2l-0.5,0.3c-1.6,0.9-2.9-0.1-2.9-2.2v-69.7c0-2.1,1.3-4.6,2.9-5.5l0.5-0.3
					c1.6-0.9,2.9,0.1,2.9,2.2v69.7C1676.2,662.8,1674.9,665.3,1673.3,666.2z"/>
				<g>
					<g>
						<defs>
							<path id="SVGID_00000132784843033364647130000002722121320000692378_" d="M1673.3,666.2l-0.5,0.3c-1.6,0.9-2.9-0.1-2.9-2.2
								v-69.7c0-2.1,1.3-4.6,2.9-5.5l0.5-0.3c1.6-0.9,2.9,0.1,2.9,2.2v69.7C1676.2,662.8,1674.9,665.3,1673.3,666.2z"/>
						</defs>
						<clipPath id="SVGID_00000155858771435450133520000006564040393570529970_">
							<use xlink:href="#SVGID_00000132784843033364647130000002722121320000692378_"  style="overflow:visible;"/>
						</clipPath>
						<polygon style="clip-path:url(#SVGID_00000155858771435450133520000006564040393570529970_);fill:#02FA95;" points="
							1676.2,664.5 1669.9,668.1 1669.9,605 1676.2,601.4 						"/>
					</g>
				</g>
				<path class="st5" d="M1685.8,659l-0.5,0.3c-1.6,0.9-2.9-0.1-2.9-2.2v-69.7c0-2.1,1.3-4.6,2.9-5.5l0.5-0.3
					c1.6-0.9,2.9,0.1,2.9,2.2v69.7C1688.7,655.6,1687.4,658.1,1685.8,659z"/>
				<g>
					<g>
						<defs>
							<path id="SVGID_00000182518984347464624770000007323593703163878316_" d="M1685.8,659l-0.5,0.3c-1.6,0.9-2.9-0.1-2.9-2.2
								v-69.7c0-2.1,1.3-4.6,2.9-5.5l0.5-0.3c1.6-0.9,2.9,0.1,2.9,2.2v69.7C1688.7,655.6,1687.4,658.1,1685.8,659z"/>
						</defs>
						<clipPath id="SVGID_00000062162533731005431800000007860443599269123464_">
							<use xlink:href="#SVGID_00000182518984347464624770000007323593703163878316_"  style="overflow:visible;"/>
						</clipPath>
						<polygon style="clip-path:url(#SVGID_00000062162533731005431800000007860443599269123464_);fill:#02FA95;" points="
							1688.7,657.3 1682.4,660.9 1682.4,583.5 1688.7,579.8 						"/>
					</g>
				</g>
				<g>
					<path class="st10" d="M1648.3,603.2l-0.5,0.3c-1.6,0.9-2.9,3.4-2.9,5.5v69.7c0,2.1,1.3,3.1,2.9,2.2l0.5-0.3
						c1.6-0.9,2.9-3.4,2.9-5.5v-69.7C1651.2,603.2,1649.9,602.3,1648.3,603.2z"/>
					<path class="st10" d="M1660.8,596l-0.5,0.3c-1.6,0.9-2.9,3.4-2.9,5.5v69.7c0,2.1,1.3,3.1,2.9,2.2l0.5-0.3
						c1.6-0.9,2.9-3.4,2.9-5.5v-69.7C1663.7,596,1662.4,595,1660.8,596z"/>
					<path class="st10" d="M1673.3,588.7l-0.5,0.3c-1.6,0.9-2.9,3.4-2.9,5.5v69.7c0,2.1,1.3,3.1,2.9,2.2l0.5-0.3
						c1.6-0.9,2.9-3.4,2.9-5.5v-69.7C1676.2,588.8,1674.9,587.8,1673.3,588.7z"/>
					<path class="st10" d="M1685.8,581.5l-0.5,0.3c-1.6,0.9-2.9,3.4-2.9,5.5V657c0,2.1,1.3,3.1,2.9,2.2l0.5-0.3
						c1.6-0.9,2.9-3.4,2.9-5.5v-69.7C1688.7,581.6,1687.4,580.6,1685.8,581.5z"/>
				</g>
			</g>
			<path class="st7" d="M1608.8,572.8l-48.3-27.9c-6.4-3.7-9.7-10.2-9.7-16.7v78.2V651v33.5c0,6.5,3.2,13,9.7,16.8l48.3,27.9
				c6,3.5,12.7,5.2,19.3,5.2v-10.8v-88.9V578C1621.4,578,1614.8,576.2,1608.8,572.8z"/>
			<g>
				
					<linearGradient id="SVGID_00000109008769480798329160000000545830042757524115_" gradientUnits="userSpaceOnUse" x1="1477.1565" y1="749.2672" x2="1461.1597" y2="776.9746" gradientTransform="matrix(1 0 0 -1 0 1440)">
					<stop  offset="0" style="stop-color:#02FA95"/>
					<stop  offset="1" style="stop-color:#FFFFFF;stop-opacity:0.5"/>
				</linearGradient>
				
					<polygon style="fill:url(#SVGID_00000109008769480798329160000000545830042757524115_);stroke:#000000;stroke-width:1.407;stroke-miterlimit:10;" points="
					1579.8,589.5 1357.4,718 1357.4,762.6 1599.3,623 				"/>
				<g>
					
						<ellipse transform="matrix(0.8629 -0.5054 0.5054 0.8629 -88.5062 886.4799)" class="st16" cx="1589.5" cy="606.4" rx="11.2" ry="19.3"/>
				</g>
				<polygon class="st17" points="1550.8,606.3 1589.4,583.9 1628.1,606.3 1589.4,628.6 				"/>
				<g>
					<circle class="st4" cx="1570.1" cy="617.5" r="14.9"/>
					
						<ellipse transform="matrix(0.8629 -0.5054 0.5054 0.8629 -93.1403 880.3023)" class="st6" cx="1575.8" cy="611.8" rx="3.3" ry="5.7"/>
				</g>
				<g>
					<g>
						
							<ellipse transform="matrix(0.8629 -0.5054 0.5054 0.8629 -105.0913 869.9709)" class="st18" cx="1550.8" cy="628.7" rx="11.2" ry="19.3"/>
					</g>
					<polygon class="st17" points="1512.1,628.6 1550.8,606.3 1589.4,628.6 1550.8,651 					"/>
				</g>
				<g>
					<g>
						
							<ellipse transform="matrix(0.8629 -0.5054 0.5054 0.8629 -121.7136 853.5008)" class="st18" cx="1512.2" cy="651.1" rx="11.2" ry="19.3"/>
					</g>
					<polygon class="st17" points="1473.4,651 1512.1,628.6 1550.8,651 1512.1,673.3 					"/>
				</g>
				<g>
					<g>
						<g>
							<circle class="st4" cx="1492.7" cy="662.1" r="14.9"/>
							
								<ellipse transform="matrix(0.8629 -0.5054 0.5054 0.8629 -126.3109 847.3614)" class="st6" cx="1498.5" cy="656.5" rx="3.3" ry="5.7"/>
						</g>
					</g>
					<g>
						<g>
							
								<ellipse transform="matrix(0.8629 -0.5054 0.5054 0.8629 -138.2992 836.9933)" class="st18" cx="1473.4" cy="673.4" rx="11.2" ry="19.3"/>
						</g>
						<polygon class="st17" points="1434.7,673.3 1473.4,651 1512.1,673.3 1473.4,695.6 						"/>
					</g>
				</g>
				<g>
					<g>
						<g>
							
								<ellipse transform="matrix(0.8629 -0.5054 0.5054 0.8629 -154.8849 820.4859)" class="st18" cx="1434.7" cy="695.7" rx="11.2" ry="19.3"/>
						</g>
						<polygon class="st17" points="1396,695.6 1434.7,673.3 1473.4,695.6 1434.7,718 						"/>
					</g>
				</g>
				<g>
					<g>
						<g>
							<circle class="st4" cx="1415.4" cy="706.8" r="14.9"/>
							
								<ellipse transform="matrix(0.8629 -0.5054 0.5054 0.8629 -159.4822 814.3464)" class="st6" cx="1421.1" cy="701.1" rx="3.3" ry="5.7"/>
						</g>
					</g>
					<g>
						<g>
							
								<ellipse transform="matrix(0.8629 -0.5054 0.5054 0.8629 -171.5072 804.0158)" class="st18" cx="1396.1" cy="718.1" rx="11.2" ry="19.3"/>
						</g>
						<polygon class="st17" points="1357.4,718 1396,695.6 1434.7,718 1396,740.3 						"/>
					</g>
				</g>
			</g>
			<g>
				<path class="st3" d="M1583.3,655.7c1.9,0,3.9,0.6,6.2,1.9c7.6,4.4,13.7,15,13.7,23.7c0,6.1-3.1,9.7-7.6,9.7
					c-1.9,0-3.9-0.6-6.2-1.9c-7.6-4.4-13.7-15-13.7-23.7C1575.7,659.2,1578.8,655.7,1583.3,655.7 M1583.3,650L1583.3,650
					c-3.9,0-7.4,1.7-9.9,4.6c-2.2,2.7-3.3,6.4-3.3,10.7c0,10.6,7.3,23.2,16.5,28.5c3,1.8,6.1,2.6,9,2.6c3.9,0,7.4-1.7,9.9-4.6
					c2.2-2.7,3.3-6.4,3.3-10.7c0-10.6-7.3-23.2-16.5-28.5C1589.2,650.9,1586.2,650,1583.3,650L1583.3,650z"/>
				<g>
					
						<linearGradient id="SVGID_00000127755689841115074570000014235706687791573177_" gradientUnits="userSpaceOnUse" x1="1477.156" y1="682.2682" x2="1461.1588" y2="709.9761" gradientTransform="matrix(1 0 0 -1 0 1440)">
						<stop  offset="4.210723e-03" style="stop-color:#FFB0A6"/>
						<stop  offset="1" style="stop-color:#FFFFFF;stop-opacity:0.5"/>
					</linearGradient>
					
						<polygon style="fill:url(#SVGID_00000127755689841115074570000014235706687791573177_);stroke:#000000;stroke-width:1.407;stroke-miterlimit:10;" points="
						1579.8,656.5 1357.4,785 1357.4,829.6 1599.3,690 					"/>
					<g>
						
							<ellipse transform="matrix(0.8629 -0.5054 0.5054 0.8629 -122.4009 895.6267)" class="st20" cx="1589.4" cy="673.4" rx="11.2" ry="19.3"/>
					</g>
					<polygon class="st17" points="1550.8,673.3 1589.4,650.9 1628.1,673.3 1589.4,695.6 					"/>
					<g>
						<circle class="st21" cx="1570.1" cy="684.5" r="14.9"/>
						
							<ellipse transform="matrix(0.8629 -0.5054 0.5054 0.8629 -126.9977 889.4858)" class="st6" cx="1575.8" cy="678.8" rx="3.3" ry="5.7"/>
					</g>
					<g>
						<g>
							
								<ellipse transform="matrix(0.8629 -0.5054 0.5054 0.8629 -138.9487 879.1545)" class="st18" cx="1550.8" cy="695.7" rx="11.2" ry="19.3"/>
						</g>
						<polygon class="st17" points="1512.1,695.6 1550.8,673.3 1589.4,695.6 1550.8,718 						"/>
					</g>
					<g>
						<g>
							
								<ellipse transform="matrix(0.8629 -0.5054 0.5054 0.8629 -155.5712 862.6846)" class="st18" cx="1512.1" cy="718.1" rx="11.2" ry="19.3"/>
						</g>
						<polygon class="st17" points="1473.4,718 1512.1,695.6 1550.8,718 1512.1,740.3 						"/>
					</g>
					<g>
						<g>
							<g>
								<circle class="st21" cx="1492.7" cy="729.1" r="14.9"/>
								
									<ellipse transform="matrix(0.8629 -0.5054 0.5054 0.8629 -160.1686 856.5453)" class="st6" cx="1498.5" cy="723.5" rx="3.3" ry="5.7"/>
							</g>
						</g>
						<g>
							<g>
								
									<ellipse transform="matrix(0.8629 -0.5054 0.5054 0.8629 -172.157 846.1774)" class="st18" cx="1473.4" cy="740.4" rx="11.2" ry="19.3"/>
							</g>
							<polygon class="st17" points="1434.7,740.3 1473.4,718 1512.1,740.3 1473.4,762.6 							"/>
						</g>
					</g>
					<g>
						<g>
							<g>
								
									<ellipse transform="matrix(0.8629 -0.5054 0.5054 0.8629 -188.7427 829.67)" class="st18" cx="1434.7" cy="762.7" rx="11.2" ry="19.3"/>
							</g>
							<polygon class="st17" points="1396,762.6 1434.7,740.3 1473.4,762.6 1434.7,785 							"/>
						</g>
					</g>
					<g>
						<g>
							<g>
								<circle class="st21" cx="1415.4" cy="773.8" r="14.9"/>
								
									<ellipse transform="matrix(0.8629 -0.5054 0.5054 0.8629 -193.34 823.5307)" class="st6" cx="1421.1" cy="768.1" rx="3.3" ry="5.7"/>
							</g>
						</g>
						<g>
							<g>
								
									<ellipse transform="matrix(0.8629 -0.5054 0.5054 0.8629 -205.3651 813.2001)" class="st18" cx="1396.1" cy="785.1" rx="11.2" ry="19.3"/>
							</g>
							<polygon class="st17" points="1357.4,785 1396,762.6 1434.7,785 1396,807.3 							"/>
						</g>
					</g>
				</g>
			</g>
		</g>
		<path class="st2" d="M1299.5,606.4l203.1,117.2c12.9,7.4,12.9,26.1,0,33.5l-203.1,117.2c-12,6.9-26.7,6.9-38.7,0l-203.1-117.2
			c-12.9-7.4-12.9-26.1,0-33.5l203.1-117.2C1272.8,599.4,1287.5,599.4,1299.5,606.4z"/>
		<g>
			<g>
				<path class="st5" d="M1057.6,757.1c-6.5-3.7-9.7-10.2-9.7-16.8l0,0V895h0.1c-0.6,7,2.6,14.3,9.6,18.3l203.1,117.2
					c6,3.5,12.7,5.2,19.3,5.2V879.5c-6.7,0-13.4-1.7-19.3-5.2L1057.6,757.1z"/>
				<g>
					<g>
						<defs>
							<path id="SVGID_00000010997628399477230830000011051171593336105618_" d="M1057.6,757.1c-6.5-3.7-9.7-10.2-9.7-16.8l0,0V895
								h0.1c-0.6,7,2.6,14.3,9.6,18.3l203.1,117.2c6,3.5,12.7,5.2,19.3,5.2V879.5c-6.7,0-13.4-1.7-19.3-5.2L1057.6,757.1z"/>
						</defs>
						<clipPath id="SVGID_00000031190487723790708300000010433483949201628303_">
							<use xlink:href="#SVGID_00000010997628399477230830000011051171593336105618_"  style="overflow:visible;"/>
						</clipPath>
						
							<rect x="1047.9" y="740.3" style="clip-path:url(#SVGID_00000031190487723790708300000010433483949201628303_);fill:#FFFFFF;" width="19.3" height="178.7"/>
					</g>
					<g>
						<defs>
							<path id="SVGID_00000060749843471421374480000002947657825019771780_" d="M1057.6,757.1c-6.5-3.7-9.7-10.2-9.7-16.8l0,0V895
								h0.1c-0.6,7,2.6,14.3,9.6,18.3l203.1,117.2c6,3.5,12.7,5.2,19.3,5.2V879.5c-6.7,0-13.4-1.7-19.3-5.2L1057.6,757.1z"/>
						</defs>
						<clipPath id="SVGID_00000033336912111168532300000010952475450329464960_">
							<use xlink:href="#SVGID_00000060749843471421374480000002947657825019771780_"  style="overflow:visible;"/>
						</clipPath>
						
							<rect x="1251" y="863" style="clip-path:url(#SVGID_00000033336912111168532300000010952475450329464960_);fill:#FFFFFF;" width="19.3" height="172.8"/>
					</g>
				</g>
				<g>
					<ellipse transform="matrix(0.8629 -0.5054 0.5054 0.8629 -342.4226 776.9527)" cx="1260.7" cy="1019.6" rx="2" ry="3.4"/>
					<polygon class="st17" points="1260.7,1030.6 1280,1019.5 1260.7,1008.3 1241.3,1019.5 					"/>
				</g>
				<g>
					<ellipse transform="matrix(0.8629 -0.5054 0.5054 0.8629 -274.6966 758.5818)" cx="1260.7" cy="885.6" rx="2" ry="3.4"/>
					<polygon class="st17" points="1260.7,896.6 1280,885.5 1260.7,874.3 1241.3,885.5 					"/>
				</g>
				<g>
					<ellipse transform="matrix(0.8629 -0.5054 0.5054 0.8629 -243.2683 639.8436)" cx="1057.6" cy="768.3" rx="2" ry="3.4"/>
					<polygon class="st17" points="1067.3,785 1047.9,773.8 1047.9,751.5 1067.3,762.6 					"/>
				</g>
				<polyline class="st7" points="1067.3,762.6 1067.3,791.9 1084.3,821.3 1084.3,880 1067.3,889.7 1067.3,919 				"/>
				<path class="st7" d="M1057.6,757.1c-6.5-3.7-9.7-10.2-9.7-16.8l0,0V895h0.1c-0.6,7,2.6,14.3,9.6,18.3l203.1,117.2
					c6,3.5,12.7,5.2,19.3,5.2V879.5c-6.7,0-13.4-1.7-19.3-5.2L1057.6,757.1z"/>
				<polyline class="st7" points="1241.3,863.1 1241.3,892.5 1224.3,902.2 1224.3,960.8 1241.3,990.2 1241.3,1019.5 				"/>
			</g>
			<g>
				<g>
					<path class="st3" d="M1148.1,839.9c1.9,0,3.9,0.6,6.2,1.9c7.6,4.4,13.7,15,13.7,23.7c0,6.1-3.1,9.7-7.6,9.7
						c-1.9,0-3.9-0.6-6.2-1.9c-7.6-4.4-13.7-15-13.7-23.7C1140.6,843.5,1143.6,839.9,1148.1,839.9 M1148.1,834.3L1148.1,834.3
						c-3.9,0-7.4,1.7-9.9,4.6c-2.2,2.7-3.3,6.4-3.3,10.7c0,10.6,7.3,23.2,16.5,28.5c3,1.8,6.1,2.6,9,2.6c3.9,0,7.4-1.7,9.8-4.6
						c2.2-2.7,3.3-6.4,3.3-10.7c0-10.6-7.3-23.2-16.5-28.5C1154.1,835.2,1151.1,834.3,1148.1,834.3L1148.1,834.3z"/>
					<path class="st3" d="M1148.1,906.9c1.9,0,3.9,0.6,6.2,1.9c7.6,4.4,13.7,15,13.7,23.7c0,6.1-3.1,9.7-7.6,9.7
						c-1.9,0-3.9-0.6-6.2-1.9c-7.6-4.4-13.7-15-13.7-23.7C1140.6,910.5,1143.6,906.9,1148.1,906.9 M1148.1,901.3L1148.1,901.3
						c-3.9,0-7.4,1.7-9.9,4.6c-2.2,2.7-3.3,6.4-3.3,10.7c0,10.6,7.3,23.2,16.5,28.5c3,1.8,6.1,2.6,9,2.6c3.9,0,7.4-1.7,9.8-4.6
						c2.2-2.7,3.3-6.4,3.3-10.7c0-10.6-7.3-23.2-16.5-28.5C1154.1,902.2,1151.1,901.3,1148.1,901.3L1148.1,901.3z"/>
					<g>
						
							<linearGradient id="SVGID_00000016765226033899634070000007282691514583192450_" gradientUnits="userSpaceOnUse" x1="1041.9772" y1="497.9813" x2="1025.9803" y2="525.6885" gradientTransform="matrix(1 0 0 -1 0 1440)">
							<stop  offset="0" style="stop-color:#02FA95"/>
							<stop  offset="1" style="stop-color:#FFFFFF;stop-opacity:0.5"/>
						</linearGradient>
						
							<polygon style="fill:url(#SVGID_00000016765226033899634070000007282691514583192450_);stroke:#000000;stroke-width:1.407;stroke-miterlimit:10;" points="
							1144.6,840.8 922.2,969.2 922.2,1013.9 1164.1,874.2 						"/>
						<g>
							
								<ellipse transform="matrix(0.8629 -0.5054 0.5054 0.8629 -275.189 700.9877)" class="st16" cx="1154.3" cy="857.7" rx="11.2" ry="19.3"/>
						</g>
						<polygon class="st17" points="1115.6,857.6 1154.3,835.2 1193,857.6 1154.3,879.9 						"/>
						<g>
							<circle class="st4" cx="1135" cy="868.7" r="14.9"/>
							
								<ellipse transform="matrix(0.8629 -0.5054 0.5054 0.8629 -279.7859 694.8467)" class="st6" cx="1140.7" cy="863.1" rx="3.3" ry="5.7"/>
						</g>
						<g>
							<g>
								
									<ellipse transform="matrix(0.8629 -0.5054 0.5054 0.8629 -291.7742 684.4788)" class="st18" cx="1115.6" cy="880" rx="11.2" ry="19.3"/>
							</g>
							<polygon class="st17" points="1076.9,879.9 1115.6,857.6 1154.3,879.9 1115.6,902.2 							"/>
						</g>
						<g>
							<g>
								
									<ellipse transform="matrix(0.8629 -0.5054 0.5054 0.8629 -308.3599 667.9713)" class="st18" cx="1076.9" cy="902.3" rx="11.2" ry="19.3"/>
							</g>
							<polygon class="st17" points="1038.3,902.2 1076.9,879.9 1115.6,902.2 1076.9,924.6 							"/>
						</g>
						<g>
							<g>
								<g>
									<circle class="st4" cx="1057.6" cy="913.4" r="14.9"/>
									
										<ellipse transform="matrix(0.8629 -0.5054 0.5054 0.8629 -312.9938 661.8693)" class="st6" cx="1063.3" cy="907.8" rx="3.3" ry="5.7"/>
								</g>
							</g>
							<g>
								<g>
									
										<ellipse transform="matrix(0.8629 -0.5054 0.5054 0.8629 -324.9448 651.5379)" class="st18" cx="1038.3" cy="924.6" rx="11.2" ry="19.3"/>
								</g>
								<polygon class="st17" points="999.6,924.6 1038.3,902.2 1076.9,924.6 1038.3,946.9 								"/>
							</g>
						</g>
						<g>
							<g>
								<g>
									
										<ellipse transform="matrix(0.8629 -0.5054 0.5054 0.8629 -341.5305 635.0304)" class="st18" cx="999.6" cy="947" rx="11.2" ry="19.3"/>
								</g>
								<polygon class="st17" points="960.9,946.9 999.6,924.6 1038.3,946.9 999.6,969.2 								"/>
							</g>
						</g>
						<g>
							<g>
								<g>
									<circle class="st4" cx="980.2" cy="958.1" r="14.9"/>
									
										<ellipse transform="matrix(0.8629 -0.5054 0.5054 0.8629 -346.1277 628.891)" class="st6" cx="986" cy="952.4" rx="3.3" ry="5.7"/>
								</g>
							</g>
							<g>
								<g>
									
										<ellipse transform="matrix(0.8629 -0.5054 0.5054 0.8629 -358.1161 618.5229)" class="st18" cx="960.9" cy="969.3" rx="11.2" ry="19.3"/>
								</g>
								<polygon class="st17" points="922.2,969.2 960.9,946.9 999.6,969.2 960.9,991.6 								"/>
							</g>
						</g>
					</g>
					<g>
						
							<linearGradient id="SVGID_00000076564954388308057290000014866434148174607503_" gradientUnits="userSpaceOnUse" x1="1041.9767" y1="430.9823" x2="1025.9795" y2="458.6902" gradientTransform="matrix(1 0 0 -1 0 1440)">
							<stop  offset="4.210723e-03" style="stop-color:#FFB0A6"/>
							<stop  offset="1" style="stop-color:#FFFFFF;stop-opacity:0.5"/>
						</linearGradient>
						
							<polygon style="fill:url(#SVGID_00000076564954388308057290000014866434148174607503_);stroke:#000000;stroke-width:1.407;stroke-miterlimit:10;" points="
							1144.6,907.8 922.2,1036.2 922.2,1080.9 1164.1,941.2 						"/>
						<g>
							
								<ellipse transform="matrix(0.8629 -0.5054 0.5054 0.8629 -309.0469 710.1728)" class="st20" cx="1154.3" cy="924.7" rx="11.2" ry="19.3"/>
						</g>
						<polygon class="st17" points="1115.6,924.6 1154.3,902.2 1193,924.6 1154.3,946.9 						"/>
						<g>
							<circle class="st21" cx="1135" cy="935.7" r="14.9"/>
							
								<ellipse transform="matrix(0.8629 -0.5054 0.5054 0.8629 -313.6438 704.0319)" class="st6" cx="1140.7" cy="930.1" rx="3.3" ry="5.7"/>
						</g>
						<g>
							<g>
								
									<ellipse transform="matrix(0.8629 -0.5054 0.5054 0.8629 -325.6321 693.6639)" class="st18" cx="1115.6" cy="947" rx="11.2" ry="19.3"/>
							</g>
							<polygon class="st17" points="1076.9,946.9 1115.6,924.6 1154.3,946.9 1115.6,969.2 							"/>
						</g>
						<g>
							<g>
								
									<ellipse transform="matrix(0.8629 -0.5054 0.5054 0.8629 -342.2179 677.1567)" class="st18" cx="1076.9" cy="969.3" rx="11.2" ry="19.3"/>
							</g>
							<polygon class="st17" points="1038.2,969.2 1076.9,946.9 1115.6,969.2 1076.9,991.6 							"/>
						</g>
						<g>
							<g>
								<g>
									<circle class="st21" cx="1057.6" cy="980.4" r="14.9"/>
									
										<ellipse transform="matrix(0.8629 -0.5054 0.5054 0.8629 -346.8519 671.0547)" class="st6" cx="1063.3" cy="974.8" rx="3.3" ry="5.7"/>
								</g>
							</g>
							<g>
								<g>
									
										<ellipse transform="matrix(0.8629 -0.5054 0.5054 0.8629 -358.8029 660.7234)" class="st18" cx="1038.3" cy="991.6" rx="11.2" ry="19.3"/>
								</g>
								<polygon class="st17" points="999.6,991.6 1038.2,969.2 1076.9,991.6 1038.2,1013.9 								"/>
							</g>
						</g>
						<g>
							<g>
								<g>
									
										<ellipse transform="matrix(0.8629 -0.5054 0.5054 0.8629 -375.3886 644.2161)" class="st18" cx="999.6" cy="1014" rx="11.2" ry="19.3"/>
								</g>
								<polygon class="st17" points="960.9,1013.9 999.6,991.6 1038.2,1013.9 999.6,1036.2 								"/>
							</g>
						</g>
						<g>
							<g>
								<g>
									<circle class="st21" cx="980.2" cy="1025.1" r="14.9"/>
									
										<ellipse transform="matrix(0.8629 -0.5054 0.5054 0.8629 -379.9859 638.0767)" class="st6" cx="986" cy="1019.4" rx="3.3" ry="5.7"/>
								</g>
							</g>
							<g>
								<g>
									
										<ellipse transform="matrix(0.8629 -0.5054 0.5054 0.8629 -391.9743 627.7088)" class="st18" cx="960.9" cy="1036.3" rx="11.2" ry="19.3"/>
								</g>
								<polygon class="st17" points="922.2,1036.2 960.9,1013.9 999.6,1036.2 960.9,1058.6 								"/>
							</g>
						</g>
					</g>
				</g>
				<g>
					<path class="st2" d="M912.5,974.8l-48.3-27.9c-6.4-3.7-9.7-10.2-9.7-16.7v78.2v44.7v33.5c0,6.5,3.2,13,9.7,16.8l48.3,27.9
						c6,3.5,12.7,5.2,19.3,5.2v-10.8v-88.9V980C925.2,980,918.5,978.3,912.5,974.8z"/>
					<polyline class="st7" points="912.5,974.8 912.5,1004.1 895.5,1013.8 895.5,1072.5 912.5,1101.9 912.5,1131.2 					"/>
					<g>
						<g>
							<g>
								<path class="st2" d="M864.2,913.4l48.3-27.9c12-6.9,26.7-6.9,38.7,0l48.3,27.9c12.9,7.4,12.9,26.1,0,33.5l-48.3,27.9
									c-12,6.9-26.7,6.9-38.7,0l-48.3-27.9C851.3,939.5,851.3,920.9,864.2,913.4z"/>
							</g>
						</g>
						<g>
							<g>
								<g>
									<polygon class="st32" points="919.8,945.9 950.3,941.2 959.3,921.9 967,950.2 									"/>
									<path d="M959.1,923.9l6.9,25.4l-40.5-3.7l24.5-3.8l0.7-0.1l0.3-0.7L959.1,923.9 M959.4,919.9l-9.6,20.7l-35.8,5.6l53.9,4.9
										L959.4,919.9L959.4,919.9z"/>
								</g>
								<g>
									<polygon class="st32" points="896.9,910.2 954.2,918 945.1,937.5 910.3,942.9 									"/>
									<path d="M898.1,911.1l55.1,7.5l-8.5,18.2l-33.9,5.3L898.1,911.1 M895.8,909.4l14,34.3l35.8-5.5l9.6-20.6L895.8,909.4
										L895.8,909.4z"/>
								</g>
								<g>
									<line class="st7" x1="950.4" y1="940.9" x2="966.3" y2="950"/>
									<polyline class="st7" points="953.3,917.9 922.5,924.7 910.3,942.9 									"/>
								</g>
							</g>
						</g>
						<line class="st7" x1="897.5" y1="910.3" x2="944.5" y2="937.4"/>
					</g>
					<path class="st3" d="M999.6,946.9l-48.3,27.9c-6,3.5-12.7,5.2-19.3,5.2v56.6v88.9v10.8c6.7,0,13.4-1.7,19.3-5.2l48.3-27.9
						c6.4-3.7,9.7-10.2,9.7-16.8V930.2C1009.2,936.7,1006,943.2,999.6,946.9z"/>
					<g>
						<polygon class="st3" points="987,1098.8 979.4,1094.4 961.7,1104.7 961.7,1125.1 979.4,1135.3 997.1,1125.1 						"/>
						<g>
							<polyline class="st7" points="961.7,1104.7 969.3,1109 987,1098.8 							"/>
							<line class="st7" x1="969.3" y1="1109" x2="979.4" y2="1135.3"/>
						</g>
					</g>
					<path class="st6" d="M864.2,946.9L864.2,946.9c-6.4-3.7-9.7-10.2-9.7-16.7v156.3c0,6.5,3.2,13,9.7,16.8l0,0V946.9z"/>
					<path class="st7" d="M912.5,974.8l-48.3-27.9c-6.4-3.7-9.7-10.2-9.7-16.7v78.2v44.7v33.5c0,6.5,3.2,13,9.7,16.8l48.3,27.9
						c6,3.5,12.7,5.2,19.3,5.2v-10.8v-88.9V980C925.2,980,918.5,978.3,912.5,974.8z"/>
					<g>
						<g>
							<path class="st5" d="M952,1082.7l-0.5,0.3c-1.6,0.9-2.9-0.1-2.9-2.2V1011c0-2.1,1.3-4.6,2.9-5.5l0.5-0.3
								c1.6-0.9,2.9,0.1,2.9,2.2v69.7C954.9,1079.3,953.6,1081.8,952,1082.7z"/>
							<g>
								<g>
									<defs>
										<path id="SVGID_00000126296893434771781610000003329421494921668504_" d="M952,1082.7l-0.5,0.3c-1.6,0.9-2.9-0.1-2.9-2.2
											V1011c0-2.1,1.3-4.6,2.9-5.5l0.5-0.3c1.6-0.9,2.9,0.1,2.9,2.2v69.7C954.9,1079.3,953.6,1081.8,952,1082.7z"/>
									</defs>
									<clipPath id="SVGID_00000129909947477995728150000009308923980444143752_">
										<use xlink:href="#SVGID_00000126296893434771781610000003329421494921668504_"  style="overflow:visible;"/>
									</clipPath>
									<polygon style="clip-path:url(#SVGID_00000129909947477995728150000009308923980444143752_);fill:#02FA95;" points="
										954.9,1081 948.7,1084.6 948.7,1045.9 954.9,1042.3 									"/>
								</g>
							</g>
							<path class="st10" d="M952,1005.2l-0.5,0.3c-1.6,0.9-2.9,3.4-2.9,5.5v69.7c0,2.1,1.3,3.1,2.9,2.2l0.5-0.3
								c1.6-0.9,2.9-3.4,2.9-5.5v-69.7C954.9,1005.3,953.6,1004.3,952,1005.2z"/>
						</g>
						<g>
							<path class="st5" d="M964.5,1075.5l-0.5,0.3c-1.6,0.9-2.9-0.1-2.9-2.2v-69.7c0-2.1,1.3-4.6,2.9-5.5l0.5-0.3
								c1.6-0.9,2.9,0.1,2.9,2.2v69.7C967.4,1072.1,966.1,1074.5,964.5,1075.5z"/>
							<g>
								<g>
									<defs>
										<path id="SVGID_00000174588836410316624460000010758261718839858323_" d="M964.5,1075.5l-0.5,0.3
											c-1.6,0.9-2.9-0.1-2.9-2.2v-69.7c0-2.1,1.3-4.6,2.9-5.5l0.5-0.3c1.6-0.9,2.9,0.1,2.9,2.2v69.7
											C967.4,1072.1,966.1,1074.5,964.5,1075.5z"/>
									</defs>
									<clipPath id="SVGID_00000093148873608258243480000001817160165139119519_">
										<use xlink:href="#SVGID_00000174588836410316624460000010758261718839858323_"  style="overflow:visible;"/>
									</clipPath>
									<polygon style="clip-path:url(#SVGID_00000093148873608258243480000001817160165139119519_);fill:#02FA95;" points="
										967.4,1073.8 961.2,1077.4 961.2,1063.1 967.4,1059.5 									"/>
								</g>
							</g>
							<path class="st10" d="M964.5,998l-0.5,0.3c-1.6,0.9-2.9,3.4-2.9,5.5v69.7c0,2.1,1.3,3.1,2.9,2.2l0.5-0.3
								c1.6-0.9,2.9-3.4,2.9-5.5v-69.7C967.4,998.1,966.1,997.1,964.5,998z"/>
						</g>
						<g>
							<path class="st5" d="M989.5,1061l-0.5,0.3c-1.6,0.9-2.9-0.1-2.9-2.2v-69.7c0-2.1,1.3-4.6,2.9-5.5l0.5-0.3
								c1.6-0.9,2.9,0.1,2.9,2.2v69.7C992.4,1057.6,991.1,1060.1,989.5,1061z"/>
							<g>
								<g>
									<defs>
										<path id="SVGID_00000074440932483969966850000011597961843914115225_" d="M989.5,1061l-0.5,0.3c-1.6,0.9-2.9-0.1-2.9-2.2
											v-69.7c0-2.1,1.3-4.6,2.9-5.5l0.5-0.3c1.6-0.9,2.9,0.1,2.9,2.2v69.7C992.4,1057.6,991.1,1060.1,989.5,1061z"/>
									</defs>
									<clipPath id="SVGID_00000073706041594396197170000005804222256837993645_">
										<use xlink:href="#SVGID_00000074440932483969966850000011597961843914115225_"  style="overflow:visible;"/>
									</clipPath>
									<polygon style="clip-path:url(#SVGID_00000073706041594396197170000005804222256837993645_);fill:#02FA95;" points="
										992.4,1059.3 986.2,1063 986.2,999.8 992.4,996.2 									"/>
								</g>
							</g>
							<path class="st10" d="M989.5,983.6l-0.5,0.3c-1.6,0.9-2.9,3.4-2.9,5.5v69.7c0,2.1,1.3,3.1,2.9,2.2l0.5-0.3
								c1.6-0.9,2.9-3.4,2.9-5.5v-69.7C992.4,983.6,991.1,982.6,989.5,983.6z"/>
						</g>
						<g>
							<path class="st5" d="M977,1068.2l-0.5,0.3c-1.6,0.9-2.9-0.1-2.9-2.2v-69.7c0-2.1,1.3-4.6,2.9-5.5l0.5-0.3
								c1.6-0.9,2.9,0.1,2.9,2.2v69.7C979.9,1064.8,978.6,1067.3,977,1068.2z"/>
							<g>
								<g>
									<defs>
										<path id="SVGID_00000134929819154873954370000004256175462977329584_" d="M977,1068.2l-0.5,0.3c-1.6,0.9-2.9-0.1-2.9-2.2
											v-69.7c0-2.1,1.3-4.6,2.9-5.5l0.5-0.3c1.6-0.9,2.9,0.1,2.9,2.2v69.7C979.9,1064.8,978.6,1067.3,977,1068.2z"/>
									</defs>
									<clipPath id="SVGID_00000165950185423653518730000000163600542128042627_">
										<use xlink:href="#SVGID_00000134929819154873954370000004256175462977329584_"  style="overflow:visible;"/>
									</clipPath>
									<polygon style="clip-path:url(#SVGID_00000165950185423653518730000000163600542128042627_);fill:#02FA95;" points="
										979.9,1066.6 973.7,1070.2 973.7,992.7 979.9,989.1 									"/>
								</g>
							</g>
							<path class="st10" d="M977,990.8l-0.5,0.3c-1.6,0.9-2.9,3.4-2.9,5.5v69.7c0,2.1,1.3,3.1,2.9,2.2l0.5-0.3
								c1.6-0.9,2.9-3.4,2.9-5.5V993C979.9,990.8,978.6,989.9,977,990.8z"/>
						</g>
					</g>
				</g>
			</g>
		</g>
		<g>
			<g>
				<path class="st3" d="M1502.4,757.1c6.5-3.7,9.7-10.2,9.7-16.8l0,0V895h-0.1c0.6,7-2.6,14.3-9.6,18.3l-203.1,117.2
					c-6,3.5-12.7,5.2-19.3,5.2V879.5c6.7,0,13.4-1.7,19.3-5.2L1502.4,757.1z"/>
				<g>
					<g>
						<defs>
							<path id="SVGID_00000112592310437161850870000003267813585192025787_" d="M1502.4,757.1c6.5-3.7,9.7-10.2,9.7-16.8l0,0V895
								h-0.1c0.6,7-2.6,14.3-9.6,18.3l-203.1,117.2c-6,3.5-12.7,5.2-19.3,5.2V879.5c6.7,0,13.4-1.7,19.3-5.2L1502.4,757.1z"/>
						</defs>
						<clipPath id="SVGID_00000031919918138706895390000001906150878989792420_">
							<use xlink:href="#SVGID_00000112592310437161850870000003267813585192025787_"  style="overflow:visible;"/>
						</clipPath>
						
							<rect x="1280" y="863" style="clip-path:url(#SVGID_00000031919918138706895390000001906150878989792420_);fill:#FFFFFF;" width="9.7" height="172.8"/>
					</g>
				</g>
				<g>
					<ellipse transform="matrix(0.5054 -0.8629 0.8629 0.5054 -236.9969 1625.4017)" cx="1299.3" cy="1019.4" rx="3.4" ry="2"/>
					<polygon class="st17" points="1299.4,1030.6 1280,1019.5 1299.3,1008.3 1318.7,1019.5 					"/>
				</g>
				<g>
					<ellipse transform="matrix(0.5054 -0.8629 0.8629 0.5054 -121.3767 1559.1227)" cx="1299.3" cy="885.4" rx="3.4" ry="2"/>
					<polygon class="st17" points="1299.4,896.6 1280,885.5 1299.3,874.3 1318.7,885.5 					"/>
				</g>
				<g>
					<ellipse transform="matrix(0.5054 -0.8629 0.8629 0.5054 80.2684 1676.2996)" cx="1502.4" cy="768.1" rx="3.4" ry="2"/>
					<polygon class="st17" points="1492.7,785 1512.1,773.8 1512.1,751.5 1492.7,762.6 					"/>
				</g>
				<polyline class="st7" points="1492.7,762.6 1492.7,791.9 1475.7,821.3 1475.7,880 1492.7,889.7 1492.7,919 				"/>
				<path class="st7" d="M1502.4,757.1c6.5-3.7,9.7-10.2,9.7-16.8l0,0V895h-0.1c0.6,7-2.6,14.3-9.6,18.3l-203.1,117.2
					c-6,3.5-12.7,5.2-19.3,5.2V879.5c6.7,0,13.4-1.7,19.3-5.2L1502.4,757.1z"/>
				<polyline class="st7" points="1318.7,863.1 1318.7,892.5 1335.7,902.2 1335.7,960.8 1318.7,990.2 1318.7,1019.5 				"/>
			</g>
			<g>
				<g>
					<path class="st3" d="M1411.9,839.9c4.5,0,7.6,3.5,7.6,9.7c0,8.7-6.1,19.3-13.7,23.7c-2.2,1.3-4.3,1.9-6.2,1.9
						c-4.5,0-7.6-3.5-7.6-9.7c0-8.7,6.1-19.3,13.7-23.7C1407.9,840.5,1410,839.9,1411.9,839.9 M1411.9,834.3c-2.9,0-5.9,0.9-9,2.6
						c-9.3,5.4-16.5,17.9-16.5,28.5c0,4.3,1.2,8,3.3,10.7c2.4,3,5.9,4.6,9.9,4.6c2.9,0,5.9-0.9,9-2.6c9.3-5.4,16.5-17.9,16.5-28.5
						c0-4.3-1.2-8-3.3-10.7C1419.3,836,1415.8,834.3,1411.9,834.3L1411.9,834.3L1411.9,834.3z"/>
					<path class="st3" d="M1411.9,906.9c4.5,0,7.6,3.5,7.6,9.7c0,8.7-6.1,19.3-13.7,23.7c-2.2,1.3-4.3,1.9-6.2,1.9
						c-4.5,0-7.6-3.5-7.6-9.7c0-8.7,6.1-19.3,13.7-23.7C1407.9,907.5,1410,906.9,1411.9,906.9 M1411.9,901.3c-2.9,0-5.9,0.9-9,2.6
						c-9.3,5.4-16.5,17.9-16.5,28.5c0,4.3,1.2,8,3.3,10.7c2.4,3,5.9,4.6,9.9,4.6c2.9,0,5.9-0.9,9-2.6c9.3-5.4,16.5-17.9,16.5-28.5
						c0-4.3-1.2-8-3.3-10.7C1419.3,903,1415.8,901.3,1411.9,901.3L1411.9,901.3L1411.9,901.3z"/>
					<g>
						
							<linearGradient id="SVGID_00000062164164770913466120000017643083246642391485_" gradientUnits="userSpaceOnUse" x1="6959.6445" y1="497.9837" x2="6943.6475" y2="525.691" gradientTransform="matrix(-1 0 0 -1 8477.6689 1440)">
							<stop  offset="0" style="stop-color:#02FA95"/>
							<stop  offset="1" style="stop-color:#FFFFFF;stop-opacity:0.5"/>
						</linearGradient>
						
							<polygon style="fill:url(#SVGID_00000062164164770913466120000017643083246642391485_);stroke:#000000;stroke-width:1.407;stroke-miterlimit:10;" points="
							1415.4,840.8 1637.8,969.2 1637.8,1013.9 1395.9,874.2 						"/>
						<g>
							
								<ellipse transform="matrix(0.5054 -0.8629 0.8629 0.5054 -44.6493 1637.1047)" class="st16" cx="1405.7" cy="857.5" rx="19.3" ry="11.2"/>
						</g>
						<polygon class="st17" points="1444.4,857.6 1405.7,835.2 1367,857.6 1405.7,879.9 						"/>
						<g>
							<circle class="st4" cx="1425.1" cy="868.7" r="14.9"/>
							
								<ellipse transform="matrix(0.5054 -0.8629 0.8629 0.5054 -42.609 1651.4995)" class="st6" cx="1419.3" cy="862.9" rx="5.7" ry="3.3"/>
						</g>
						<g>
							<g>
								
									<ellipse transform="matrix(0.5054 -0.8629 0.8629 0.5054 -44.7724 1681.4954)" class="st18" cx="1444.4" cy="879.8" rx="19.3" ry="11.2"/>
							</g>
							<polygon class="st17" points="1483.1,879.9 1444.4,857.6 1405.7,879.9 1444.4,902.2 							"/>
						</g>
						<g>
							<g>
								
									<ellipse transform="matrix(0.5054 -0.8629 0.8629 0.5054 -44.8901 1725.884)" class="st18" cx="1483" cy="902.1" rx="19.3" ry="11.2"/>
							</g>
							<polygon class="st17" points="1521.8,902.2 1483.1,879.9 1444.4,902.2 1483.1,924.6 							"/>
						</g>
						<g>
							<g>
								<g>
									<circle class="st4" cx="1502.4" cy="913.4" r="14.9"/>
									
										<ellipse transform="matrix(0.5054 -0.8629 0.8629 0.5054 -42.8454 1740.3762)" class="st6" cx="1496.7" cy="907.6" rx="5.7" ry="3.3"/>
								</g>
							</g>
							<g>
								<g>
									
										<ellipse transform="matrix(0.5054 -0.8629 0.8629 0.5054 -45.0087 1770.3722)" class="st18" cx="1521.8" cy="924.4" rx="19.3" ry="11.2"/>
								</g>
								<polygon class="st17" points="1560.4,924.6 1521.8,902.2 1483.1,924.6 1521.8,946.9 								"/>
							</g>
						</g>
						<g>
							<g>
								<g>
									
										<ellipse transform="matrix(0.5054 -0.8629 0.8629 0.5054 -45.2258 1814.76)" class="st18" cx="1560.4" cy="946.8" rx="19.3" ry="11.2"/>
								</g>
								<polygon class="st17" points="1599.1,946.9 1560.4,924.6 1521.8,946.9 1560.4,969.2 								"/>
							</g>
						</g>
						<g>
							<g>
								<g>
									<circle class="st4" cx="1579.8" cy="958.1" r="14.9"/>
									
										<ellipse transform="matrix(0.5054 -0.8629 0.8629 0.5054 -43.1803 1829.1527)" class="st6" cx="1574" cy="952.2" rx="5.7" ry="3.3"/>
								</g>
							</g>
							<g>
								<g>
									
										<ellipse transform="matrix(0.5054 -0.8629 0.8629 0.5054 -45.3436 1859.1487)" class="st18" cx="1599.1" cy="969.1" rx="19.3" ry="11.2"/>
								</g>
								<polygon class="st17" points="1637.8,969.2 1599.1,946.9 1560.4,969.2 1599.1,991.6 								"/>
							</g>
						</g>
					</g>
					<g>
						
							<linearGradient id="SVGID_00000178894106181924248140000012542585069546308502_" gradientUnits="userSpaceOnUse" x1="6959.644" y1="430.9849" x2="6943.647" y2="458.6927" gradientTransform="matrix(-1 0 0 -1 8477.6689 1440)">
							<stop  offset="4.210723e-03" style="stop-color:#FFB0A6"/>
							<stop  offset="1" style="stop-color:#FFFFFF;stop-opacity:0.5"/>
						</linearGradient>
						
							<polygon style="fill:url(#SVGID_00000178894106181924248140000012542585069546308502_);stroke:#000000;stroke-width:1.407;stroke-miterlimit:10;" points="
							1415.4,907.8 1637.8,1036.2 1637.8,1080.9 1395.9,941.2 						"/>
						<g>
							
								<ellipse transform="matrix(0.5054 -0.8629 0.8629 0.5054 -102.4646 1670.2548)" class="st20" cx="1405.7" cy="924.5" rx="19.3" ry="11.2"/>
						</g>
						<polygon class="st17" points="1444.4,924.6 1405.7,902.2 1367,924.6 1405.7,946.9 						"/>
						<g>
							<circle class="st21" cx="1425.1" cy="935.7" r="14.9"/>
							
								<ellipse transform="matrix(0.5054 -0.8629 0.8629 0.5054 -100.4243 1684.6494)" class="st6" cx="1419.3" cy="929.9" rx="5.7" ry="3.3"/>
						</g>
						<g>
							<g>
								
									<ellipse transform="matrix(0.5054 -0.8629 0.8629 0.5054 -102.5877 1714.6453)" class="st18" cx="1444.4" cy="946.8" rx="19.3" ry="11.2"/>
							</g>
							<polygon class="st17" points="1483.1,946.9 1444.4,924.6 1405.7,946.9 1444.4,969.2 							"/>
						</g>
						<g>
							<g>
								
									<ellipse transform="matrix(0.5054 -0.8629 0.8629 0.5054 -102.7054 1759.0339)" class="st18" cx="1483.1" cy="969.1" rx="19.3" ry="11.2"/>
							</g>
							<polygon class="st17" points="1521.8,969.2 1483.1,946.9 1444.4,969.2 1483.1,991.6 							"/>
						</g>
						<g>
							<g>
								<g>
									<circle class="st21" cx="1502.4" cy="980.4" r="14.9"/>
									
										<ellipse transform="matrix(0.5054 -0.8629 0.8629 0.5054 -100.6608 1773.5262)" class="st6" cx="1496.7" cy="974.6" rx="5.7" ry="3.3"/>
								</g>
							</g>
							<g>
								<g>
									
										<ellipse transform="matrix(0.5054 -0.8629 0.8629 0.5054 -102.824 1803.5221)" class="st18" cx="1521.8" cy="991.5" rx="19.3" ry="11.2"/>
								</g>
								<polygon class="st17" points="1560.4,991.6 1521.8,969.2 1483.1,991.6 1521.8,1013.9 								"/>
							</g>
						</g>
						<g>
							<g>
								<g>
									
										<ellipse transform="matrix(0.5054 -0.8629 0.8629 0.5054 -103.0412 1847.9098)" class="st18" cx="1560.4" cy="1013.8" rx="19.3" ry="11.2"/>
								</g>
								<polygon class="st17" points="1599.1,1013.9 1560.4,991.6 1521.8,1013.9 1560.4,1036.2 								"/>
							</g>
						</g>
						<g>
							<g>
								<g>
									<circle class="st21" cx="1579.8" cy="1025.1" r="14.9"/>
									
										<ellipse transform="matrix(0.5054 -0.8629 0.8629 0.5054 -100.9957 1862.3027)" class="st6" cx="1574" cy="1019.2" rx="5.7" ry="3.3"/>
								</g>
							</g>
							<g>
								<g>
									
										<ellipse transform="matrix(0.5054 -0.8629 0.8629 0.5054 -103.159 1892.2985)" class="st18" cx="1599.1" cy="1036.1" rx="19.3" ry="11.2"/>
								</g>
								<polygon class="st17" points="1637.8,1036.2 1599.1,1013.9 1560.4,1036.2 1599.1,1058.6 								"/>
							</g>
						</g>
					</g>
				</g>
				<g>
					<path class="st3" d="M1647.5,974.8l48.3-27.9c6.4-3.7,9.7-10.2,9.7-16.7v78.2v44.7v33.5c0,6.5-3.2,13-9.7,16.8l-48.3,27.9
						c-6,3.5-12.7,5.2-19.3,5.2v-10.8v-88.9V980C1634.8,980,1641.5,978.3,1647.5,974.8z"/>
					<g>
						<g>
							<g>
								<path class="st2" d="M1695.8,913.4l-48.3-27.9c-12-6.9-26.7-6.9-38.7,0l-48.3,27.9c-12.9,7.4-12.9,26.1,0,33.5l48.3,27.9
									c12,6.9,26.7,6.9,38.7,0l48.3-27.9C1708.7,939.5,1708.7,920.9,1695.8,913.4z"/>
							</g>
						</g>
					</g>
					<path class="st5" d="M1560.4,946.9l48.3,27.9c6,3.5,12.7,5.2,19.3,5.2v56.6v88.9v10.8c-6.7,0-13.4-1.7-19.3-5.2l-48.3-27.9
						c-6.4-3.7-9.7-10.2-9.7-16.8V930.2C1550.8,936.7,1554,943.2,1560.4,946.9z"/>
					<path class="st6" d="M1560.4,946.9L1560.4,946.9c-6.4-3.7-9.7-10.2-9.7-16.7v156.3c0,6.5,3.2,13,9.7,16.8l0,0V946.9z"/>
					<path class="st7" d="M1647.5,974.8l48.3-27.9c6.4-3.7,9.7-10.2,9.7-16.7v78.2v44.7v33.5c0,6.5-3.2,13-9.7,16.8l-48.3,27.9
						c-6,3.5-12.7,5.2-19.3,5.2v-10.8v-88.9V980C1634.8,980,1641.5,978.3,1647.5,974.8z"/>
					<path class="st7" d="M1560.4,946.9l48.3,27.9c6,3.5,12.7,5.2,19.3,5.2v56.6v88.9v10.8c-6.7,0-13.4-1.7-19.3-5.2l-48.3-27.9
						c-6.4-3.7-9.7-10.2-9.7-16.8V930.2C1550.8,936.7,1554,943.2,1560.4,946.9z"/>
					<g>
						<g>
							<polygon class="st5" points="1573,1098.8 1580.6,1094.4 1598.3,1104.7 1598.3,1125.1 1580.6,1135.3 1562.9,1125.1 							"/>
							<polygon class="st8" points="1598.3,1125.1 1598.3,1104.7 1590.7,1109 1580.6,1135.3 							"/>
							<g>
								<polyline class="st7" points="1598.3,1104.7 1590.7,1109 1573,1098.8 								"/>
								<line class="st7" x1="1590.7" y1="1109" x2="1580.6" y2="1135.3"/>
							</g>
							<polygon class="st7" points="1573,1098.8 1580.6,1094.4 1598.3,1104.7 1598.3,1125.1 1580.6,1135.3 1562.9,1125.1 							"/>
						</g>
					</g>
					<g>
						<g id="Layer_x0020_1_00000042710693710833493230000013283429249559829123_">
							<path class="st4" d="M1656.3,946.5c15.7-9.1,15.8-23.7,0.3-32.7s-40.9-8.9-56.6,0.1c-14.9,8.6-15.8,22.2-2.5,31.3l37.6-21.7
								l4.7,2.7l-37.6,21.7C1617.8,955.6,1641.4,955.1,1656.3,946.5z"/>
						</g>
					</g>
					<polyline class="st7" points="1647.5,974.8 1647.5,1004.1 1664.5,1013.8 1664.5,1072.5 1647.5,1101.9 1647.5,1131.2 					"/>
					<g>
						<g>
							<path class="st5" d="M1608,1082.7l0.5,0.3c1.6,0.9,2.9-0.1,2.9-2.2V1011c0-2.1-1.3-4.6-2.9-5.5l-0.5-0.3
								c-1.6-0.9-2.9,0.1-2.9,2.2v69.7C1605.1,1079.3,1606.4,1081.8,1608,1082.7z"/>
							<g>
								<g>
									<defs>
										<path id="SVGID_00000041264805246109568190000002302305621485684896_" d="M1608,1082.7l0.5,0.3c1.6,0.9,2.9-0.1,2.9-2.2
											V1011c0-2.1-1.3-4.6-2.9-5.5l-0.5-0.3c-1.6-0.9-2.9,0.1-2.9,2.2v69.7C1605.1,1079.3,1606.4,1081.8,1608,1082.7z"/>
									</defs>
									<clipPath id="SVGID_00000166650363808727314630000017727512901415469490_">
										<use xlink:href="#SVGID_00000041264805246109568190000002302305621485684896_"  style="overflow:visible;"/>
									</clipPath>
									<polygon style="clip-path:url(#SVGID_00000166650363808727314630000017727512901415469490_);fill:#02FA95;" points="
										1605.1,1081 1611.3,1084.6 1611.3,1045.9 1605.1,1042.3 									"/>
								</g>
							</g>
							<path class="st10" d="M1608,1005.2l0.5,0.3c1.6,0.9,2.9,3.4,2.9,5.5v69.7c0,2.1-1.3,3.1-2.9,2.2l-0.5-0.3
								c-1.6-0.9-2.9-3.4-2.9-5.5v-69.7C1605.1,1005.3,1606.4,1004.3,1608,1005.2z"/>
						</g>
						<g>
							<path class="st5" d="M1595.5,1075.5l0.5,0.3c1.6,0.9,2.9-0.1,2.9-2.2v-69.7c0-2.1-1.3-4.6-2.9-5.5l-0.5-0.3
								c-1.6-0.9-2.9,0.1-2.9,2.2v69.7C1592.6,1072.1,1593.9,1074.5,1595.5,1075.5z"/>
							<g>
								<g>
									<defs>
										<path id="SVGID_00000077324275745026171010000017285286156651690133_" d="M1595.5,1075.5l0.5,0.3c1.6,0.9,2.9-0.1,2.9-2.2
											v-69.7c0-2.1-1.3-4.6-2.9-5.5l-0.5-0.3c-1.6-0.9-2.9,0.1-2.9,2.2v69.7C1592.6,1072.1,1593.9,1074.5,1595.5,1075.5z"/>
									</defs>
									<clipPath id="SVGID_00000170995839344511872800000008928725269762282678_">
										<use xlink:href="#SVGID_00000077324275745026171010000017285286156651690133_"  style="overflow:visible;"/>
									</clipPath>
									<polygon style="clip-path:url(#SVGID_00000170995839344511872800000008928725269762282678_);fill:#02FA95;" points="
										1592.6,1073.8 1598.8,1077.4 1598.8,1063.1 1592.6,1059.5 									"/>
								</g>
							</g>
							<path class="st10" d="M1595.5,998l0.5,0.3c1.6,0.9,2.9,3.4,2.9,5.5v69.7c0,2.1-1.3,3.1-2.9,2.2l-0.5-0.3
								c-1.6-0.9-2.9-3.4-2.9-5.5v-69.7C1592.6,998.1,1593.9,997.1,1595.5,998z"/>
						</g>
						<g>
							<path class="st5" d="M1570.5,1061l0.5,0.3c1.6,0.9,2.9-0.1,2.9-2.2v-69.7c0-2.1-1.3-4.6-2.9-5.5l-0.5-0.3
								c-1.6-0.9-2.9,0.1-2.9,2.2v69.7C1567.6,1057.6,1568.9,1060.1,1570.5,1061z"/>
							<g>
								<g>
									<defs>
										<path id="SVGID_00000079454686016572338870000008997483939792440247_" d="M1570.5,1061l0.5,0.3c1.6,0.9,2.9-0.1,2.9-2.2
											v-69.7c0-2.1-1.3-4.6-2.9-5.5l-0.5-0.3c-1.6-0.9-2.9,0.1-2.9,2.2v69.7C1567.6,1057.6,1568.9,1060.1,1570.5,1061z"/>
									</defs>
									<clipPath id="SVGID_00000083803836699724633170000005993828908066000023_">
										<use xlink:href="#SVGID_00000079454686016572338870000008997483939792440247_"  style="overflow:visible;"/>
									</clipPath>
									<polygon style="clip-path:url(#SVGID_00000083803836699724633170000005993828908066000023_);fill:#02FA95;" points="
										1567.6,1059.3 1573.8,1063 1573.8,999.8 1567.6,996.2 									"/>
								</g>
							</g>
							<path class="st10" d="M1570.5,983.6l0.5,0.3c1.6,0.9,2.9,3.4,2.9,5.5v69.7c0,2.1-1.3,3.1-2.9,2.2l-0.5-0.3
								c-1.6-0.9-2.9-3.4-2.9-5.5v-69.7C1567.6,983.6,1568.9,982.6,1570.5,983.6z"/>
						</g>
						<g>
							<path class="st5" d="M1583,1068.2l0.5,0.3c1.6,0.9,2.9-0.1,2.9-2.2v-69.7c0-2.1-1.3-4.6-2.9-5.5l-0.5-0.3
								c-1.6-0.9-2.9,0.1-2.9,2.2v69.7C1580.1,1064.8,1581.4,1067.3,1583,1068.2z"/>
							<g>
								<g>
									<defs>
										<path id="SVGID_00000149365036204933914200000009749998282698653863_" d="M1583,1068.2l0.5,0.3c1.6,0.9,2.9-0.1,2.9-2.2
											v-69.7c0-2.1-1.3-4.6-2.9-5.5l-0.5-0.3c-1.6-0.9-2.9,0.1-2.9,2.2v69.7C1580.1,1064.8,1581.4,1067.3,1583,1068.2z"/>
									</defs>
									<clipPath id="SVGID_00000178888306095869328650000016814215136397853114_">
										<use xlink:href="#SVGID_00000149365036204933914200000009749998282698653863_"  style="overflow:visible;"/>
									</clipPath>
									<polygon style="clip-path:url(#SVGID_00000178888306095869328650000016814215136397853114_);fill:#02FA95;" points="
										1580.1,1066.6 1586.3,1070.2 1586.3,992.7 1580.1,989.1 									"/>
								</g>
							</g>
							<path class="st10" d="M1583,990.8l0.5,0.3c1.6,0.9,2.9,3.4,2.9,5.5v69.7c0,2.1-1.3,3.1-2.9,2.2l-0.5-0.3
								c-1.6-0.9-2.9-3.4-2.9-5.5V993C1580.1,990.8,1581.4,989.9,1583,990.8z"/>
						</g>
					</g>
				</g>
			</g>
		</g>
	</g>
</g>
<g id="Ventana">
	
		<linearGradient id="SVGID_00000159467340724779988830000005160772981437280686_" gradientUnits="userSpaceOnUse" x1="1280" y1="590.5647" x2="1280" y2="1112" gradientTransform="matrix(1 0 0 -1 0 1440)">
		<stop  offset="0" style="stop-color:#02FA95"/>
		<stop  offset="1" style="stop-color:#FFFFFF;stop-opacity:0.5"/>
	</linearGradient>
	<path style="fill:url(#SVGID_00000159467340724779988830000005160772981437280686_);" d="M1469,739.3V328h-378v413.2v0.1v0.1l0,0
		c0.1,0.9,1,1.8,2.8,2.2l61.6,11.7c3.3,0.6,7,0.1,9.6-1.3l12.6-7.3l0,0c2.5-1.4,6.2-2,9.6-1.3l51.1,9.7c3.3,0.6,7,0.1,9.6-1.3
		l6.1-3.5v12.3c0,0.6,0.1,1.2,0.5,1.8l16.9,29.5c1.1,1.9,0.2,4.1-2.3,5.5l0,0l-12.6,7.3c-2.5,1.4-3.4,3.6-2.3,5.5l20.3,35.6
		c1,1.7,4.6,2.2,6.8,0.9l20.5-11.8c2.5-1.4,3.4-3.6,2.3-5.5l-16.9-29.5c-1.1-1.9-0.2-4.1,2.3-5.5l0,0l12.6-7.3
		c1.8-1,2.7-2.4,2.8-3.8l0,0v-40.7l50.3,9.6c3.3,0.6,7,0.1,9.6-1.3l12.6-7.3l0,0c2.5-1.4,6.2-2,9.6-1.3l51.1,9.7
		c3.3,0.6,7,0.1,9.6-1.3l20.5-11.8C1468.6,740.5,1468.9,739.9,1469,739.3L1469,739.3z"/>
	<g>
		<line class="st7" x1="1304.7" y1="785.3" x2="1304.7" y2="744.7"/>
		<line class="st7" x1="1253.8" y1="750.3" x2="1253.8" y2="762.6"/>
		<line class="st7" x1="1091" y1="333.9" x2="1091" y2="741.4"/>
		<line class="st7" x1="1469" y1="739.3" x2="1469" y2="331.8"/>
	</g>
</g>
<g id="X_Base">
	
		<linearGradient id="SVGID_00000112634936554026899150000013512642848780139693_" gradientUnits="userSpaceOnUse" x1="1280" y1="560.6" x2="1280" y2="838.9" gradientTransform="matrix(1 0 0 -1 0 1440)">
		<stop  offset="0" style="stop-color:#02FA95"/>
		<stop  offset="1" style="stop-color:#FFFFFF;stop-opacity:0.5"/>
	</linearGradient>
	
		<path style="fill:url(#SVGID_00000112634936554026899150000013512642848780139693_);stroke:#000000;stroke-width:1.407;stroke-miterlimit:10;" d="
		M1280,609.6c5.3,0,10.5,1.4,15.1,4.1l203.1,117.2c4.9,2.8,5.5,7.5,5.5,9.4s-0.5,6.6-5.5,9.4L1295.1,867c-4.6,2.7-9.8,4.1-15.1,4.1
		s-10.5-1.4-15.1-4.1l-203.1-117.2c-4.9-2.8-5.5-7.5-5.5-9.4s0.5-6.6,5.5-9.4l203.1-117.2C1269.5,611,1274.7,609.6,1280,609.6
		 M1280,601.1c-6.7,0-13.4,1.7-19.3,5.2l-203.1,117.2c-12.9,7.4-12.9,26.1,0,33.5l203.1,117.2c6,3.5,12.7,5.2,19.3,5.2
		c6.7,0,13.4-1.7,19.3-5.2L1502.4,757c12.9-7.4,12.9-26.1,0-33.5l-203.1-117.2C1293.4,602.8,1286.7,601.1,1280,601.1L1280,601.1z"/>
	<g>
		<path class="st7" d="M1304.2,783.6l-20.3-35.6c-1-1.7-4.6-2.2-6.8-0.9l-20.5,11.8c-2.5,1.4-3.4,3.6-2.3,5.5l16.9,29.5l0,0
			c1.1,1.9,0.2,4.1-2.3,5.5l0,0l-12.6,7.3c-2.5,1.4-3.4,3.6-2.3,5.5l20.3,35.6c1,1.7,4.6,2.2,6.8,0.9l20.5-11.8
			c2.5-1.4,3.4-3.6,2.3-5.5l-16.9-29.5l0,0c-1.1-1.9-0.2-4.1,2.3-5.5l0,0l12.6-7.3C1304.4,787.6,1305.3,785.5,1304.2,783.6z"/>
		<line class="st7" x1="1280.7" y1="746.4" x2="1280.7" y2="848.9"/>
		<line class="st7" x1="1271.6" y1="795.6" x2="1271.6" y2="843.1"/>
		<line class="st7" x1="1286.5" y1="800.1" x2="1286.5" y2="845.6"/>
	</g>
	<g>
		<path class="st7" d="M1306,668.4l-20.3-35.6c-1-1.7-4.6-2.2-6.8-0.9l-20.5,11.8c-2.5,1.4-3.4,3.6-2.3,5.5l16.9,29.5l0,0
			c1.1,1.9,0.2,4.1-2.3,5.5l0,0l-12.6,7.3c-2.5,1.4-3.4,3.6-2.3,5.5l20.3,35.6c1,1.7,4.6,2.2,6.8,0.9l20.5-11.8
			c2.5-1.4,3.4-3.6,2.3-5.5l-16.9-29.5l0,0c-1.1-1.9-0.2-4.1,2.3-5.5l0,0l12.6-7.3C1306.2,672.4,1307.1,670.3,1306,668.4z"/>
		<line class="st7" x1="1282.6" y1="631.3" x2="1282.6" y2="733.7"/>
		<line class="st7" x1="1273.5" y1="680.4" x2="1273.5" y2="727.9"/>
		<line class="st7" x1="1288.4" y1="684.9" x2="1288.4" y2="730.4"/>
	</g>
	<g>
		<path class="st7" d="M1266.6,738.1l-61.6-11.7c-3.3-0.6-7-0.1-9.6,1.3l-12.6,7.3l0,0c-2.5,1.4-6.2,2-9.6,1.3l0,0l-51.1-9.7
			c-3.3-0.6-7-0.1-9.6,1.3l-20.5,11.8c-2.2,1.2-1.3,3.4,1.6,3.9l61.6,11.7c3.3,0.6,7,0.1,9.6-1.3l12.6-7.3l0,0
			c2.5-1.4,6.2-2,9.6-1.3l0,0l51.1,9.7c3.3,0.6,7,0.1,9.6-1.3l20.5-11.8C1270.4,740.8,1269.5,738.6,1266.6,738.1z"/>
		<line class="st7" x1="1119" y1="726.3" x2="1119" y2="748.4"/>
		<line class="st7" x1="1179.7" y1="736.1" x2="1179.7" y2="745.8"/>
	</g>
	<g>
		<path class="st7" d="M1466.2,737l-61.6-11.7c-3.3-0.6-7-0.1-9.6,1.3l-12.6,7.3l0,0c-2.5,1.4-6.2,2-9.6,1.3l0,0l-51.1-9.7
			c-3.3-0.6-7-0.1-9.6,1.3l-20.5,11.8c-2.2,1.2-1.3,3.4,1.6,3.9l61.6,11.7c3.3,0.6,7,0.1,9.6-1.3l12.6-7.3l0,0
			c2.5-1.4,6.2-2,9.6-1.3l0,0l51.1,9.7c3.3,0.6,7,0.1,9.6-1.3l20.5-11.8C1469.9,739.7,1469.1,737.6,1466.2,737z"/>
		<line class="st7" x1="1318.5" y1="725.2" x2="1318.5" y2="747.3"/>
		<line class="st7" x1="1379.3" y1="735.1" x2="1379.3" y2="744.7"/>
	</g>
</g>
<g id="Circulo">
	<g>
		<circle class="st4" cx="1275.3" cy="536.6" r="78.8"/>
		
			<ellipse transform="matrix(0.8629 -0.5054 0.5054 0.8629 -76.9054 729.294)" class="st6" cx="1305.6" cy="506.4" rx="17.5" ry="30.3"/>
	</g>
</g>
<g id="X_Flotante">
	<g>
		<g>
			<path class="st8" d="M1306.5,262.7v-21l0,0c0-0.6-0.1-1.2-0.5-1.9l-20.3-35.6c-1-1.7-4.6-2.2-6.8-0.9l-20.5,11.8
				c-1.8,1-2.7,2.4-2.7,3.8l0,0v21.3l0,0c0,0.6,0.1,1.1,0.5,1.7l9.5,16.7l-7.6,4.4c-1.7,1-2.7,2.3-2.7,3.7v21.2
				c0,0.6,0.1,1.2,0.5,1.9l20.3,35.6c1,1.7,4.6,2.2,6.8,0.9l20.5-11.8c1.8-1,2.7-2.4,2.7-3.8v-21.1c0-0.6-0.1-1.2-0.5-1.9l-9.5-16.7
				l7.6-4.4C1305.5,265.5,1306.5,264.1,1306.5,262.7z"/>
			<path class="st5" d="M1306,239.8l-20.3-35.6c-1-1.7-4.6-2.2-6.8-0.9l-20.5,11.8c-2.5,1.4-3.4,3.6-2.3,5.5l16.9,29.5l0,0
				c1.1,1.9,0.2,4.1-2.3,5.5l0,0l-12.6,7.3c-2.5,1.4-3.4,3.6-2.3,5.5l20.3,35.6c1,1.7,4.6,2.2,6.8,0.9l20.5-11.8
				c2.5-1.4,3.4-3.6,2.3-5.5l-16.9-29.5l0,0c-1.1-1.9-0.2-4.1,2.3-5.5l0,0l12.6-7.3C1306.2,243.9,1307.1,241.7,1306,239.8z"/>
			<g>
				<path class="st7" d="M1306.5,262.7v-21l0,0c0-0.6-0.1-1.2-0.5-1.9l-20.3-35.6c-1-1.7-4.6-2.2-6.8-0.9l-20.5,11.8
					c-1.8,1-2.7,2.4-2.7,3.8l0,0v21.3l0,0c0,0.6,0.1,1.1,0.5,1.7l9.5,16.7l-7.6,4.4c-1.7,1-2.7,2.3-2.7,3.7v21.2
					c0,0.6,0.1,1.2,0.5,1.9l20.3,35.6c1,1.7,4.6,2.2,6.8,0.9l20.5-11.8c1.8-1,2.7-2.4,2.7-3.8v-21.1c0-0.6-0.1-1.2-0.5-1.9
					l-9.5-16.7l7.6-4.4C1305.5,265.5,1306.5,264.1,1306.5,262.7z"/>
				<path class="st7" d="M1306,239.8l-20.3-35.6c-1-1.7-4.6-2.2-6.8-0.9l-20.5,11.8c-2.5,1.4-3.4,3.6-2.3,5.5l16.9,29.5l0,0
					c1.1,1.9,0.2,4.1-2.3,5.5l0,0l-12.6,7.3c-2.5,1.4-3.4,3.6-2.3,5.5l20.3,35.6c1,1.7,4.6,2.2,6.8,0.9l20.5-11.8
					c2.5-1.4,3.4-3.6,2.3-5.5l-16.9-29.5l0,0c-1.1-1.9-0.2-4.1,2.3-5.5l0,0l12.6-7.3C1306.2,243.9,1307.1,241.7,1306,239.8z"/>
				<line class="st7" x1="1278.2" y1="326.6" x2="1278.2" y2="305.4"/>
			</g>
		</g>
		<g>
			<g>
				<path class="st8" d="M1266.6,309.5l-61.6-11.7c-3.3-0.6-7-0.1-9.6,1.3l-12.6,7.3l0,0c-2.5,1.4-6.2,2-9.6,1.3l0,0l-51.1-9.7
					c-3.3-0.6-7-0.1-9.6,1.3l-20.5,11.8c-0.9,0.5-1.2,1.1-1.2,1.8l0,0V334c0,1,1,2,2.8,2.3l61.6,11.7c3.3,0.6,7,0.1,9.6-1.3
					l12.6-7.3l0,0c2.5-1.4,6.2-2,9.6-1.3l0,0l51.1,9.7c3.3,0.6,7,0.1,9.6-1.3l20.5-11.8c0.9-0.5,1.3-1.2,1.2-1.8l0,0v-21l0,0
					C1269.5,310.8,1268.5,309.9,1266.6,309.5z"/>
				<path class="st5" d="M1266.6,309.5l-61.6-11.7c-3.3-0.6-7-0.1-9.6,1.3l-12.6,7.3l0,0c-2.5,1.4-6.2,2-9.6,1.3l0,0l-51.1-9.7
					c-3.3-0.6-7-0.1-9.6,1.3l-20.5,11.8c-2.2,1.2-1.3,3.4,1.6,3.9l61.6,11.7c3.3,0.6,7,0.1,9.6-1.3l12.6-7.3l0,0
					c2.5-1.4,6.2-2,9.6-1.3l0,0l51.1,9.7c3.3,0.6,7,0.1,9.6-1.3l20.5-11.8C1270.4,312.2,1269.5,310.1,1266.6,309.5z"/>
			</g>
			<g>
				<line class="st7" x1="1243.6" y1="326.6" x2="1243.6" y2="347.9"/>
				<path class="st7" d="M1266.6,309.5l-61.6-11.7c-3.3-0.6-7-0.1-9.6,1.3l-12.6,7.3l0,0c-2.5,1.4-6.2,2-9.6,1.3l0,0l-51.1-9.7
					c-3.3-0.6-7-0.1-9.6,1.3l-20.5,11.8c-0.9,0.5-1.2,1.1-1.2,1.8l0,0V334c0,1,1,2,2.8,2.3l61.6,11.7c3.3,0.6,7,0.1,9.6-1.3
					l12.6-7.3l0,0c2.5-1.4,6.2-2,9.6-1.3l0,0l51.1,9.7c3.3,0.6,7,0.1,9.6-1.3l20.5-11.8c0.9-0.5,1.3-1.2,1.2-1.8l0,0v-21l0,0
					C1269.5,310.8,1268.5,309.9,1266.6,309.5z"/>
				<line class="st7" x1="1181.7" y1="316.8" x2="1181.7" y2="338"/>
				<path class="st7" d="M1092.3,311.1c-2.2,1.2-1.3,3.4,1.6,3.9l61.6,11.7c3.3,0.6,7,0.1,9.6-1.3l12.6-7.3l0,0
					c2.5-1.4,6.2-2,9.6-1.3l0,0l51.1,9.7c3.3,0.6,7,0.1,9.6-1.3l20.5-11.8c2.2-1.2,1.3-3.4-1.6-3.9"/>
			</g>
		</g>
		<g>
			<g>
				<path class="st8" d="M1466.2,308.5l-61.6-11.7c-3.3-0.6-7-0.1-9.6,1.3l-12.6,7.3l0,0c-2.5,1.4-6.2,2-9.6,1.3l0,0l-51.1-9.7
					c-3.3-0.6-7-0.1-9.6,1.3l-20.5,11.8c-0.9,0.5-1.2,1.1-1.2,1.8l0,0V333c0,1,1,2,2.8,2.3l61.6,11.7c3.3,0.6,7,0.1,9.6-1.3
					l12.6-7.3l0,0c2.5-1.4,6.2-2,9.6-1.3l0,0l51.1,9.7c3.3,0.6,7,0.1,9.6-1.3l20.5-11.8c0.9-0.5,1.3-1.2,1.2-1.8l0,0v-21l0,0
					C1469,309.8,1468,308.8,1466.2,308.5z"/>
				<path class="st5" d="M1466.2,308.5l-61.6-11.7c-3.3-0.6-7-0.1-9.6,1.3l-12.6,7.3l0,0c-2.5,1.4-6.2,2-9.6,1.3l0,0l-51.1-9.7
					c-3.3-0.6-7-0.1-9.6,1.3l-20.5,11.8c-2.2,1.2-1.3,3.4,1.6,3.9l61.6,11.7c3.3,0.6,7,0.1,9.6-1.3l12.6-7.3l0,0
					c2.5-1.4,6.2-2,9.6-1.3l0,0l51.1,9.7c3.3,0.6,7,0.1,9.6-1.3l20.5-11.8C1469.9,311.1,1469.1,309,1466.2,308.5z"/>
			</g>
			<g>
				<line class="st7" x1="1443.2" y1="325.6" x2="1443.2" y2="346.8"/>
				<path class="st7" d="M1466.2,308.5l-61.6-11.7c-3.3-0.6-7-0.1-9.6,1.3l-12.6,7.3l0,0c-2.5,1.4-6.2,2-9.6,1.3l0,0l-51.1-9.7
					c-3.3-0.6-7-0.1-9.6,1.3l-20.5,11.8c-0.9,0.5-1.2,1.1-1.2,1.8l0,0V333c0,1,1,2,2.8,2.3l61.6,11.7c3.3,0.6,7,0.1,9.6-1.3
					l12.6-7.3l0,0c2.5-1.4,6.2-2,9.6-1.3l0,0l51.1,9.7c3.3,0.6,7,0.1,9.6-1.3l20.5-11.8c0.9-0.5,1.3-1.2,1.2-1.8l0,0v-21l0,0
					C1469,309.8,1468,308.8,1466.2,308.5z"/>
				<line class="st7" x1="1381.2" y1="315.7" x2="1381.2" y2="336.9"/>
				<path class="st7" d="M1291.8,310c-2.2,1.2-1.3,3.4,1.6,3.9l61.6,11.7c3.3,0.6,7,0.1,9.6-1.3l12.6-7.3l0,0c2.5-1.4,6.2-2,9.6-1.3
					l0,0l51.1,9.7c3.3,0.6,7,0.1,9.6-1.3l20.5-11.8c2.2-1.2,1.3-3.4-1.6-3.9"/>
			</g>
		</g>
		<g>
			<path class="st8" d="M1304.6,377.9v-21l0,0c0-0.6-0.1-1.2-0.5-1.9l-20.3-35.6c-1-1.7-4.6-2.2-6.8-0.9l-20.5,11.8
				c-1.8,1-2.7,2.4-2.7,3.8l0,0v21.3l0,0c0,0.6,0.1,1.1,0.5,1.7l9.5,16.7l-7.6,4.4c-1.7,1-2.7,2.3-2.7,3.7v21.2
				c0,0.6,0.1,1.2,0.5,1.9l20.3,35.6c1,1.7,4.6,2.2,6.8,0.9l20.5-11.8c1.8-1,2.7-2.4,2.7-3.8v-21.1c0-0.6-0.1-1.2-0.5-1.9l-9.5-16.7
				l7.6-4.4C1303.7,380.7,1304.7,379.3,1304.6,377.9z"/>
			<path class="st5" d="M1304.2,355l-20.3-35.6c-1-1.7-4.6-2.2-6.8-0.9l-20.5,11.8c-2.5,1.4-3.4,3.6-2.3,5.5l16.9,29.5l0,0
				c1.1,1.9,0.2,4.1-2.3,5.5l0,0l-12.6,7.3c-2.5,1.4-3.4,3.6-2.3,5.5l20.3,35.6c1,1.7,4.6,2.2,6.8,0.9l20.5-11.8
				c2.5-1.4,3.4-3.6,2.3-5.5l-16.9-29.5l0,0c-1.1-1.9-0.2-4.1,2.3-5.5l0,0l12.6-7.3C1304.4,359.1,1305.3,356.9,1304.2,355z"/>
			<g>
				<path class="st7" d="M1304.6,377.9v-21l0,0c0-0.6-0.1-1.2-0.5-1.9l-20.3-35.6c-1-1.7-4.6-2.2-6.8-0.9l-20.5,11.8
					c-1.8,1-2.7,2.4-2.7,3.8l0,0v21.3l0,0c0,0.6,0.1,1.1,0.5,1.7l9.5,16.7l-7.6,4.4c-1.7,1-2.7,2.3-2.7,3.7v21.2
					c0,0.6,0.1,1.2,0.5,1.9l20.3,35.6c1,1.7,4.6,2.2,6.8,0.9l20.5-11.8c1.8-1,2.7-2.4,2.7-3.8v-21.1c0-0.6-0.1-1.2-0.5-1.9
					l-9.5-16.7l7.6-4.4C1303.7,380.7,1304.7,379.3,1304.6,377.9z"/>
				<path class="st7" d="M1304.2,355l-20.3-35.6c-1-1.7-4.6-2.2-6.8-0.9l-20.5,11.8c-2.5,1.4-3.4,3.6-2.3,5.5l16.9,29.5l0,0
					c1.1,1.9,0.2,4.1-2.3,5.5l0,0l-12.6,7.3c-2.5,1.4-3.4,3.6-2.3,5.5l20.3,35.6c1,1.7,4.6,2.2,6.8,0.9l20.5-11.8
					c2.5-1.4,3.4-3.6,2.3-5.5l-16.9-29.5l0,0c-1.1-1.9-0.2-4.1,2.3-5.5l0,0l12.6-7.3C1304.4,359.1,1305.3,356.9,1304.2,355z"/>
				<line class="st7" x1="1276.4" y1="441.8" x2="1276.4" y2="420.6"/>
			</g>
		</g>
	</g>
</g>
</svg>
