<?xml version="1.0" encoding="utf-8"?>
<!-- Generator: Adobe Illustrator 25.4.1, SVG Export Plug-In . SVG Version: 6.00 Build 0)  -->
<svg version="1.1" id="Capa_1" xmlns="http://www.w3.org/2000/svg" xmlns:xlink="http://www.w3.org/1999/xlink" x="0px" y="0px"
	 viewBox="0 0 222.8 222.8" style="enable-background:new 0 0 222.8 222.8;" xml:space="preserve">
<g id="MJaJy6_00000148651586814867729850000007161225245566241175_">
	<g>
		<path d="M172.6,78.6c5.4-4,10.9-8,16.3-12c1.9-1.3,3.7-2.9,5.8-3.7c4.7-2,10,1,11.4,6c0.9,3.2,0.1,6.5,0.6,9.7
			c-0.1,9.6-0.2,19.2-0.2,28.8c0,15.9,0,31.7,0,47.6c0,4.6-2.2,6.4-6.7,5.4c-1.2-0.3-2.4-0.8-3.6-0.5c-4.6,1.4-4.8-1.2-4.8-4.7
			c0.1-22.2,0-44.4,0-66.7c0-1.3,0.6-3.1-0.6-3.8c-1.5-0.8-2.6,1-3.7,1.8c-15.3,11.4-30.6,22.8-45.9,34.3c-1.9,1.4-3.7,3.1-5.7,4.4
			c-1.8,1.3-2.1,3-2.1,5c0.1,8.7,0,17.3,0.1,26c0,2.6-0.7,3.5-3.4,3.6c-11.3,0.4-11.3,0.5-11.3-10.7c0-8,0.1-16-0.1-24
			c-0.1-4,1.5-6.9,4.7-9.3c12.8-9.5,25.6-19.2,38.3-28.8c1-0.7,1.8-1.6,2.6-2.5c0.6-0.4,1.3-0.8,1.9-1.2c1.6-0.7,2.9-1.7,4-3
			c0,0,0.1-0.1,0.1-0.1C171.4,80.1,172.1,79.5,172.6,78.6z"/>
		<path d="M59.5,85.8c0.3,0.3,0.7,0.5,1,0.8c9.7,8.1,20,15.3,30,22.9c3,2.3,6,4.7,9.1,6.8c3,2,4.3,4.9,4.3,8.3
			c0.1,10.7,0,21.4,0.1,32.1c0,2.2-0.8,3-3,3.2c-12,0.7-12,0.8-12-11.3c0-6.1-0.1-12.2,0.1-18.3c0.1-2.4-0.6-4-2.6-5.4
			c-11.2-8.1-22.4-16.2-33.4-24.8c-6-4.6-11.9-9.3-18-13.8c-1-0.8-2-2.4-3.4-1.5c-1.1,0.6-0.5,2.2-0.5,3.4c0,22.1,0,44.1,0,66.2
			c0,5.4,0,5.4-5.2,5.4c-9.5,0.1-9.5,0.1-9.5-9.6c-0.1-18.4-0.2-36.8-0.3-55.2c0-7.7,0-15.4,0.1-23.1c0.1-0.2,0.1-0.4,0-0.6
			c0-0.6,0-1.2,0.1-1.8c0.2-0.2,0.2-0.4,0.1-0.7c3.3-7.2,8.7-8.6,14.9-3.9c9.1,6.8,18.2,13.5,27.3,20.2
			C58.9,85.4,59.2,85.6,59.5,85.8z"/>
		<path d="M152,86.7c0.1-0.1,0.1-0.3,0.2-0.3c0.1,0,0.2,0.1,0.3,0.1c-0.1,0.1-0.1,0.3-0.2,0.3C152.2,86.9,152.1,86.8,152,86.7z"/>
		<path d="M65.3,87.2c0,0.1,0.1,0.2,0.1,0.3c-0.1,0-0.3,0.2-0.3,0.1C64.9,87.4,65,87.2,65.3,87.2z"/>
		<path d="M68,89.8c-0.1,0.1-0.1,0.3-0.2,0.3c-0.1,0-0.2-0.1-0.3-0.1c0.1-0.1,0.1-0.3,0.2-0.3C67.7,89.6,67.8,89.7,68,89.8z"/>
		<path d="M166.3,83.4c-0.6,0.4-1.3,0.8-1.9,1.2C165.1,84.2,165.7,83.8,166.3,83.4z"/>
		<path d="M172.6,78.6c-0.5,0.9-1.2,1.5-2.2,1.8C170.5,78.9,171.4,78.6,172.6,78.6z"/>
		<path d="M16.3,68.8c0.1,0.3,0.1,0.5-0.1,0.7C16,69.2,16,69,16.3,68.8z"/>
		<path d="M16.2,71.3c0.1,0.2,0.1,0.4,0,0.6C15.9,71.7,15.9,71.5,16.2,71.3z"/>
		<path d="M59.5,85.8c-0.3-0.2-0.7-0.5-1-0.7C58.9,85.4,59.2,85.6,59.5,85.8z"/>
	</g>
</g>
</svg>
