<?xml version="1.0" encoding="utf-8"?>
<!-- Generator: Adobe Illustrator 25.4.1, SVG Export Plug-In . SVG Version: 6.00 Build 0)  -->
<svg version="1.1" id="Capa_1" xmlns="http://www.w3.org/2000/svg" xmlns:xlink="http://www.w3.org/1999/xlink" x="0px" y="0px"
	 viewBox="0 0 222.8 222.8" style="enable-background:new 0 0 222.8 222.8;" xml:space="preserve">
<path d="M78.3,42.5c0.1,12,0.3,23.9,0.4,35.9c0,1.9,0,3.8,0,6.4c3.6-1.9,6.3-3.5,9.1-4.8c37.4-16.1,78.2,8.2,77.5,49.2
	c-0.5,31.5-29.8,55.3-62,50.5c-27.7-4.1-46.1-25.5-46.1-53.4c0-27.9,0-55.8,0-83.8C64.3,42.5,71.3,42.5,78.3,42.5z M111.3,158.2
	c18.5,0,32.4-13.2,32.4-30.7c0-17.6-13.9-30.8-32.4-30.8c-18.3,0-32.5,13.4-32.5,30.8C78.8,145,92.8,158.2,111.3,158.2z"/>
</svg>
