<?xml version="1.0" encoding="utf-8"?>
<!-- Generator: Adobe Illustrator 25.4.1, SVG Export Plug-In . SVG Version: 6.00 Build 0)  -->
<svg version="1.1" id="Capa_1" xmlns="http://www.w3.org/2000/svg" xmlns:xlink="http://www.w3.org/1999/xlink" x="0px" y="0px"
	 viewBox="0 0 222.8 222.8" style="enable-background:new 0 0 222.8 222.8;" xml:space="preserve">
<g id="sEYMvX_00000151529578692957373840000012643707555276329358_">
	<g>
		<path d="M76.5,124c9.9,1,18.1,2.5,26.3,2.4c12.9-0.2,25.9-2.3,38.8-2c18.4,0.5,36.4,3.6,50.3,17.4c6.4,6.4,6.3,12.3-1.5,16.6
			c-9.6,5.3-20,9.6-30.5,12.6c-36.9,10.5-73.7,7.5-110.1-2.9c-6.7-1.9-13.1-5.7-18.8-9.8c-6-4.4-6.1-10.5-1.3-16.3
			c2-2.4,4.5-4.7,7.2-6.2C49.6,128.7,63.7,125.5,76.5,124z"/>
		<path d="M110.5,122c-15.4-0.4-30.6-1.8-45.1-6.8c-6.3-2.2-12.2-5.8-17.7-9.5c-5.5-3.7-5.9-9.7-0.4-13.7c6-4.3,12.8-7.8,19.8-10
			C78,78.7,89,76.5,100.9,78c9,1.2,18.4-0.4,27.6-0.6c16.4-0.3,31.7,4,45.4,12.8c6.7,4.3,6.7,11.4,0.4,16.5
			c-9.1,7.3-19.9,10.4-31.2,12C132.3,120.3,121.4,121,110.5,122z"/>
		<path d="M109.4,74.9c-17.3-1.5-31-1.6-42.9-9.4c-8.3-5.4-8-10.5,0.6-15.5c12.4-7.2,26.1-9.2,40.2-9.2c14.3,0,28.6,0.3,42.2,5.8
			c2.1,0.8,4.4,1.6,6,3.1c2.4,2.4,6.1,5.4,5.9,8c-0.2,3-3.4,6.8-6.3,8.3c-5.8,2.9-12.2,5.1-18.6,6.2
			C126.3,73.7,115.9,74.2,109.4,74.9z"/>
	</g>
</g>
</svg>
