<?xml version="1.0" encoding="utf-8"?>
<!-- Generator: Adobe Illustrator 25.4.1, SVG Export Plug-In . SVG Version: 6.00 Build 0)  -->
<svg version="1.1" id="Capa_1" xmlns="http://www.w3.org/2000/svg" xmlns:xlink="http://www.w3.org/1999/xlink" x="0px" y="0px"
	 viewBox="0 0 222.8 222.8" style="enable-background:new 0 0 222.8 222.8;" xml:space="preserve">
<g id="cn501R.tif_00000031925493796850316760000007454525207741266090_">
	<g>
		<path d="M162.4,133.2c0,8-1.8,15.6-5.3,22.7c-2.3,4.6-5.2,8.7-8.7,12.4c-7.7,8.1-17.1,13.2-28.1,15.1c-14.2,2.4-27.3-0.6-39-9
			c-6.6-4.8-11.8-10.9-15.5-18.2c-2.6-5.2-4.3-10.7-5-16.4c-1.3-10.3,0.4-20.1,5-29.3c1-2,2.2-3.9,3.4-5.9c0.2-0.4,0.4-0.4,0.8-0.2
			c5.1,3,10.3,6,15.5,9c8.5,4.9,17,9.9,25.5,14.8c0.3,0.2,0.6,0.2,0.9,0c13.6-7.9,27.3-15.9,40.9-23.8c0.3-0.2,0.5-0.3,0.8,0.1
			c3.5,5.3,6.1,11,7.6,17.3C162,125.5,162.4,129.3,162.4,133.2z"/>
		<path d="M111.4,38.6c1.1,1.7,2.1,3.3,3.1,4.9c8.9,13.9,17.8,27.8,26.7,41.6c2,3.1,4,6.2,6,9.3c0.3,0.4,0.2,0.6-0.2,0.8
			c-8.4,4.9-16.9,9.8-25.3,14.7c-3.2,1.9-6.5,3.8-9.7,5.7c-0.4,0.3-0.8,0.2-1.2,0c-8-4.7-16-9.3-24-14c-3.7-2.1-7.3-4.3-11-6.4
			c-0.4-0.2-0.4-0.4-0.2-0.8c7.5-11.6,14.9-23.3,22.4-35c4.3-6.8,8.7-13.6,13-20.3C111.2,39.1,111.3,38.9,111.4,38.6z M136.4,92.2
			c-0.1-0.1-0.2-0.3-0.3-0.4c-8.1-12.7-16.2-25.3-24.3-38c-0.3-0.5-0.3-0.5-0.6,0c-8.1,12.7-16.2,25.4-24.4,38
			c-0.3,0.4-0.2,0.6,0.2,0.8c8,4.6,16,9.3,23.9,13.9c0.4,0.2,0.7,0.2,1.1,0c6.1-3.6,12.3-7.1,18.4-10.7c1.9-1.1,3.7-2.2,5.6-3.3
			C136.1,92.5,136.3,92.5,136.4,92.2z"/>
	</g>
</g>
</svg>
