<?xml version="1.0" encoding="utf-8"?>
<!-- Generator: Adobe Illustrator 25.4.1, SVG Export Plug-In . SVG Version: 6.00 Build 0)  -->
<svg version="1.1" id="Capa_1" xmlns="http://www.w3.org/2000/svg" xmlns:xlink="http://www.w3.org/1999/xlink" x="0px" y="0px"
	 viewBox="0 0 222.8 222.8" style="enable-background:new 0 0 222.8 222.8;" xml:space="preserve">
<g id="yLMJJd_00000101100295415161498840000011756469088275555261_">
	<g>
		<path d="M76.8,111.6c0.1,4,0.3,8.2,1,12.3c0.1,0.8-0.1,1.3-0.6,1.9c-6.4,6.4-12.8,12.8-19.2,19.1c-0.2,0.2-0.5,0.5-0.7,0.7
			c-1.2,1.4-1.2,1.4-2-0.4c-4.2-9.7-6.3-19.8-6.7-30.4c-0.3-6.9,0.2-13.7,1.5-20.5c1.6-8.3,4.3-16.2,8.6-23.6
			C66.6,57.4,77.6,48,92.5,43.4c7.9-2.4,16.1-3.1,24.3-2.5c7.7,0.6,15.1,2.5,22,6c10.7,5.4,18.9,13.4,24.9,23.7
			c0.5,0.8,0.1,1.2-0.4,1.6c-6.8,6.8-13.6,13.6-20.4,20.3c-15.6,15.6-31.2,31.2-46.9,46.9c-2.2,2.2-4.4,4.4-6.5,6.6
			c-0.9,0.9-0.9,0.9,0.1,1.8c5.6,4.9,12.3,7.2,19.7,7.5c8.4,0.4,16.2-1.6,22.8-7.1c5-4.2,8.2-9.6,10.3-15.7c3-8.8,3.7-17.9,3-27.1
			c-0.2-2.6-0.5-5.1-1-7.6c-0.1-0.5,0-0.9,0.4-1.2c6.8-6.8,13.7-13.7,20.5-20.5c0.6-0.6,0.9-0.4,1.2,0.3c2.6,5.7,4.5,11.6,5.7,17.8
			c1.6,8,2,16.1,1.4,24.3c-1,12.4-4.2,24.1-10.7,34.8c-6.1,10-14.3,17.8-24.9,22.9c-10.6,5.1-21.8,6.6-33.4,5.6
			c-14.5-1.4-27-7.2-37.1-17.7c-3.5-3.7-6.5-7.8-9.1-12.2c-0.4-0.7-0.3-1.2,0.3-1.7c6.2-6.2,12.4-12.3,18.5-18.5
			c11.1-11.1,22.1-22.2,33.2-33.3c7.3-7.3,14.5-14.6,21.8-21.8c1-1,1-1-0.1-1.9c-7.2-6-15.6-7.8-24.7-7c-7.4,0.6-13.9,3.3-19.2,8.6
			c-4.4,4.4-7.2,9.8-9,15.7C77.5,98.2,76.9,104.8,76.8,111.6z"/>
	</g>
</g>
</svg>
