<?xml version="1.0" encoding="utf-8"?>
<!-- Generator: Adobe Illustrator 25.4.1, SVG Export Plug-In . SVG Version: 6.00 Build 0)  -->
<svg version="1.1" id="Capa_1" xmlns="http://www.w3.org/2000/svg" xmlns:xlink="http://www.w3.org/1999/xlink" x="0px" y="0px"
	 viewBox="0 0 222.8 222.8" style="enable-background:new 0 0 222.8 222.8;" xml:space="preserve">
<g id="fbYfjp_00000104677549375301512190000012555674691803407019_">
	<g>
		<path d="M60.2,155.1c0-22,0.4-43.9,0-65.9c-0.5-26,17.8-49.1,44.9-52.5c31.5-4,57.3,20.8,57.4,49.5c0.1,30.1,0,60.2,0,90.4
			c0,2.5-0.5,4.7-1.5,6.9c-0.8,1.6-1.8,3.1-3.8,3c-2.1-0.1-3.8-0.9-4.8-2.9c-1-1.9-1.1-3.8-1.1-5.8c0-4.6,0-9.1-0.1-13.7
			c-0.1-3.7-2.4-6-5.6-6c-3.4,0.1-5.6,2.3-5.7,5.9c-0.1,2.4,0,4.8-0.1,7.2c-0.2,3.6-2.6,6.1-5.7,5.9c-3.4-0.3-5.3-2.3-5.4-5.8
			c-0.1-2.1,0-4.3,0-6.4c-0.1-4.4-2.1-6.7-5.7-6.8c-3.4-0.1-5.6,2.2-5.7,6.6c-0.1,3.2-1.2,5.6-4.3,6.4c-3.4,0.8-5.7-0.8-6.9-3.9
			c-0.1-1.6-0.1-3.2-0.4-4.8c-0.6-3.1-2.8-4.5-5.8-4.3c-3,0.2-5,1.9-5.3,5c-0.2,2.8-0.1,5.6-0.2,8.4c-0.1,3.6-2.2,5.5-5.6,5.5
			c-3.5,0.1-5.3-2.2-5.6-5.5c-0.2-2.7-0.1-5.3-0.2-8c-0.1-3.6-2.2-5.4-5.7-5.4c-3.4,0-5.5,2-5.6,5.5c-0.1,5.1-0.1,10.1-0.1,15.2
			c0,1.6,0,3.2-1,4.6c-1.5,1.9-3.8,3.3-5.8,2.6c-2.6-0.9-4.5-3.2-4.4-6.5c0.1-7.6,0-15.2,0-22.8C60.3,156.1,60.2,155.6,60.2,155.1z
			 M121.3,84c0,5.9,4.1,10.6,9.2,10.5c4.9-0.1,9.1-4.8,9.2-10.3c0-5.7-4.3-10.6-9.3-10.6C125.4,73.7,121.3,78.4,121.3,84z
			 M83.5,83.8c0,6.1,3.8,10.6,9,10.7c5,0,9.4-4.9,9.2-10.6c-0.1-5.7-4.2-10.2-9.2-10.2C87.4,73.7,83.5,78.1,83.5,83.8z M111.4,109.4
			c3.4-0.2,6.5-0.9,8.2-4.1c1.2-2.1,0.9-4.2-2.2-3.9c-3.6,0.3-7.1,0.4-10.7,0c-2.9-0.3-3.8,1.5-2.3,4.1
			C105.9,108.2,108.6,108.9,111.4,109.4z"/>
		<path d="M132.6,179.3C132.6,179.3,132.6,179.3,132.6,179.3C132.6,179.3,132.6,179.3,132.6,179.3z"/>
	</g>
</g>
</svg>
