<?xml version="1.0" encoding="utf-8"?>
<!-- Generator: Adobe Illustrator 25.4.1, SVG Export Plug-In . SVG Version: 6.00 Build 0)  -->
<svg version="1.1" id="Capa_1" xmlns="http://www.w3.org/2000/svg" xmlns:xlink="http://www.w3.org/1999/xlink" x="0px" y="0px"
	 viewBox="0 0 222.8 222.8" style="enable-background:new 0 0 222.8 222.8;" xml:space="preserve">
<g id="_x35_LMWKe_00000044860615216536233550000012045124135043570877_">
	<g>
		<path d="M66.3,147.3c-10.2-9.2-18.8-19.4-24.6-32c-3.8-8.5-3.9-16.3,2-24.2c7.9-10.6,15-21.7,22.4-32.6
			c7-10.3,16.3-13.8,28.8-11.6c12.5,2.3,24.1,6.8,35.3,12.4c14.3,8.6,27.8,18.1,38.6,31c7.7,9.1,14.3,18.6,15.1,31.1
			c0.3,4.5-1.1,8.5-3.6,12.2c-8.8,12.8-17.5,25.7-26.4,38.4c-3.7,5.3-9.7,6.8-15.7,7.2c-13,0.7-25.3-2.7-36.8-8.5
			C88.8,164.3,76.8,156.9,66.3,147.3z M161.2,134.8c16.3,0.1,22.3-8.8,15.7-23.7c-1.7-3.7-3.8-7.3-6.2-10.6
			c-13.6-18.5-31.5-31.9-52.1-41.7c-10.4-4.9-21.1-8.3-32.8-7.5C74.5,52,69.1,59.5,72,70.3c1.6,5.9,4.5,11.1,8.2,15.8
			c13.9,18,31.6,31.2,52,40.9C141.4,131.4,150.9,134.6,161.2,134.8z M114.3,125.4c-10.9-8.7-21.8-17.5-32.6-26.2
			C90.9,110,100.6,120.3,114.3,125.4z M148.7,139.4c8,4,16.1,5.2,24.7,1.3L148.7,139.4z"/>
		<path d="M108,72.5c14.4,0.2,37.3,15.9,42.7,29.3c2.9,7.3-0.1,11.8-8.1,11.5c-11.5-0.4-20.8-6.2-29.5-13.1
			c-5.3-4.2-10.2-9.1-13.2-15.4C96.3,77,99.3,72.4,108,72.5z"/>
	</g>
</g>
</svg>
