<?xml version="1.0" encoding="utf-8"?>
<!-- Generator: Adobe Illustrator 25.4.1, SVG Export Plug-In . SVG Version: 6.00 Build 0)  -->
<svg version="1.1" id="Capa_1" xmlns="http://www.w3.org/2000/svg" xmlns:xlink="http://www.w3.org/1999/xlink" x="0px" y="0px"
	 viewBox="0 0 222.8 222.8" style="enable-background:new 0 0 222.8 222.8;" xml:space="preserve">
<g id="VzEXZQ.tif_00000001660536331744647940000013708385342278295959_">
	<g>
		<path d="M62.6,67.1c1.8,2.8,3.6,5.6,5.4,8.4c4.3,6.6,8.5,13.1,12.8,19.7c0.9,1.3,1.8,2.6,2.7,3.8c1.6,2.1,3.7,3,6.3,2.4
			c1-0.2,2-0.6,2.9-1c0.6-0.3,1.2-0.7,1.7-1.2c0.9-0.8,1-1.9,0.4-2.9c-0.3-0.5-0.6-0.9-1-1.4c-4.3-5.3-8.6-10.6-12.9-15.9
			C68.4,63.8,55.9,48.6,43.5,33.4c-0.5-0.6-1-1.2-1.4-1.8c0,0,0.1-0.1,0.1-0.1c0.2,0.2,0.4,0.4,0.6,0.6c8.4,9.2,16.8,18.4,25.2,27.6
			c10,11,20,22,30,33.1c0.7,0.7,1.3,1.4,1.9,2.2c0.1,0.2,0.3,0.4,0.3,0.6c0,1.1-0.1,2.2-0.2,3.2c-0.2,1.5-1,2.8-2.1,4
			c-1.8,1.9-4.1,3.1-6.6,3.7c-1.3,0.3-2.6,0.5-4,0.7c-1.1,0.2-2.2,0.5-3.1,1.2c-1.1,0.9-1.7,2.1-1.9,3.4c-0.2,1.1-0.4,2.2-0.4,3.4
			c-0.2,4.2-1.3,8.1-3.1,11.9c-0.9,1.8-1.6,3.6-2.4,5.4c-0.4,0.9-0.7,1.8-0.8,2.8c-0.5,3.2,0.4,6,2.5,8.5c1.2,1.3,2.6,2.4,4,3.4
			c1.1,0.8,2.2,1.6,3.3,2.4c0.7,0.6,1.3,1.2,1.9,1.9c1.1,1.2,1.7,2.7,1.6,4.4c0,0.7,0,1.4,0,2.1c0,1.4-0.5,2.7-1.4,3.8
			c-1.5,2-3.5,3.5-5.6,4.8c-3.3,1.9-6.9,3.2-10.6,4.2c-1.2,0.3-2.4,0.5-3.7,0.8c-0.5,0.1-0.6,0-0.7-0.5c-0.2-0.7-0.5-1.5-0.8-2.2
			c-0.7-1.4-1.5-2.7-2.3-4c-1.2-1.9-2.4-3.7-3.2-5.8c-1.4-3.4-2-7-1.8-10.7c0.2-3.2,1.3-6,3.1-8.6c1.2-1.8,2.6-3.4,3.9-5.1
			c2.1-2.6,4.1-5.3,5.8-8.2c2-3.4,3.2-7,3.6-10.9c0.3-2.1,0.6-4.3,1.2-6.3c0.6-1.9,1.5-3.7,2.9-5.2c0.4-0.5,0.8-0.9,1.1-1.4
			c0.5-0.8,0.7-1.7,0.2-2.5c-1.1-2.2-2.2-4.4-3.4-6.5c-4.4-7.9-8.8-15.8-13.2-23.7c-0.5-0.9-0.9-1.7-1.4-2.6
			C62.6,67.1,62.6,67.1,62.6,67.1z M69.5,150.6c0-1.2-0.5-2.1-1.5-2.8c-0.9-0.6-2-0.8-3-0.3c-0.4,0.2-0.7,0.5-0.7,1
			c0,0.5,0.3,0.7,0.6,0.9c0,0,0.1,0,0.1,0.1c0.5,0.3,0.6,0.7,0.4,1.3c-0.2,0.3-0.4,0.6-0.5,0.9c-0.3,0.8-0.1,1.5,0.6,2
			c0.8,0.5,1.8,0.5,2.6-0.2C69,152.6,69.5,151.7,69.5,150.6z"/>
		<path d="M131.6,101.3c0.3,0.2,0.4,0.3,0.6,0.5c2.3,2,4.9,3.2,7.8,4c2.7,0.7,5.4,1.2,8.2,1.6c4.4,0.7,8.8,1.2,13.1,2.4
			c3.9,1.1,7.6,2.7,10.8,5.1c5.1,3.9,8.2,9,9.1,15.4c0.1,0.8,0.1,1.6,0.1,2.3c0,2.3,0,4.6-0.4,6.9c-0.5,2.3-1.4,4.4-2.5,6.4
			c-0.1,0.1-0.2,0.2-0.4,0.5c-0.1-0.4-0.2-0.7-0.2-0.9c-0.1-3.5-1.7-6.4-4.1-8.9c-1.7-1.7-3.6-2.9-5.7-4.1
			c-3.3-1.9-6.9-3.3-10.4-4.8c-3.4-1.5-6.9-2.9-10.3-4.4c-2.7-1.2-5.3-2.7-7.7-4.4c-2.2-1.6-4.2-3.3-5.7-5.6
			c-1.5-2.2-2.3-4.7-2.5-7.3c-0.1-1.3-0.1-2.6-0.1-3.9C131.5,101.8,131.5,101.6,131.6,101.3z"/>
		<path d="M172.3,110.6c-0.3-0.4-0.5-0.8-0.8-1.2c-2.3-3.4-5.4-5.3-9.4-6c-2.3-0.4-4.6-0.6-7-0.7c-4.1-0.2-8.2-0.5-12.2-1.3
			c-2.8-0.6-5.5-1.4-8.1-2.6c-2.8-1.3-5.2-3.3-7.4-5.6c-2.5-2.6-4.8-5.5-6.9-8.4c-2-2.6-4-5.3-6.2-7.7c-2.5-2.7-5.2-5.2-8.4-7.1
			c-3-1.8-6.3-2.9-9.7-3.5c-0.4-0.1-0.8-0.1-1.2-0.2c-0.2,0-0.3-0.1-0.5-0.2c0.3,0,0.5-0.1,0.8-0.1c1.2,0,2.4,0,3.6,0.2
			c2.1,0.2,4.2,0.6,6.2,1.3c3,1.1,5.7,2.7,8.2,4.7c2.8,2.2,5.2,4.7,7.5,7.4c0.3,0.4,0.7,0.5,1.2,0.4c3.2-0.6,6.5-0.9,9.7-0.9
			c6.6,0.1,13,1.3,19,4.2c1.7,0.8,3.3,1.8,4.9,2.8c0.5,0.3,0.8,0.7,0.9,1.3c0.5,2.4,0.8,4.9,0.4,7.3c-0.1,1.1-0.4,2.1-0.9,3.1
			c-0.2,0.3-0.3,0.6-0.4,0.9c-0.4,1-0.1,2.1,0.7,2.8c0.8,0.7,1.9,0.9,2.9,0.3c0.6-0.4,1.1-0.9,1.6-1.5c1-1.4,1.7-3.1,2.1-4.8
			c0.2-0.8,0.4-1.7,0.7-2.6c0.1,0.1,0.2,0.1,0.3,0.2c3.6,4,6.4,8.6,8,13.8c0.3,1.1,0.5,2.3,0.7,3.5
			C172.5,110.5,172.4,110.6,172.3,110.6z"/>
		<path d="M161.9,179.9c0.2-0.5,0.4-0.9,0.6-1.4c0.6-1.3,1.1-2.6,1.4-3.9c0.8-3.3,0.4-6.4-0.7-9.6c-0.5-1.5-1.2-3-2-4.4
			c-1.6-2.6-3.2-5.2-4.8-7.8c-1.6-2.5-3.3-4.9-4.9-7.5c-1.6-2.5-2.8-5.2-3.4-8.1c-0.6-2.7-0.6-5.4,0.1-8.1c0.1-0.3,0.2-0.6,0.3-0.9
			c0.2-0.4,0.3-0.4,0.7-0.2c0.1,0,0.2,0.1,0.3,0.2c3.5,2,7.1,4,10.6,6c2.6,1.4,5.1,3,7.4,4.8c2.3,1.8,4.4,3.9,5.9,6.5
			c2.1,3.6,3,7.4,2.9,11.5c-0.1,1.9-0.1,3.7-0.5,5.6c-1.8,7.6-6,13.5-13.2,17.1c-0.2,0.1-0.4,0.2-0.6,0.2
			C161.9,180,161.9,179.9,161.9,179.9z"/>
		<path d="M150.7,188.3c-0.1,0.1-0.1,0.1-0.2,0.2c-1.8,1.3-3.6,2.5-5.7,3c-4.7,1.2-8.7,0-12-3.6c-1.2-1.3-2.2-2.8-2.9-4.5
			c-1.1-2.4-2.2-4.9-3.4-7.3c-0.4-0.9-0.9-1.7-1.4-2.5c-1.6-2.5-3.8-4.4-6.6-5.5c-2.5-1-5-1.1-7.4,0c-2.6,1.1-3.9,3.1-4,5.9
			c-0.1,1.8,0.6,3.3,1.9,4.5c1.3,1.2,2.8,1.9,4.5,2.1c2.6,0.4,5.2-1.5,5.7-4.2c0.1-0.5,0.1-1,0.1-1.5c-0.1-2-1.4-3.2-3.6-3.9
			c-1-0.3-2.1-0.2-3,0.3c-1.2,0.6-1.9,1.8-1.7,3.2c0.1,0.7,0.4,1.2,1,1.6c0.2,0.2,0.5,0.3,0.8,0.5c-1.6-0.4-2.4-1.8-2-3.4
			c0.4-1.7,1.5-2.7,3.1-3c2.1-0.5,4,0.1,5.7,1.5c1.1,1,1.6,2.3,1.7,3.8c0.4,4.7-2.7,7.4-6,8c-1.8,0.4-3.5,0-5.2-0.6
			c-1.2-0.4-2.2-1-3.1-1.9c-1.2-1.1-2.4-2.3-3.6-3.4c-1.3-1.2-2.5-2.4-3.9-3.5c-2.3-1.9-5-2.9-7.8-3.4c-1.7-0.3-3.3-0.6-5-0.9
			c-0.1,0-0.2-0.1-0.5-0.1c0.7-0.6,1.2-1.2,1.8-1.7c5.5-4.5,11.7-7.9,18.7-9.5c3-0.7,6-0.8,9.1-0.5c2.4,0.2,4.7,0.8,6.9,1.7
			c5.2,2.2,8.5,6.1,10,11.5c0.6,2.1,0.9,4.2,1.3,6.4c0.3,1.8,0.6,3.6,1,5.4c0.3,1.4,1,2.7,1.8,3.8c1.2,1.8,2.9,2.7,5,3.1
			c2.6,0.4,5.2,0.1,7.7-0.8C149.5,188.7,150.1,188.5,150.7,188.3C150.7,188.3,150.7,188.3,150.7,188.3z"/>
		<path d="M94.1,69.9c0.6,0.1,1.2,0.2,1.7,0.4c1.6,0.4,3.2,1,4.6,1.9c1.9,1.1,3.2,2.8,4.1,4.8c0.9,2,1.4,4.2,1.9,6.3
			c0.3,1.5,0.7,2.9,1,4.4c0.3,1.4,0.9,2.6,1.6,3.8c0.6,1.1,1.3,2.1,2,3.2c0.1,0.2,0.3,0.5,0.4,0.7c0.2,0.5,0,0.9-0.5,1
			c-0.6,0.1-1.3,0.2-1.9,0.1c-1.6-0.2-3-0.9-4.3-1.8c-3.2-2-5.6-4.8-7.4-8.2c-1.7-3.4-2.9-6.9-3.4-10.7c-0.2-1.8-0.2-3.7,0-5.5
			C94,70.3,94.1,70.2,94.1,69.9z"/>
		<path d="M106.7,153.1c0.3-0.2,0.6-0.4,0.9-0.6c3.3-2.1,6.9-3.5,10.7-4.2c3.1-0.6,6.2-1.2,9.3-1.7c3.1-0.5,6-1.5,8.6-3.2
			c3.1-2.1,5.2-5,6-8.8c0.4-2,0.4-4,0-6c-0.3-1.3-0.6-2.7-0.9-4c0.1,0.1,0.2,0.2,0.4,0.4c1.5,1.8,2.4,3.9,3.1,6.1
			c0.1,0.4,0.2,0.7,0.2,1.1c0,1.7,0,3.5-0.1,5.2c-0.2,1.7-0.9,3.2-1.8,4.6c-2,3.3-4.9,5.5-8.5,6.8c-2.5,0.9-5,1.4-7.7,1.6
			c-3.2,0.2-6.4,0.4-9.6,0.7c-3.4,0.3-6.7,0.9-9.9,2.1c-0.2,0.1-0.3,0.1-0.5,0.1C106.7,153.2,106.7,153.2,106.7,153.1z"/>
		<path d="M102.5,119.2c-0.4-0.1-1.2-0.1-1.9-0.3c-1.1-0.3-1.8-1-2.1-2.2c-0.8-3.4,0.6-6.1,3.2-7.9c0.9-0.6,2-0.8,3-0.8
			c2.8,0,5,1.2,6.4,3.7c0.2,0.4,0.4,0.8,0.5,1.2c0.5,1.4,0.1,2.6-0.9,3.6c-1,0.9-2.1,1.5-3.4,1.9C105.9,119,104.4,119.1,102.5,119.2
			z M105.1,108.9c-0.9,0-1.9,0.3-2.5,0.8c-1.3,1-1.3,2.4,0.1,3.3c1.6,1.1,3.3,1.1,5,0c1.3-0.8,1.3-2.3,0.1-3.2
			C107,109.2,106.1,108.9,105.1,108.9z"/>
		<path d="M169.9,91.8c-0.2-0.2-0.3-0.3-0.5-0.5c-1.8-1.7-3.8-3.2-5.8-4.7c-0.3-0.2-0.7-0.5-1.1-0.7c-0.5-0.2-0.7-0.2-1,0.2
			c-0.1,0.2-0.3,0.5-0.3,0.7c-0.1,0.8-0.1,1.7-0.1,2.5c0,2.1-0.2,4.2-0.9,6.2c-0.3,1-0.7,1.9-1.3,2.8c0-0.1,0-0.2,0.1-0.2
			c0.6-1.2,0.7-2.5,0.7-3.9c0-2.2,0-4.4-0.2-6.7c-0.3-2.4-1.3-4.4-3.3-5.8c-1.3-0.9-2.7-1.7-4.1-2.5c-1.4-0.8-2.9-1.4-4.3-2.1
			c-0.2-0.1-0.4-0.2-0.6-0.3c0,0,0-0.1,0.1-0.1c1.4,0.4,2.9,0.8,4.3,1.3c1.4,0.5,2.7,1,4.1,1.5c0.5,0.2,0.9,0.3,1.4,0.5
			c0.5,0.1,0.7,0,0.9-0.5c0.1-0.5,0.2-1,0.2-1.5c0.1-1.5,0.2-3,0.4-4.4c0.2-1.6,0.8-3.1,1.6-4.5c-0.1,0.2-0.1,0.4-0.2,0.6
			c-0.3,1-0.5,2-0.6,3c-0.1,2.2,0.1,4.3,0.6,6.5c0.2,1.1,0.7,2.2,1.5,3c0.7,0.8,1.5,1.7,2.2,2.5c1.7,1.9,3.5,3.8,5.2,5.7
			C169.3,90.8,169.7,91.3,169.9,91.8C170,91.8,170,91.8,169.9,91.8z"/>
		<path d="M41.7,31.2c0-0.1-0.1-0.1-0.1-0.2c0,0,0-0.1-0.1-0.3C41.6,30.9,41.7,31,41.7,31.2C41.7,31.1,41.7,31.1,41.7,31.2z"/>
	</g>
</g>
</svg>
