<?xml version="1.0" encoding="utf-8"?>
<!-- Generator: Adobe Illustrator 25.4.1, SVG Export Plug-In . SVG Version: 6.00 Build 0)  -->
<svg version="1.1" id="Capa_1" xmlns="http://www.w3.org/2000/svg" xmlns:xlink="http://www.w3.org/1999/xlink" x="0px" y="0px"
	 viewBox="0 0 222.8 222.8" style="enable-background:new 0 0 222.8 222.8;" xml:space="preserve">
<g id="qsFn8I_00000088122729951846635450000009375753208793231544_">
	<g>
		<path d="M98.6,168.3c3.6,2.1,7.2,4.1,10.7,6.2c1.4,0.9,2.6,0.9,4.1-0.2c2.7-1.9,5.6-3.6,8.6-5c1.8-0.8,2-1.4,1.4-2.8
			c-2.7-7.3-5.3-14.6-8-21.8c-0.5-1.3-0.5-2.5,0-3.9c2.1-5.7,4.2-11.5,6.3-17.2c0.3-0.7,0.3-1.8,1.4-1.8c1.1,0,1.2,1,1.4,1.8
			c4.2,11.6,8.5,23.2,12.7,34.8c0.6,1.7,1.1,1.6,2.5,0.8c4-2.4,4-2.3,2.4-6.7c-5-13.6-9.9-27.1-14.9-40.7c-0.5-1.3-0.4-2.4,0-3.7
			c2.1-5.7,4.2-11.5,6.3-17.2c0.3-0.7,0.3-1.7,1.4-1.7c1.1,0,1.2,1,1.4,1.8c6.8,18.6,13.6,37.3,20.4,55.9c0.5,1.5,1,1.9,2.4,1
			c1.9-1.3,3.9-2.4,5.9-3.5c1.1-0.6,1.6-1.4,1.6-2.8c0-20.2,0-40.4,0-60.6c0-1.3-0.5-2.1-1.6-2.8C148,68.2,130.5,58.1,113,48
			c-1.3-0.7-2.3-0.7-3.5,0c-17.4,10-34.7,20.1-52.1,30c-1.3,0.8-1.9,1.7-1.8,3.2c0,20,0,40,0,60c0,1.5,0.5,2.5,1.9,3.2
			c2.5,1.3,4.8,2.8,7.2,4.2c-0.4,2,21.6-58.7,26-70.9c0.5-1.3,1.7-2.1,3-2.1l13.3,0.1c0.8,0,1.3,0.8,1,1.5
			c-4.2,11.6-31.8,88.5-32.3,88.2c-3.5-2-22.1-12.4-25.3-14.9c-2.4-1.8-3.7-4.5-3.7-7.6c0-21.2,0-42.3,0-63.5c0-3.8,1.9-6.7,5.1-8.6
			c5.6-3.3,11.3-6.6,17-9.9c12.2-7,24.4-14.1,36.5-21.1c4-2.3,8-2.3,12,0c8.5,4.9,17,9.8,25.5,14.7c8.9,5.1,17.7,10.3,26.7,15.3
			c4.6,2.6,6.8,6.3,6.8,11.5c0,19.8,0,39.6,0,59.5c0,5.1-1.9,8.8-6.5,11.4c-17.8,10.2-35.5,20.5-53.3,30.7c-3,1.7-6.2,2-9.4,0.4
			c-3.6-1.8-22.2-12.7-25.8-14.7c-0.8-0.5,28.4-78,33.3-91.1c0.4-1.1,1.5-1.9,2.7-1.9l13.5,0.1c0.8,0,1.3,0.8,1,1.5
			C127.4,89.3,98,170.1,98.6,168.3z"/>
	</g>
</g>
</svg>
