<?xml version="1.0" encoding="utf-8"?>
<!-- Generator: Adobe Illustrator 25.4.1, SVG Export Plug-In . SVG Version: 6.00 Build 0)  -->
<svg version="1.1" id="Capa_1" xmlns="http://www.w3.org/2000/svg" xmlns:xlink="http://www.w3.org/1999/xlink" x="0px" y="0px"
	 viewBox="0 0 41 48.4" style="enable-background:new 0 0 41 48.4;" xml:space="preserve">
<style type="text/css">
	.st0{fill:#02FA95;}
</style>
<g>
	<path class="st0" d="M23.3,17.4h-5.5c-1.1,0-2.1,0.9-2.1,2.1v26.9c0,1.1,0.9,2.1,2.1,2.1h5.5c1.1,0,2.1-0.9,2.1-2.1V19.4
		C25.4,18.3,24.4,17.4,23.3,17.4z"/>
	<path class="st0" d="M40.9,15.7L33.8,1.4C33.3,0.6,32.4,0,31.4,0H9.6c-1,0-1.9,0.6-2.3,1.4L0.1,15.7c-0.4,0.8,0.2,1.7,1,1.7h8.1
		c1,0,1.9-0.6,2.3-1.4l6.3-12.5c1.1-2.2,4.3-2.2,5.4,0l6.3,12.5c0.4,0.9,1.3,1.4,2.3,1.4h8.1C40.7,17.4,41.3,16.5,40.9,15.7z"/>
</g>
</svg>
