<?xml version="1.0" encoding="utf-8"?>
<!-- Generator: Adobe Illustrator 25.4.1, SVG Export Plug-In . SVG Version: 6.00 Build 0)  -->
<svg version="1.1" id="Capa_1" xmlns="http://www.w3.org/2000/svg" xmlns:xlink="http://www.w3.org/1999/xlink" x="0px" y="0px"
	 viewBox="0 0 41 48.4" style="enable-background:new 0 0 41 48.4;" xml:space="preserve">
<style type="text/css">
	.st0{fill:#02FA95;}
</style>
<g>
	<path class="st0" d="M20.5,8.7c2.4,0,4.3-1.9,4.3-4.3c0-2.4-1.9-4.3-4.3-4.3c-2.4,0-4.3,1.9-4.3,4.3C16.2,6.7,18.1,8.7,20.5,8.7z"
		/>
	<path class="st0" d="M33.8,32.5c-0.4-0.9-1.3-1.4-2.3-1.4H9.6c-1,0-1.9,0.6-2.3,1.4L0.1,46.8c-0.4,0.8,0.2,1.7,1,1.7h8.1
		c1,0,1.9-0.6,2.3-1.4l2.2-4.4l4.1-8.2c1.1-2.2,4.3-2.2,5.4,0l4.1,8.2l2.2,4.4c0.4,0.9,1.3,1.4,2.3,1.4h8.1c0.9,0,1.4-0.9,1-1.7
		L33.8,32.5z"/>
	<path class="st0" d="M1.1,28.6h8.1c1,0,1.9-0.6,2.3-1.4l2.2-4.4l4.1-8.2c1.1-2.2,4.3-2.2,5.4,0l4.1,8.2l2.2,4.4
		c0.4,0.9,1.3,1.4,2.3,1.4h8.1c0.9,0,1.4-0.9,1-1.7l-7.1-14.3c-0.4-0.9-1.3-1.4-2.3-1.4H9.6c-1,0-1.9,0.6-2.3,1.4L0.1,26.9
		C-0.3,27.7,0.3,28.6,1.1,28.6z"/>
</g>
</svg>
