<?xml version="1.0" encoding="utf-8"?>
<!-- Generator: Adobe Illustrator 25.4.1, SVG Export Plug-In . SVG Version: 6.00 Build 0)  -->
<svg version="1.1" id="Capa_1" xmlns="http://www.w3.org/2000/svg" xmlns:xlink="http://www.w3.org/1999/xlink" x="0px" y="0px"
	 viewBox="0 0 222.8 222.8" style="enable-background:new 0 0 222.8 222.8;" xml:space="preserve">
<g id="bA3drn.tif_00000065789612395052273610000013991152078455199372_">
	<g>
		<path d="M153.1,127.6c-12.8-8.3-26.9-11.2-41.7-11.2c-14.8,0-28.9,2.9-41.7,11.2c0-0.4,0-0.7,0-1.1c0-10.7,0-21.3,0-32
			c0-1.3-0.1-2.7-0.4-4c-0.3-1.3-1.3-2.3-2.5-3c-3.7-2.2-7.5-4.2-11.1-6.6c-5.4-3.7-10.1-8.2-13.4-14c-1.5-2.6-2.6-5.4-2.6-8.5
			c-0.1-2.6,1.1-4.2,3.4-5.2c3.1-1.3,6.4-1.5,9.7-1.5c6.7-0.1,13.3,0.8,19.9,1.9c2.3,0.4,4.6,0.8,6.9,1.2c1,0.2,1,0.1,0.9-0.9
			c-0.2-1.8-0.3-3.7,0.3-5.5c0.7-2.1,2-3.5,4.3-3.8c2.1-0.3,3.7,0.8,4.8,2.5c1.1,1.8,1.9,3.7,2.8,5.6c0.2,0.4,0.4,0.8,0.6,1.2
			c1.1,1.7,1.8,2,3.7,1.4c9.9-2.8,19.8-2.7,29.6,0.2c1.1,0.3,1.9,0.1,2.5-0.7c0.8-1.3,1.5-2.7,2.3-4.1c0.7-1.4,1.3-2.9,2.3-4.1
			c2.4-3.2,6.9-2.5,8.4,1.2c0.8,2,0.8,4.1,0.5,6.1c-0.1,0.8,0.1,0.9,0.8,0.8c4.8-0.8,9.7-1.6,14.5-2.3c5.7-0.7,11.5-1.2,17.2-0.5
			c2.1,0.3,4.2,0.7,6,1.9c1.4,0.9,2.1,2.2,2.2,3.9c0.1,3.4-1,6.4-2.7,9.2c-3.3,5.6-7.8,10.1-13.1,13.7c-2.5,1.8-5.3,3.1-8,4.7
			c-1.4,0.8-2.8,1.7-4.1,2.7c-1.6,1.3-2.2,3.1-2.3,5.1c0,1.4,0.1,2.8,0.1,4.2c0,9.7,0,19.5,0,29.2
			C153.1,126.8,153.1,127.1,153.1,127.6z M133.5,96.9c0.6,0,1.2,0,1.8,0c2.4,0,4.6-0.7,6.3-2.6c2.4-2.5,3-6,1.5-8.8
			c-1.6-3-5.4-5-8.6-4.3c-5.1,1.1-9.7,3.5-13.7,6.8c-1,0.9-1.9,1.9-2.8,3c-0.6,0.8-0.5,1.4,0.3,2c0.9,0.6,1.8,1.2,2.8,1.6
			C125.1,96.1,129.3,96.8,133.5,96.9z M89.3,97c3.7-0.2,7.3-0.6,10.8-1.9c1.5-0.5,2.9-1.3,4.3-2.1c0.9-0.5,1-1.2,0.4-2.1
			c-0.6-0.8-1.2-1.6-1.9-2.2c-4-3.6-8.7-5.9-13.8-7.4c-1.4-0.4-2.9-0.3-4.3,0.1c-3.7,1.1-6.1,4.4-5.9,7.9c0.2,3.4,3.1,6.8,6.6,7.4
			C86.7,96.9,88,96.9,89.3,97z"/>
		<path d="M113.1,178.3c-12.6-0.1-23.1-1.8-33-6.3c-5.5-2.5-10.5-5.7-14.2-10.6c-3-3.9-4.6-8.2-4.1-13.2c0.5-4.1,2.4-7.6,5.1-10.7
			c4.4-4.9,9.9-8.1,15.9-10.5c7.4-2.9,15.1-4.4,23-4.9c9.6-0.6,19,0.2,28.3,2.9c7.1,2.1,13.8,5.1,19.4,10.1
			c3.5,3.1,6.2,6.8,7.2,11.5c1.2,5.6-0.5,10.4-3.9,14.8c-3.2,4.1-7.3,7-11.8,9.3c-7.1,3.7-14.7,5.7-22.6,6.7
			C118.7,178,115,178.2,113.1,178.3z M95,142.6c0,0,0-0.3,0-0.5c-0.1-1-0.5-1.2-1.4-0.8c-0.6,0.3-1.1,0.7-1.7,1.1
			c-0.6,0.4-1.2,0.8-1.8,1.1c-1.5,0.7-2.6,0.3-3.1-1.3c-0.3-0.9-0.4-1.8-0.7-2.7c-0.3-0.9-0.5-1.9-1.6-2.2c-1.1-0.3-1.8,0.5-2.4,1.3
			c-1.7,2.1-2.8,4.5-3.2,7.2c-0.2,1-0.2,2.2,0,3.2c0.8,3.8,4.1,5.6,7.8,4.4C91.3,152,94.8,147.5,95,142.6z M144,147.4
			c0-1.9-0.8-4.6-2.1-6.8c-0.6-1-1.4-2-2.3-2.8c-0.9-0.8-1.9-0.5-2.4,0.5c-0.4,0.7-0.5,1.5-0.8,2.3c-0.2,0.7-0.4,1.5-0.7,2.1
			c-0.5,1.1-1.4,1.4-2.5,1c-0.8-0.3-1.5-0.8-2.3-1.3c-0.6-0.4-1.2-0.8-1.8-1.2c-0.7-0.4-1.2-0.1-1.3,0.7c-0.1,0.5-0.1,1.1,0,1.6
			c0.7,4.1,2.8,7.2,6.5,9.2c1.3,0.7,2.7,1.2,4.2,1C141.8,153.5,144,150.8,144,147.4z"/>
	</g>
</g>
</svg>
