<?xml version="1.0" encoding="utf-8"?>
<!-- Generator: Adobe Illustrator 25.4.1, SVG Export Plug-In . SVG Version: 6.00 Build 0)  -->
<svg version="1.1" id="Capa_1" xmlns="http://www.w3.org/2000/svg" xmlns:xlink="http://www.w3.org/1999/xlink" x="0px" y="0px"
	 viewBox="0 0 222.8 222.8" style="enable-background:new 0 0 222.8 222.8;" xml:space="preserve">
<g id="dS10ag_00000171704779542545876180000003147484417971963055_">
	<g>
		<path d="M111.4,183.5c-39.9-0.1-72.1-32.2-72-72.1c0-39.9,32.1-72.2,72.3-72c39.9,0.1,71.9,32.3,71.8,72.2
			C183.3,151.6,151.1,183.3,111.4,183.5z M111.4,43.1c-37.7,0-68.2,30.6-68.2,68.2c0,37.7,30.6,68.2,68.2,68.2
			c37.7,0,68.3-30.6,68.2-68.3C179.5,73.6,149,43.1,111.4,43.1z"/>
		<path d="M141.3,131.4c3.6,3.6,7.3,7.3,10.9,10.9c-3.4,3.4-6.7,6.7-10,10c-3.6-3.6-7.3-7.3-10.9-10.9c-13.3,7.9-26.6,7.9-39.9-0.1
			c-3.6,3.6-7.3,7.3-10.9,10.9c-3.4-3.4-6.7-6.7-10-10c3.6-3.6,7.3-7.3,10.9-10.9c-7.9-13.3-7.9-26.6,0.1-39.9
			c-3.6-3.6-7.3-7.3-10.9-10.9c3.4-3.3,6.7-6.6,10.1-10c3.6,3.6,7.2,7.2,10.9,10.9c13.3-7.9,26.6-7.9,39.9,0.1
			c1.2-1.1,2.4-2.4,3.6-3.6c1.2-1.2,2.5-2.5,3.7-3.7c1.2-1.2,2.4-2.4,3.6-3.6c3.4,3.4,6.7,6.7,10,10c-3.6,3.6-7.3,7.3-10.9,10.9
			C149.4,104.8,149.3,118.1,141.3,131.4z M133.1,111.4c0-12-9.7-21.8-21.7-21.8c-12,0-21.8,9.7-21.8,21.7c0,12,9.7,21.8,21.7,21.8
			C123.3,133.1,133.1,123.4,133.1,111.4z"/>
	</g>
</g>
</svg>
