<?xml version="1.0" encoding="utf-8"?>
<!-- Generator: Adobe Illustrator 25.4.1, SVG Export Plug-In . SVG Version: 6.00 Build 0)  -->
<svg version="1.1" id="Capa_1" xmlns="http://www.w3.org/2000/svg" xmlns:xlink="http://www.w3.org/1999/xlink" x="0px" y="0px"
	 viewBox="0 0 222.8 222.8" style="enable-background:new 0 0 222.8 222.8;" xml:space="preserve">
<g id="ukU0CA.tif_00000178905304468049177160000011099049442959126418_">
	<g>
		<path d="M113.9,177.6c-1.7,0-3.5,0-5.2,0c0-0.1-0.1-0.1-0.2-0.1c-2.4-0.1-4.7-0.3-7-0.7c-3.9-0.6-7.8-1.5-11.6-2.8
			c-9.2-3.2-17.4-8.2-24.4-15c-6.5-6.3-11.6-13.7-15.1-22.1c-2.1-5.1-3.6-10.4-4.4-15.9c-0.4-2.9-0.6-5.8-0.7-8.7c0-0.7,0-1.3,0-2
			c0.1-0.1,0.1-0.2,0.1-0.3c0-0.5,0-0.9,0-1.4c0-0.2,0-0.5,0-0.7c0.2-3.4,0.6-6.7,1.3-10c1.5-7.4,4.2-14.3,8.1-20.7
			c0.1-0.2,0.2-0.3,0.4-0.1c3.4,3.4,6.8,6.8,10.2,10.2c0.2,0.2,0.2,0.3,0,0.5c-4.8,6.2-6.5,13.1-4.8,20.7
			c2.7,12.1,14.2,20.2,26.4,18.7c4.7-0.6,8.9-2.3,12.6-5.3c0.2-0.2,0.3-0.1,0.5,0c3.7,3.7,7.5,7.5,11.2,11.2c0.2,0.2,0.3,0.2,0.5,0
			c3.7-3.8,7.5-7.5,11.2-11.2c0.2-0.2,0.2-0.2,0.5-0.1c6.1,4.8,13,6.5,20.6,4.9c12.4-2.7,20.6-14.5,18.8-27.1
			c-0.6-4.5-2.4-8.5-5.2-12c-0.2-0.2-0.2-0.3,0-0.5c3.4-3.4,6.8-6.8,10.1-10.1c0.1-0.1,0.2-0.2,0.2-0.3c0.1,0.1,0.1,0.2,0.1,0.2
			c5.7,9.5,8.8,19.7,9.4,30.7c0.3,5.2-0.1,10.4-1,15.5c-1.3,6.8-3.5,13.3-6.9,19.4c-5.8,10.6-13.9,19.1-24.3,25.3
			c-9.2,5.5-19.2,8.6-30,9.2C114.8,177.5,114.3,177.4,113.9,177.6z"/>
		<path d="M113.7,45.2c0.5,0.1,1,0.1,1.4,0.1c12.1,0.7,23.1,4.4,33.2,11.1c5.9,4,11,8.8,15.4,14.5c0.2,0.2,0.1,0.3-0.1,0.4
			c-5.4,5.4-10.8,10.8-16.3,16.3c-11.9,11.9-23.8,23.8-35.7,35.8c-0.2,0.2-0.3,0.2-0.6,0c-16.5-16.5-33-33-49.5-49.6
			c-0.8-0.8-1.7-1.7-2.5-2.5c-0.1-0.1-0.2-0.2,0-0.4c6.3-8.1,14.1-14.5,23.3-19c4.7-2.3,9.6-4,14.8-5.1c2.8-0.6,5.7-1.1,8.6-1.3
			c1-0.1,2-0.2,3-0.2c0.1,0,0.1,0,0.2-0.1C110.5,45.2,112.1,45.2,113.7,45.2z M111.7,53.9c-4.2,0-8.1,0.4-12,1.2
			c-5,1-9.7,2.7-14.2,5C80,62.7,75.2,66.2,71,70.4c-0.2,0.2-0.2,0.3,0,0.6c13.4,13.4,26.7,26.7,40.1,40.1c0.2,0.2,0.3,0.3,0.6,0
			c13.2-13.3,26.5-26.5,39.7-39.7c0.2-0.2,0.4-0.4,0.5-0.5c0.1-0.1,0.1-0.2,0-0.3c-0.5-0.5-1-1-1.5-1.4c-4.6-4.3-9.9-7.8-15.6-10.4
			C127.3,55.5,119.5,53.9,111.7,53.9z"/>
		<path d="M45.2,108.7C45.2,108.8,45.3,108.8,45.2,108.7c0.1,0.5,0.1,0.9,0.1,1.4c0,0.1,0,0.2-0.1,0.3
			C45.2,109.9,45.2,109.3,45.2,108.7z"/>
		<path d="M84.2,120.6c-7.6,0-14.3-4.9-16.4-11.9c-1.7-5.5-0.9-10.6,2.4-15.3c0.1-0.1,0.1-0.1,0.2-0.2c0.1-0.2,0.2-0.2,0.4,0
			c7.9,7.9,15.8,15.8,23.7,23.7c0.2,0.2,0.2,0.3,0,0.4c-2.4,1.7-5,2.8-7.9,3.2C85.7,120.5,84.9,120.6,84.2,120.6z"/>
		<path d="M138.6,120.5c-3.8,0-7.2-1.2-10.3-3.4c-0.2-0.2-0.2-0.2,0-0.4c7.9-7.9,15.8-15.8,23.7-23.7c0.2-0.2,0.2-0.2,0.4,0
			c2,2.7,3.1,5.7,3.4,9.1c0.5,8.2-4.6,15.5-12.4,17.7C141.8,120.3,140.2,120.5,138.6,120.5z"/>
	</g>
</g>
</svg>
