<?xml version="1.0" encoding="utf-8"?>
<!-- Generator: Adobe Illustrator 25.4.1, SVG Export Plug-In . SVG Version: 6.00 Build 0)  -->
<svg version="1.1" id="Capa_1" xmlns="http://www.w3.org/2000/svg" xmlns:xlink="http://www.w3.org/1999/xlink" x="0px" y="0px"
	 viewBox="0 0 222.8 222.8" style="enable-background:new 0 0 222.8 222.8;" xml:space="preserve">
<g id="oMTS2O.tif_00000008871637101765444810000005243234834664056763_">
	<g>
		<path d="M126,58.6c9.3,0,17,0,25.4,0c0.8,8.9,1.5,17.3,2.2,25.9c-2.6,1.3-3.8,0.7-4.1-2.1c-0.2-1.8-0.5-3.7-1.1-5.4
			c-2.2-7.3-6.3-10.6-14-10.9c-11-0.4-9-1-9.7,8.6c-1.8,23.9-3.9,47.7-5.8,71.6c-0.1,0.8,0,1.7,0,3c8,0.4,16.2,1.2,23.5-1.9
			c3.5-1.4,5.8-5.9,8.3-9.1c1.1-1.4,1.4-3.4,2.1-5.2c2.5-0.2,3.9,0.3,3.4,3.2c-1.5,8.4-2.9,16.8-4.4,25.9c-4.7,0-9.4,0-14,0
			c-6.1,0-12.3,0.1-18.4-0.1c-2.5-0.1-3.6,0.9-4.8,3c-3.4,5.7-6.7,11.7-11.3,16.4c-6.6,6.9-15.3,7.8-24.2,5.2
			c-3.4-1-6.1-3.1-6.1-7.3c0-4.1,3.1-6,6.6-4.1c1.7,0.9,3.2,2.3,4.6,3.7c4.3,4.4,10.2,4.4,13.4-0.8c2.9-4.7,4.7-10.1,7.4-16.2
			c-13.5,0-25.6,0-39,0c1.5-2.8,2.3-4.8,3.6-6.4c10.2-12.3,20.5-24.5,31-36.6c2.3-2.7,2.7-4.5,0.5-7.6C90.6,96.1,80.3,80.5,70,64.9
			c-1.1-1.6-1.6-3.6-2.7-6.2c8.2,0,15.3,0,22.4,0c7.1,0,14.3-0.1,21.4,0.1c3.2,0.1,4.7-0.9,5.9-4c3.7-9.1,9.1-17.1,19.5-19.3
			c6.3-1.3,12.8-1.9,18,3.5c1.9,1.9,2.9,4,1.3,6.5c-1.8,2.7-4.4,2.5-6.8,1.1c-1.7-1-3.2-2.4-4.7-3.6c-4.6-3.9-9.2-3.4-12.2,1.8
			C129.9,48.9,128.3,53.4,126,58.6z M113.2,66.4c-8.7,0-16.9,0-25.9,0c7.3,10.5,14.2,20.5,21.4,30.9
			C110.3,86.6,111.7,76.6,113.2,66.4z M105.4,149.9c0.7-9,1.3-17.2,1.9-25.3c-0.3-0.1-0.6-0.1-0.8-0.2c-7.1,8.4-14.1,16.8-21.4,25.5
			C92.2,149.9,98.6,149.9,105.4,149.9z"/>
	</g>
</g>
</svg>
