<?xml version="1.0" encoding="utf-8"?>
<!-- Generator: Adobe Illustrator 25.4.1, SVG Export Plug-In . SVG Version: 6.00 Build 0)  -->
<svg version="1.1" id="Capa_1" xmlns="http://www.w3.org/2000/svg" xmlns:xlink="http://www.w3.org/1999/xlink" x="0px" y="0px"
	 viewBox="0 0 222.8 222.8" style="enable-background:new 0 0 222.8 222.8;" xml:space="preserve">
<g id="GcHbze.tif_00000024703276159975294940000014164743869639192965_">
	<g>
		<path d="M140.9,40.9c0.3,1,1.3,0.6,1.9,0.8c8.8,2.9,14.5,12,12.9,21.2c-1.4,8.2-2.9,16.5-4.5,24.6c-0.3,1.8,0.2,2.4,1.7,3.1
			c7.3,3.4,13.9,7.8,19.3,13.9c6,6.8,8.8,15.7,9.2,24.7c0.4,8.9-0.9,18.7-6.1,26.1c-2,2.9-4.4,5.4-7,7.7
			c-10.5,9.2-23.1,14.3-36.7,16.8c-19.7,3.6-39.1,2.5-57.8-4.9c-8.2-3.2-15.7-7.7-21.8-14.1c-10.6-11.2-13.5-29.9-8.6-44.3
			c2.1-6.1,6.1-11.3,10.7-15.6c4.6-4.2,9.8-7.6,15.5-10.2c1.6-0.7,2-1.5,1.7-3.2c-1.6-8.1-3-16.2-4.4-24.4
			c-1.7-9.6,3-17.7,12.1-21.3c0.6-0.2,1.4-0.2,1.6-1c2.6,0,5.3,0,7.9,0c0.1,0.1,0.2,0.4,0.3,0.4c10.4,3.4,14.6,9.2,14.6,20.2
			c0,6.2,0.1,12.4,0,18.5c0,1.8,0.5,2.3,2.3,2.1c3.6-0.4,7.3-0.6,10.9-0.1c2,0.2,2.3-0.5,2.3-2.3c-0.1-6.8-0.1-13.7,0-20.5
			c0.2-8,4.2-13.5,11.4-17c0.8-0.4,2-0.1,2.2-1.4C135.2,40.9,138.1,40.9,140.9,40.9z M97.6,72.2C97.6,72.2,97.6,72.2,97.6,72.2
			c0-4.6,0.1-9.2,0-13.8c-0.2-6.7-6.8-12.4-13.3-11.8c-7.3,0.7-12.8,7.2-11.7,14.1C74.3,71,76.1,81.3,78,91.5c0.3,1.7,0,2.5-1.7,3.1
			c-4.7,1.7-9,4.1-13.1,7.1c-5.4,3.9-10.3,8.6-13.2,14.7c-3.3,7.1-3.3,16.1-2.1,23.7c2.2,13.8,12.7,23.4,25.1,28.6
			c25.5,10.8,51.2,11,76.5-0.1c13.7-6,24.8-15.1,26.2-31.7c0.9-10-0.6-19.4-7.2-27.5c-5.9-7.2-13.8-11.8-22.3-15.2
			c-1.5-0.6-1.9-1.2-1.6-2.9c1.7-9,3.3-18.1,4.9-27.1c0.5-2.9,0.8-5.8,0-8.6c-1.8-6.4-7.6-9.9-14.6-9c-5.7,0.7-10.3,6.1-10.4,12.3
			c-0.1,8.8-0.1,17.6,0,26.5c0,2-0.5,2.6-2.5,2.5c-7.6-0.3-15.2-1.1-22.7,0.3c-1.8,0.3-1.8-0.8-1.8-2C97.6,81.4,97.6,76.8,97.6,72.2
			z"/>
		<path d="M142.6,124c-0.1,3.4-0.8,6.5-3.3,9c-2.3,2.2-5.2,2.2-7.5,0c-4.4-4.2-4.4-13.4-0.1-17.7c2.2-2.2,5.2-2.3,7.5-0.2
			C141.8,117.5,142.5,120.6,142.6,124z"/>
		<path d="M93.7,124.2c0.1,2.8-0.6,5.4-2.2,7.7c-2.5,3.5-6.9,3.6-9.4,0.1c-3.3-4.4-3.2-11.4,0.1-15.8c2.5-3.4,6.3-3.5,9-0.3
			C92.8,117.8,93.7,120.7,93.7,124.2z"/>
	</g>
</g>
</svg>
