<?xml version="1.0" encoding="utf-8"?>
<!-- Generator: Adobe Illustrator 25.4.1, SVG Export Plug-In . SVG Version: 6.00 Build 0)  -->
<svg version="1.1" id="Capa_1" xmlns="http://www.w3.org/2000/svg" xmlns:xlink="http://www.w3.org/1999/xlink" x="0px" y="0px"
	 viewBox="0 0 222.8 222.8" style="enable-background:new 0 0 222.8 222.8;" xml:space="preserve">
<g id="vCFkB2.tif_00000131349282427697203920000017569775833527912602_">
	<g>
		<path d="M115.7,62.6c0.5,0.2,0.7,0.6,0.9,0.9c-0.2,0.5,0.1,0.4,0.4,0.4c0.6,0.8,1.2,1.7,1.5,2.7c-0.3,0.4-0.1,0.6,0.2,0.8
			c0.2,0.2,0.2,0.4,0.2,0.7c-0.2,0.2-0.2,0.3,0.1,0.4c0.2,0.8,0.2,1.6,0.2,2.3c0,4.3,0,8.5,0,12.8c0,0.3,0,0.5,0,0.8
			c0,0-0.1,0.1-0.1,0.1c-1.6,0.9-3.1,1.9-4.7,2.8c-1.3,0.8-2.6,1.5-4,2.3c-0.2,0.1-0.5,0.2-0.8,0.4c-0.3-0.2-0.2,0.1-0.3,0.2
			c-0.8,0.4-1.5,1-2.3,1.3c-0.3-0.2-0.2,0.1-0.3,0.2c-0.8,0.4-1.5,1-2.3,1.3c-0.3-0.2-0.2,0.1-0.3,0.2c-0.2,0.1-0.4,0.3-0.7,0.3
			c-0.1-0.1-0.2-0.1-0.3-0.2c0-0.3-0.1-0.5-0.1-0.8c0-3.5-0.1-7,0-10.6c0.1-2.9-0.3-5.7-2-8.2c0-0.3,0-0.6-0.4-0.5
			c-2.1-2.2-4.8-3.5-7.4-5c-4.4-2.7-8.9-5.4-13.3-8.1c-1.2-0.7-2.6-1.1-4-1.3c-1.4-0.2-2.7-0.1-4.1,0.2c-1.4,0.3-2.6,1.1-3.8,1.8
			c-3,1.7-6,3.4-8.9,5.2c-2.8,1.7-5.8,3.2-8.5,5.1c-2.1,1.5-3.4,3.6-4,6.2c-0.1,0.7-0.2,1.4-0.2,2.1c0,7.4,0,14.8,0.1,22.2
			c0,1.9,0.9,3.6,2,5.2c1.2,1.7,3,2.6,4.7,3.7c4.2,2.5,8.3,5.1,12.5,7.6c1.8,1.1,3.5,2.3,5.5,3c3.2,1,6.2,0.7,9.1-1.1
			c3.9-2.4,7.9-4.8,11.8-7.1c3.5-2.1,7-4.3,10.6-6.3c1.8-1.1,3.7-2,5.6-3.1c4.6-2.6,9.3-5,13.8-7.8c3.9-2.4,7.9-4.6,11.8-6.9
			c2.9-1.7,5.7-3.4,8.6-5.1c1.3-0.7,2.7-1,4.1-1.2c1.9-0.2,3.7,0.1,5.4,0.8c1.4,0.6,2.6,1.5,3.9,2.2c3,1.7,5.9,3.4,8.9,5.2
			c2.6,1.5,5.2,3,7.8,4.5c3,1.7,6,3.4,8.9,5.2c2.1,1.2,4.3,2.3,6.2,3.7c2.1,1.6,3.5,3.6,4,6.3c0.2,1,0.3,2,0.3,3.1
			c0,12.9,0,25.7,0,38.6c0,2.5-0.7,4.9-2.3,6.9c-1,1.3-2.3,2.2-3.7,3c-2.6,1.5-5.2,3-7.9,4.5c-2.7,1.5-5.3,3.1-8,4.7
			c-2.4,1.4-4.9,2.9-7.3,4.3c-2.6,1.5-5.3,3-7.9,4.6c-1.7,1-3.5,2-5.5,2.4c-0.3,0.1-0.7-0.1-1,0.2c-0.7,0-1.4,0-2,0
			c-0.1-0.2-0.3-0.1-0.4-0.1c-1.2-0.1-2.4-0.5-3.4-1.1c-2.9-1.7-5.8-3.4-8.8-5.1c-3.8-2.2-7.7-4.4-11.5-6.6
			c-3.8-2.2-7.7-4.5-11.5-6.7c-1.7-1-3.5-1.9-4.9-3.4c-1.5-1.6-2.6-3.5-2.6-5.7c-0.1-4.9-0.1-9.9-0.1-14.9c0-0.3,0.1-0.5,0.4-0.6
			c1.7-1,3.4-2,5.1-2.9c3.3-1.9,6.6-3.8,9.9-5.7c0.6-0.4,0.7-0.4,0.7,0.3c0,2.9,0,5.7,0,8.6c0,1.8-0.2,3.7,0.1,5.5
			c0.4,3,1.8,5.5,4.3,7.1c2.2,1.4,4.5,2.7,6.8,4c2.4,1.4,4.8,2.9,7.3,4.2c2.1,1.1,4,2.6,6.2,3.3c2.7,0.9,5.3,0.9,7.9-0.3
			c2.2-1,4.2-2.4,6.2-3.6c3.7-2.2,7.4-4.4,11.1-6.6c1.5-0.9,2.9-1.8,3.9-3.2c1.6-2,2.3-4.3,2.3-6.8c0-6.5,0-12.9,0-19.4
			c0-1.1,0-2.3-0.3-3.4c-0.5-2.5-1.8-4.6-3.8-6c-2.8-2-5.9-3.5-8.8-5.3c-2.6-1.6-5.3-3-7.9-4.6c-2.6-1.6-5.2-2.8-8.4-2.6
			c-1.5,0.1-2.9,0.5-4.1,1.2c-2.4,1.4-4.7,2.8-7.1,4.1c-2.4,1.4-4.7,2.7-7.1,4.1c-2.8,1.7-5.7,3.3-8.5,5c-2.4,1.4-4.9,2.8-7.3,4.2
			c-2.2,1.3-4.4,2.6-6.6,3.8c-2.4,1.4-4.9,2.8-7.3,4.2c-2.3,1.3-4.7,2.7-7,4c-2.6,1.5-5.2,3.1-7.8,4.6c-1.7,1-3.3,2.1-5.1,2.8
			c-3.1,1.2-6.2,1-9.1-0.7c-3.7-2.1-7.4-4.3-11.1-6.5c-3.8-2.2-7.6-4.4-11.4-6.6c-3.6-2.1-7.2-4.2-10.7-6.2
			c-2.2-1.3-3.9-2.9-4.9-5.3c-0.4-0.9-0.5-1.8-0.8-2.6c0-14.1,0-28.3,0-42.4c0.3-0.7,0.3-1.5,0.6-2.2c0.9-2.3,2.5-3.8,4.6-5
			c3.6-2.1,7.2-4.2,10.9-6.4c3.3-1.9,6.7-3.9,10-5.8c3.5-2,7-4.1,10.5-6.2c1.8-1,3.5-2.3,5.7-2.7c3-0.6,5.7-0.2,8.4,1.4
			c2.9,1.8,5.9,3.5,8.8,5.2c3.8,2.2,7.6,4.5,11.4,6.7c4.1,2.4,8.3,4.8,12.4,7.2c0.5,0.3,0.9,0.6,1.4,0.9
			C115.1,62.4,115.3,62.6,115.7,62.6z"/>
		<path d="M118.7,67.4c-0.4-0.2-0.5-0.4-0.2-0.8C118.6,66.9,118.8,67.1,118.7,67.4z"/>
		<path d="M115.7,62.6c-0.4,0-0.6-0.1-0.6-0.5C115.3,62.1,115.5,62.3,115.7,62.6z"/>
		<path d="M117,63.9c-0.2,0-0.6,0.1-0.4-0.4C116.8,63.6,116.9,63.7,117,63.9z"/>
		<path d="M100.8,73.2c0.4-0.1,0.4,0.2,0.4,0.5C100.9,73.7,100.9,73.4,100.8,73.2z"/>
		<path d="M103.2,93.4c0.1,0,0.2,0,0.3,0.2c-0.1,0.1-0.1,0.3-0.3,0.2C103.1,93.6,103.1,93.5,103.2,93.4z"/>
		<path d="M119,68.5c-0.3-0.1-0.3-0.2-0.1-0.4C119,68.2,119,68.4,119,68.5z"/>
		<path d="M109.3,90.2c0-0.2-0.1-0.4,0.3-0.2C109.5,90.1,109.4,90.2,109.3,90.2z"/>
		<path d="M106.7,91.7c0-0.2-0.1-0.4,0.3-0.2C107,91.6,106.8,91.7,106.7,91.7z"/>
		<path d="M104.2,93.2c0-0.2-0.1-0.4,0.3-0.2C104.4,93.1,104.3,93.2,104.2,93.2z"/>
		<path d="M119,84.6c0,0,0.1-0.1,0.1-0.1C119.1,84.5,119.1,84.6,119,84.6z"/>
	</g>
</g>
</svg>
