<?xml version="1.0" encoding="utf-8"?>
<!-- Generator: Adobe Illustrator 25.4.1, SVG Export Plug-In . SVG Version: 6.00 Build 0)  -->
<svg version="1.1" id="Capa_1" xmlns="http://www.w3.org/2000/svg" xmlns:xlink="http://www.w3.org/1999/xlink" x="0px" y="0px"
	 viewBox="0 0 222.8 222.8" style="enable-background:new 0 0 222.8 222.8;" xml:space="preserve">
<g id="UbbF8j_00000111169817624521545140000012347433008722625697_">
	<g>
		<path d="M111.4,129.4c-5.5,7-10.9,13.6-16.1,20.3c-5.9,7.6-13.4,11.5-23.2,11.2c-8.7-0.3-17.4-0.1-26,0c-1.9,0-2.7-0.5-2.6-2.5
			c0.1-5.5,0.1-10.9,0-16.4c0-2,0.7-2.6,2.6-2.6c8.4,0.1,16.8,0,25.2,0.1c2.6,0,4.4-0.9,6-2.9c16.6-21,33.4-42,49.9-63
			c6.1-7.7,13.6-11.8,23.6-11.5c8.5,0.3,17,0.1,25.5,0c2.2,0,3.2,0.4,3.1,2.9c-0.2,5.3-0.1,10.6,0,15.9c0,2-0.7,2.6-2.6,2.6
			c-8.3-0.1-16.6,0-24.9-0.1c-2.7,0-4.6,0.8-6.3,3c-6,7.7-12.2,15.4-18.4,23c-1.2,1.5-1.4,2.4-0.1,4c6.3,7.7,12.5,15.6,18.7,23.5
			c1.5,1.9,3.2,2.7,5.6,2.7c8.2-0.1,16.4,0.1,24.6-0.1c2.8-0.1,3.5,0.9,3.4,3.5c-0.2,5.2-0.1,10.4,0,15.6c0,1.9-0.6,2.4-2.4,2.4
			c-9.8-0.1-19.6,0.1-29.4-0.1c-8-0.1-14.2-4.1-19.1-10.1c-5-6.2-10-12.5-15-18.8C112.8,131,112.2,130.3,111.4,129.4z"/>
		<path d="M101.3,80.7c-4.8,6-9.4,11.8-14.2,17.9c-2.2-2.8-4.3-5.4-6.4-8c-7-8.6-4-7.2-15.2-7.3c-6.5-0.1-13-0.1-19.5,0
			c-1.9,0-2.7-0.5-2.6-2.6c0.1-5.4,0.1-10.8,0-16.1c-0.1-2.2,0.8-2.7,2.8-2.6c9.2,0.1,18.3,0.1,27.5,0c7.9-0.1,14.3,2.9,19.5,8.7
			C95.9,73.8,98.5,77.2,101.3,80.7z"/>
	</g>
</g>
</svg>
