<?xml version="1.0" encoding="utf-8"?>
<!-- Generator: Adobe Illustrator 25.4.1, SVG Export Plug-In . SVG Version: 6.00 Build 0)  -->
<svg version="1.1" id="Capa_1" xmlns="http://www.w3.org/2000/svg" xmlns:xlink="http://www.w3.org/1999/xlink" x="0px" y="0px"
	 viewBox="0 0 222.8 222.8" style="enable-background:new 0 0 222.8 222.8;" xml:space="preserve">
<g id="CpAw8T_00000065792222261028325670000013678458259284114850_">
	<g>
		<path d="M188.1,122.5c-1.1-1.2-2.1-2.3-3.9-4.2c0.7,22.6-8.8,39.5-26.6,53.5c0.5-3.3,0.8-5.6,1.3-9c-9.5,11.4-20.1,19.1-34.9,21.7
			c2.1-2.4,3.6-4.1,6-6.7c-14.2,5.9-27.4,5.7-41.5,1.4c24.4-1.8,37.6-10.6,42.5-27.6c3.8-13.3-1.3-27.9-13.2-36.7
			c-2.6,3.4-5.6,6.7-7.8,10.4c-1.3,2.2-1.3,5.2-2.2,7.8c-1.1,3.2-2.1,6.6-4,9.3c-1.9,2.7-4.8,4.6-7.3,6.9c-0.4,0.4-0.9,1-1.4,1
			c-8.4,1.1-16.3,6.7-25.4,2.7c-4.9-2.2-9.9-13.2-6.9-18.1c6-9.7,5.7-20.7,7.2-31.3c0.4-2.7-0.8-5.6-1.4-8.4
			c-0.2-1.3-1.3-2.8-0.9-3.7c1.9-4.9-1.4-6.6-4.6-8.8c-8.6-6.1-17-12.4-25.5-18.6c-1.2-0.9-2.4-2-3.6-3c0.2-0.3,0.3-0.7,0.5-1
			c9.8,3.5,19.6,6.9,29.9,10.6c-2.1-9-1.1-16.8,5.6-23.8c1.2,3.6,2.2,6.7,3.5,10.5c5-12.5,13.4-18.8,27-19c-1.5,2.6-2.7,4.7-4.3,7.4
			c24.1-11,45.8-7.2,66.9,8.5c-2.6,0-4.2,0-5.9,0c-1.5,0-3.1-0.2-5.3-0.3C179.4,69,190.9,92,188.1,122.5z M75.6,105.6
			c-0.5,3.8-0.6,6.5-1.2,9c-1.4,6.2-2.2,12.7-4.7,18.4c-1.9,4.4-2.1,7.8-0.3,11.9c1.7,3.9,7.7,5.5,11.3,3.1c5.5-3.7,7.5-8.8,8-15.2
			c0.1-1.7,2.6-4,4.3-4.4c1.3-0.3,3.8,1.7,4.7,3.3c0.5,1.1-0.5,3.5-1.6,4.7c-2.8,3.3-6.1,6.2-9.3,9.4c6.3,1.1,16.1-6.5,16.1-12.2
			c0-2-1.1-4.2-2.2-5.9c-2.5-3.8-6.6-4-11.1-3.8c6.6-2.8,7.2-9.2,9.4-14.5c0.6-1.5,1.1-3,1.9-4.4c0.5-1,1.4-2.3,2.2-2.4
			c6.4-0.6,7.8-5.7,9.6-10.4c0.8-2.1,2.4-4.6,2-6.5c-1.1-4.3-3.2-8.3-4.6-11.8c-4.4,1.1-8.1,2.1-11.8,3c10.2-9.3,13.1-18.2,8-26.5
			c-5.3,7.5-10.7,15-16,22.5c-1.9,2.6-3.9,4.7-7.3,2.2c-1.2,3.4-2.2,6.5-3.5,9.4c-2.9,6.4-3.3,12.4,0.2,18.8
			c1.3,2.3,0.7,5.7,0.9,8.5c-0.4,0-0.9,0.1-1.3,0.1C78.3,110.3,77.3,108.5,75.6,105.6z M136.5,163.1c1-0.5,1.9-1,2.9-1.6
			c18.3-12.1,27.3-35.2,21.4-56.4c-5.7-20.7-19.4-33.4-40.3-38.3c-1.8-0.4-4.5,0.1-5.7,1.2c-0.9,0.8-0.5,3.6,0,5.3
			c1.3,4.2,3.1,8.2,4.6,12.3c1.3,3.7-2.3,7.2-4.5,9.7c-3.9,4.4-9.3,7-12.9,11.3c-2.9,3.5-3.6,8.7-5.3,13c4.7,1.9,7.3,0.2,9-4.1
			c0.9-2.3,2.3-4.5,4.1-6.2c1.6-1.5,3.9-3,6-3.2c8.4-0.6,14.8-5.2,15.7-13.6c0.6-5.4-0.7-11-1.2-17c2.6,3.2,5.8,6.2,7.8,9.9
			c3.8,7,7,14.3,10.1,21.6c1.6,3.9,2.4,8.1,3.6,12.1c0.3,1.1,0.6,2.3,1.2,3.2c4.5,6.7,4.1,11.2-1.8,16.7c-0.5,0.5-1,1.1-1.2,1.7
			C147.5,149.5,142.7,156.6,136.5,163.1z M138.5,158.4c0.3,0.2,0.5,0.4,0.8,0.6c3-5.7,6-11.5,9.1-17.1c0.9-1.7,2.1-3.4,3.5-4.6
			c3-2.4,3.7-9.4,1.5-12.6c-1.4-2-2.6-4.5-3.2-6.9c-1.4-6.4-3.6-12.4-7.9-17.7c-0.4,2.7,0,5.5-0.5,8.1c-1,4.5,0.3,8.4,1.4,12.7
			c1.4,5.8,2.3,12.2,1.5,18C143.7,145.5,140.6,151.9,138.5,158.4z M59.2,73.2c-0.1,0.4-0.3,0.8-0.4,1.2c4.2,2.5,8.4,5.2,12.7,7.6
			c0.9,0.5,2.3,0,3.4,0c-0.5-1.2-0.7-3.1-1.6-3.5C68.7,76.5,64,74.9,59.2,73.2z M89.9,137.3c0.5,0.3,1,0.5,1.5,0.8
			c1.4-1.8,2.7-3.7,4.1-5.5c-0.8-0.4-2.4-1.2-2.4-1.1C91.9,133.4,90.9,135.4,89.9,137.3z"/>
		<path d="M81.9,97.3c0.5,0.8,1,1.6,2,3.1c4.6-6.7,8.8-13,13.1-19.2c0.1,0.1,0.3,0.1,0.4,0.2c-0.5,1.8-1,3.5-1.6,5.3
			c5.9,5.1,5.8,8-0.8,12.5c-3,2-6.1,4-9.4,5.4c-0.9,0.4-3.1-1-3.8-2.1c-0.8-1.3-0.6-3.2-0.8-4.8C81.2,97.5,81.5,97.4,81.9,97.3z
			 M88.1,100.5c8.7-4.5,10-7,5.9-10.3C92.1,93.3,90.4,96.4,88.1,100.5z"/>
		<path d="M97.2,69.3c2.5-3.8,5-7.6,7.7-11.5C106.5,63.3,104.3,66.8,97.2,69.3z"/>
		<path d="M74.6,132c0.7,1.6,1.7,2.9,1.7,4.2c0,1.5-0.7,3.2-1.7,4.5c-0.4,0.5-2,0.1-3.1,0.1c0.1-1.3,0-2.8,0.5-4
			C72.7,135.2,73.7,133.7,74.6,132z"/>
	</g>
</g>
</svg>
