<?xml version="1.0" encoding="utf-8"?>
<!-- Generator: Adobe Illustrator 25.4.1, SVG Export Plug-In . SVG Version: 6.00 Build 0)  -->
<svg version="1.1" id="Capa_1" xmlns="http://www.w3.org/2000/svg" xmlns:xlink="http://www.w3.org/1999/xlink" x="0px" y="0px"
	 viewBox="0 0 222.8 222.8" style="enable-background:new 0 0 222.8 222.8;" xml:space="preserve">
<g>
	<path d="M112.7,144.8c0.6-8.3,1.3-17.5,1.9-26.7c9.6-0.9,19.2-1.7,28.7-2.8c3.6-0.4,7.2-1.4,10.5-2.8c10.3-4.3,13.8-14.1,9-24.2
		c-3.1-6.6-8.3-11.3-14.1-15.5c-12.5-8.9-26.4-14.9-40.9-19.8c-5.5-1.8-11.3-1.5-15.4,3.3c-4.2,4.8-4,10.5-1.4,16
		c9,19.1,13.4,39.1,10.9,60.1c-1.2,10.6-3.4,21.2-6.7,31.3c-3.5,10.6-10.6,18.5-22.7,20.3c-10.2,1.4-17.9-2-23.5-10.9
		c-5.8-9.5-8.1-20.1-9.2-30.9c-2.4-22-1.9-44,4.5-65.3c2.1-7.1,5.3-14,9-20.4c9.2-15.7,21.9-21.3,39.3-16.4
		c25.7,7.3,50.2,17.5,71.4,34.3c6.7,5.3,12,11.7,16.3,19.1c5.4,9.3,4.3,18.5,0,27.7c-2.5,5.4-7.5,8.2-13,9.6
		C149.1,135.6,130.8,140.2,112.7,144.8z M85.4,135.4c0-8.6-2.2-16.9-5.9-22.4c-5.7-8.3-14.4-8.3-19.1,0.5
		c-7.4,14.1-6.9,28.5,1.3,42.2c5.1,8.4,13.6,8,18.8-0.4C84.3,149.2,85.4,142.4,85.4,135.4z"/>
	<path d="M100.6,64c1.9,0.1,3.4-0.1,4.6,0.3C118,69,130.6,74,141.6,82.1c3.9,2.8,7.4,6.4,10.2,10.3c3.3,4.8,1.9,8.4-3.8,9.8
		c-6.7,1.6-13.6,2.3-20.4,3.2c-3.8,0.5-7.6,0.7-11.4,0.7c-1.1,0-3-1.1-3.1-1.9c-2-13-6.6-25.1-11.7-37.1
		C101.2,66.5,101.1,65.8,100.6,64z"/>
	<path d="M70.3,119.9c4.4,9.5,4.7,18.6,1.1,28.2C66.3,142.9,65.6,128,70.3,119.9z"/>
</g>
</svg>
