<?xml version="1.0" encoding="utf-8"?>
<!-- Generator: Adobe Illustrator 25.4.1, SVG Export Plug-In . SVG Version: 6.00 Build 0)  -->
<svg version="1.1" id="Capa_1" xmlns="http://www.w3.org/2000/svg" xmlns:xlink="http://www.w3.org/1999/xlink" x="0px" y="0px"
	 viewBox="0 0 222.8 222.8" style="enable-background:new 0 0 222.8 222.8;" xml:space="preserve">
<g>
	<path d="M113.8,39.9c13.8,23,27.7,45.9,42.2,70.1c-5.4-2.4-9.7-4.2-14-6.1c-8.6-3.7-17.3-7.3-25.8-11.2c-1.5-0.7-3.3-2.6-3.3-3.9
		c-0.2-16.2-0.1-32.3-0.1-48.5C113.1,40.2,113.5,40.1,113.8,39.9z"/>
	<path d="M67.9,108.6c13.7-22.9,27.3-45.7,41.5-69.4c0.3,1.9,0.5,2.9,0.5,3.9c0,14.7,0.1,29.4-0.1,44.2c0,1.6-0.9,4.2-2.1,4.7
		c-13,6-26.1,11.6-39.2,17.3C68.3,109.1,68.1,108.9,67.9,108.6z"/>
	<path d="M113.2,94.4c14.4,6.3,28.7,12.5,43.8,19.1c-14.9,8.7-29,17.1-43.8,25.7C113.2,124.1,113.2,109.6,113.2,94.4z"/>
	<path d="M65.8,113.5c14.9-6.5,29.1-12.7,43.7-19.1c0,15.1,0,29.6,0,44.8C94.9,130.6,80.7,122.3,65.8,113.5z"/>
	<path d="M155.3,124.6c-13.8,19.7-27.7,39.3-41.5,59c-0.3-0.1-0.6-0.2-0.9-0.3c0-11.1,0-22.3,0.1-33.4c0-0.8,0.8-1.9,1.5-2.3
		c13.4-8,26.9-15.9,40.3-23.8C154.9,124.1,155.1,124.3,155.3,124.6z"/>
	<path d="M108.9,183.4c-13.9-19.6-27.8-39.3-41.6-58.9c0.2-0.2,0.4-0.5,0.6-0.7c5.9,3.4,11.8,6.9,17.7,10.3
		c7.1,4.2,14.3,8.2,21.3,12.6c1.3,0.8,2.9,2.6,2.9,3.9c0.2,10.9,0.1,21.7,0.1,32.6C109.5,183.2,109.2,183.3,108.9,183.4z"/>
</g>
</svg>
