<?xml version="1.0" encoding="utf-8"?>
<!-- Generator: Adobe Illustrator 25.4.1, SVG Export Plug-In . SVG Version: 6.00 Build 0)  -->
<svg version="1.1" id="Capa_1" xmlns="http://www.w3.org/2000/svg" xmlns:xlink="http://www.w3.org/1999/xlink" x="0px" y="0px"
	 viewBox="0 0 41 41" style="enable-background:new 0 0 41 41;" xml:space="preserve">
<style type="text/css">
	.st0{fill:#FB6977;}
</style>
<g>
	<path class="st0" d="M39,0h-5.5c-1.1,0-2.1,0.9-2.1,2.1v27.2c0,1.1-0.9,2.1-2.1,2.1H11.8c-1.1,0-2.1-0.9-2.1-2.1V2.1
		C9.7,0.9,8.8,0,7.6,0H2.1C0.9,0,0,0.9,0,2.1v27.5c0,1.2,0.5,2.3,1.3,3.1l7.1,7.1c0.8,0.8,1.9,1.3,3.1,1.3h18c1.2,0,2.3-0.5,3.1-1.3
		l7.1-7.1c0.8-0.8,1.3-1.9,1.3-3.1V2.1C41,0.9,40.1,0,39,0z"/>
	<path class="st0" d="M15.6,27.5h9.8c1.1,0,2.1-0.9,2.1-2.1V2.1c0-1.1-0.9-2.1-2.1-2.1h-9.8c-1.1,0-2.1,0.9-2.1,2.1v23.3
		C13.5,26.6,14.5,27.5,15.6,27.5z"/>
</g>
</svg>
