<?xml version="1.0" encoding="utf-8"?>
<!-- Generator: Adobe Illustrator 25.4.1, SVG Export Plug-In . SVG Version: 6.00 Build 0)  -->
<svg version="1.1" id="Capa_1" xmlns="http://www.w3.org/2000/svg" xmlns:xlink="http://www.w3.org/1999/xlink" x="0px" y="0px"
	 viewBox="0 0 41 48.4" style="enable-background:new 0 0 41 48.4;" xml:space="preserve">
<style type="text/css">
	.st0{fill:#FB6977;}
</style>
<path class="st0" d="M36.4,0H4.6C2,0,0,2,0,4.6v39.3c0,2.5,2,4.6,4.6,4.6h31.9c2.5,0,4.6-2,4.6-4.6V4.6C41,2,39,0,36.4,0z M9.7,5.7
	c2.3,0,4.1,1.8,4.1,4.1s-1.8,4.1-4.1,4.1S5.6,12,5.6,9.8S7.4,5.7,9.7,5.7z M5.6,21.9c0-1,0.8-1.8,1.8-1.8h14.2c1,0,1.8,0.8,1.8,1.8
	v4.6c0,1-0.8,1.8-1.8,1.8H7.4c-1,0-1.8-0.8-1.8-1.8V21.9z M9.7,42.8c-2.3,0-4.1-1.8-4.1-4.1s1.8-4.1,4.1-4.1s4.1,1.8,4.1,4.1
	S12,42.8,9.7,42.8z M35.4,41c0,1-0.8,1.8-1.8,1.8H19.4c-1,0-1.8-0.8-1.8-1.8v-4.6c0-1,0.8-1.8,1.8-1.8h14.2c1,0,1.8,0.8,1.8,1.8V41z
	 M31.3,28.4c-2.3,0-4.1-1.8-4.1-4.1s1.8-4.1,4.1-4.1s4.1,1.8,4.1,4.1S33.6,28.4,31.3,28.4z M35.4,12.1c0,1-0.8,1.8-1.8,1.8H19.4
	c-1,0-1.8-0.8-1.8-1.8V7.5c0-1,0.8-1.8,1.8-1.8h14.2c1,0,1.8,0.8,1.8,1.8V12.1z"/>
</svg>
