<?xml version="1.0" encoding="utf-8"?>
<!-- Generator: Adobe Illustrator 25.4.1, SVG Export Plug-In . SVG Version: 6.00 Build 0)  -->
<svg version="1.1" xmlns="http://www.w3.org/2000/svg" xmlns:xlink="http://www.w3.org/1999/xlink" x="0px" y="0px"
	 viewBox="0 0 89.1 68.8" style="enable-background:new 0 0 89.1 68.8;" xml:space="preserve">
<style type="text/css">
	.st0{fill-rule:evenodd;clip-rule:evenodd;}
</style>
	<g>
		<path fill="white" class="st0" d="M3.8,68.8h81.4c2.1,0,3.8-1.7,3.8-3.8v-3.3c0-2.1-1.7-3.8-3.8-3.8H3.8c-2.1,0-3.8,1.7-3.8,3.8L0,65
			C0,67.1,1.7,68.8,3.8,68.8z"/>
		<path fill="white" class="st0" d="M25,39.9h60.2c2.1,0,3.8-1.7,3.8-3.8v-3.3c0-2.1-1.7-3.8-3.8-3.8H25c-2.1,0-3.8,1.7-3.8,3.8V36
			C21.2,38.2,22.9,39.9,25,39.9z"/>
		<path fill="white" class="st0" d="M3.8,11h81.4c2.1,0,3.8-1.7,3.8-3.8V3.8c0-2.1-1.7-3.8-3.8-3.8L3.8,0C1.7,0,0,1.7,0,3.8l0,3.3
			C0,9.3,1.7,11,3.8,11z"/>
	</g>
</svg>
