<?xml version="1.0" encoding="utf-8"?>
<!-- Generator: Adobe Illustrator 25.4.1, SVG Export Plug-In . SVG Version: 6.00 Build 0)  -->
<svg version="1.1" id="Capa_1" xmlns="http://www.w3.org/2000/svg" xmlns:xlink="http://www.w3.org/1999/xlink" x="0px" y="0px"
	 viewBox="0 0 48.4 48.4" style="enable-background:new 0 0 48.4 48.4;" xml:space="preserve">
<style type="text/css">
	.st0{fill:#FB6977;}
</style>
<g>
	<path class="st0" d="M47.3,14.9h-5.9c-1,0-1.9,0.7-2.3,1.8l-3.4,8.5l0.3-0.9c-0.7,1.7-2,2.7-3.5,2.8H15.9c-1.5,0-2.9-1.1-3.5-2.8
		l0.4,1l-3.4-8.5C8.9,15.6,8,14.9,7,14.9H1.1c-0.9,0-1.4,1.1-1,2.1l3.3,8.3C3.9,26.3,4.8,27,5.7,27h5.7c1.1,0,2.1,1.2,2.1,2.6v16.8
		c0,1.1,0.9,2.1,2.1,2.1h17.3c1.1,0,2.1-0.9,2.1-2.1V29.6c0-1.4,0.9-2.6,2.1-2.6h5.7c1,0,1.9-0.7,2.3-1.8l3.3-8.3
		C48.7,16,48.1,14.9,47.3,14.9z"/>
	<path class="st0" d="M16.1,18.2c1.9,1.1,4.4,0.5,5.5-1.5c1.1-1.9,0.5-4.4-1.5-5.5c-1.9-1.1-4.4-0.5-5.5,1.5
		C13.5,14.6,14.1,17,16.1,18.2z"/>
	<path class="st0" d="M26.8,16.7c1.1,1.9,3.6,2.6,5.5,1.5c1.9-1.1,2.6-3.6,1.5-5.5c-1.1-1.9-3.6-2.6-5.5-1.5
		C26.4,12.3,25.7,14.7,26.8,16.7z"/>
	<circle class="st0" cx="24.2" cy="4.1" r="4.1"/>
</g>
</svg>
