<?xml version="1.0" encoding="utf-8"?>
<!-- Generator: Adobe Illustrator 25.4.1, SVG Export Plug-In . SVG Version: 6.00 Build 0)  -->
<svg version="1.1" id="Capa_1" xmlns="http://www.w3.org/2000/svg" xmlns:xlink="http://www.w3.org/1999/xlink" x="0px" y="0px"
	 viewBox="0 0 41 48.4" style="enable-background:new 0 0 41 48.4;" xml:space="preserve">
<style type="text/css">
	.st0{fill:#FB6977;}
</style>
<path class="st0" d="M40.4,37.7l-8.9-7.1c-0.7-0.5-1.7-0.1-1.7,0.8v6.2c0,0.7-0.2,1.3-0.5,2l-3.1,4.9c-0.9,1.5-2.3,2.1-3.8,2.1h-3.9
	c-1.5,0-2.9-0.7-3.8-2.2l-3-4.8c-0.3-0.7-0.2-1.5,0.4-2l28.3-27c0.6-0.5,0.8-1.3,0.4-2.1l-4.7-7.2C35.7,0.6,34.8,0,33.8,0H7.2
	c-1,0-1.7,0.5-2.3,1.4L0.2,8.7c-0.4,0.7-0.2,1.6,0.4,2.1l8.9,7.1c0.7,0.5,1.7,0.1,1.7-0.8v-6.2c0-0.7,0.2-1.3,0.5-2l3.1-4.9
	c0.9-1.5,2.3-2.1,3.8-2.1h3.9c1.5,0,2.8,0.7,3.7,2.1l3.1,4.9c0.3,0.7,0.2,1.5-0.4,2l-28.3,27c-0.6,0.6-0.7,1.5-0.2,2.1L4.9,47
	c0.6,1,1.3,1.4,2.3,1.4h26.6c1,0,1.7-0.5,2.3-1.4l4.7-7.2C41.2,39,41,38.2,40.4,37.7z"/>
</svg>
