<?xml version="1.0" encoding="utf-8"?>
<!-- Generator: Adobe Illustrator 25.4.1, SVG Export Plug-In . SVG Version: 6.00 Build 0)  -->
<svg version="1.1" id="Capa_1" xmlns="http://www.w3.org/2000/svg" xmlns:xlink="http://www.w3.org/1999/xlink" x="0px" y="0px"
	 viewBox="0 0 41 48.4" style="enable-background:new 0 0 41 48.4;" xml:space="preserve">
<style type="text/css">
	.st0{fill:#FB6977;}
</style>
<g>
	<path class="st0" d="M1.1,17.4h8.1c1,0,1.9-0.6,2.3-1.4l6.3-12.5c1.1-2.2,4.3-2.2,5.4,0l6.3,12.5c0.4,0.9,1.3,1.4,2.3,1.4h8.1
		c0.9,0,1.4-0.9,1-1.7L33.8,1.4C33.3,0.6,32.4,0,31.4,0H9.6c-1,0-1.9,0.6-2.3,1.4L0.1,15.7C-0.3,16.5,0.3,17.4,1.1,17.4z"/>
	<path class="st0" d="M39.9,31h-8.1c-1,0-1.9,0.6-2.3,1.4L23.2,45c-1.1,2.2-4.3,2.2-5.4,0l-6.3-12.5c-0.4-0.9-1.3-1.4-2.3-1.4H1.1
		c-0.9,0-1.4,0.9-1,1.7L7.3,47c0.4,0.9,1.3,1.4,2.3,1.4h21.8c1,0,1.9-0.6,2.3-1.4l7.1-14.3C41.3,31.9,40.7,31,39.9,31z"/>
	<circle class="st0" cx="20.5" cy="24.2" r="4.8"/>
</g>
</svg>
