<?xml version="1.0" encoding="utf-8"?>
<!-- Generator: Adobe Illustrator 25.4.1, SVG Export Plug-In . SVG Version: 6.00 Build 0)  -->
<svg version="1.1" id="Capa_1" xmlns="http://www.w3.org/2000/svg" xmlns:xlink="http://www.w3.org/1999/xlink" x="0px" y="0px"
	 viewBox="0 0 41 48.4" style="enable-background:new 0 0 41 48.4;" xml:space="preserve">
<style type="text/css">
	.st0{fill:#FB6977;}
</style>
<g>
	<path class="st0" d="M36.5,0h-8.1c-1,0-1.9,0.6-2.3,1.4L3.4,46.8c-0.4,0.8,0.2,1.7,1,1.7h8.1c1,0,1.9-0.6,2.3-1.4L37.6,1.7
		C37.9,0.9,37.4,0,36.5,0z"/>
	<path class="st0" d="M11.6,22.7L22.1,1.7C22.5,0.9,22,0,21.1,0H13c-1,0-1.9,0.6-2.3,1.4L0.1,22.5c-0.4,0.8,0.2,1.7,1,1.7h8.1
		C10.2,24.2,11.1,23.6,11.6,22.7z"/>
	<path class="st0" d="M39.8,24.2h-8.1c-1,0-1.9,0.6-2.3,1.4L18.9,46.7c-0.4,0.8,0.2,1.7,1,1.7H28c1,0,1.9-0.6,2.3-1.4l10.5-21.1
		C41.3,25.1,40.7,24.2,39.8,24.2z"/>
</g>
</svg>
