<?xml version="1.0" encoding="utf-8"?>
<!-- Generator: Adobe Illustrator 25.4.1, SVG Export Plug-In . SVG Version: 6.00 Build 0)  -->
<svg version="1.1" id="Capa_1" xmlns="http://www.w3.org/2000/svg" xmlns:xlink="http://www.w3.org/1999/xlink" x="0px" y="0px"
	 viewBox="0 0 396.4 345.5" style="enable-background:new 0 0 396.4 345.5;" xml:space="preserve">
<style type="text/css">
	.st0{stroke:#000000;stroke-width:1.4331;stroke-miterlimit:10;}
	.st1{fill:url(#SVGID_1_);stroke:#000000;stroke-width:1.4331;stroke-miterlimit:10;}
	.st2{fill:#EEEEEE;stroke:#000000;stroke-width:1.4331;stroke-miterlimit:10;}
	
		.st3{fill:url(#SVGID_00000111898713793194310840000014042206937337357214_);stroke:#000000;stroke-width:1.4331;stroke-miterlimit:10;}
	.st4{fill:#EEEEEE;}
	.st5{clip-path:url(#SVGID_00000065038797537709879030000011544347049947469460_);fill:#FFFFFF;}
	.st6{fill:none;}
	.st7{fill:none;stroke:#000000;stroke-width:1.4331;stroke-miterlimit:10;}
	.st8{fill:#C8C8C8;}
	.st9{clip-path:url(#SVGID_00000112591275372827752830000002627609487832562346_);fill:#FFFFFF;}
	.st10{clip-path:url(#SVGID_00000171682972113230920910000006931434384938962052_);fill:#02F994;}
	.st11{clip-path:url(#SVGID_00000006678533650737875380000012034950499228259743_);fill:#02F994;}
	.st12{clip-path:url(#SVGID_00000162346963664492809430000005516541600515433647_);fill:#02F994;}
	.st13{clip-path:url(#SVGID_00000043452984088490258740000012366650325190998423_);fill:#02F994;}
	.st14{fill:none;stroke:#1D1D1B;stroke-width:1.4331;stroke-miterlimit:10;}
	.st15{clip-path:url(#SVGID_00000086685126643955609810000018045877698711943561_);fill:#02F994;}
	.st16{clip-path:url(#SVGID_00000045592878520450663180000007568668622863899293_);fill:#02F994;}
	.st17{clip-path:url(#SVGID_00000027577903691788349740000012058821004433032849_);fill:#02F994;}
	.st18{clip-path:url(#SVGID_00000099622369243818830880000017555934934512802978_);fill:#02F994;}
	
		.st19{fill:url(#SVGID_00000151503213887752126570000006242370760469908872_);stroke:#000000;stroke-width:1.4331;stroke-miterlimit:10;}
	.st20{clip-path:url(#SVGID_00000059996531356892594440000013163818715242550461_);fill:#FFFFFF;}
	.st21{clip-path:url(#SVGID_00000158734037031948835370000006476578520348654493_);fill:#FFFFFF;}
	.st22{clip-path:url(#SVGID_00000083800810110472567800000013480044456742299322_);fill:#FFFFFF;}
	.st23{clip-path:url(#SVGID_00000061442300689677729200000004488542872296319142_);fill:#FFFFFF;}
	
		.st24{fill:url(#SVGID_00000053547741035009189490000017655522341374579391_);stroke:#000000;stroke-width:1.4331;stroke-miterlimit:10;}
	.st25{fill:#02F994;}
	.st26{fill:#FFAFA5;stroke:#000000;stroke-width:1.4331;stroke-miterlimit:10;}
	.st27{fill:#FFFFFF;}
	.st28{opacity:0.5;fill:#02F994;}
	
		.st29{fill:url(#SVGID_00000118354928224382818890000000402533952758668734_);stroke:#000000;stroke-width:1.4331;stroke-miterlimit:10;}
	.st30{clip-path:url(#SVGID_00000111161171869890662220000002915444734867210376_);fill:#FFFFFF;}
	.st31{fill:#C8C8C8;stroke:#000000;stroke-width:1.4331;stroke-miterlimit:10;}
	.st32{clip-path:url(#SVGID_00000047055575033543892720000017080198161560451261_);fill:#FFFFFF;}
	
		.st33{fill:url(#SVGID_00000144323911379857987120000016770262154739476388_);stroke:#000000;stroke-width:1.4331;stroke-miterlimit:10;}
	.st34{fill:#1D1D1B;}
	.st35{clip-path:url(#SVGID_00000095311377828725720750000001267082774445751226_);}
	.st36{fill:#FFAFA5;}
	.st37{clip-path:url(#SVGID_00000080178608253188891460000005630541746894450581_);}
	.st38{fill:#02F994;stroke:#000000;stroke-width:1.4331;stroke-miterlimit:10;}
	.st39{clip-path:url(#SVGID_00000101813271225096809100000000348440068698188426_);}
</style>
<g>
	<path d="M392.9,188.8c-14.9-32.6-72.8-51.8-129.4-42.9c-56.5,8.9-90.2,42.4-75.3,75c1.1,2.3,2.3,4.5,3.8,6.7
		c-20.5-4.7-43.8-5.8-66.8-2.2c-56.5,8.9-90.2,42.4-75.3,75c14.9,32.6,72.8,51.8,129.4,42.9s90.2-42.4,75.3-75c0,0,0,0,0-0.1
		c-1.2-2.7,1-5.6,3.9-5.1c18.5,3.3,38.9,3.8,59.2,0.6C374.1,255,407.8,221.4,392.9,188.8z"/>
	<path class="st25" d="M141.1,131.5C93.2,115,38.3,134.9,13.3,181.4c-26.4,49.2-10,110.6,37.5,139.9c51.7,32,120.1,13.6,148.9-39.9
		c5.1-9.5,8.6-19.5,10.6-29.6c-7.2-2.5-14.3-5.8-21.1-10C150.9,218.1,132.8,173.6,141.1,131.5z"/>
	<g>
		
			<ellipse transform="matrix(0.9622 -0.2723 0.2723 0.9622 -32.1069 72.4328)" class="st26" cx="244.9" cy="151.9" rx="105.8" ry="105.7"/>
		
			<ellipse transform="matrix(0.5054 -0.8629 0.8629 0.5054 5.0744 231.1644)" class="st27" cx="204.2" cy="111.2" rx="40.7" ry="23.5"/>
	</g>
	
		<ellipse transform="matrix(0.9622 -0.2723 0.2723 0.9622 -58.9918 37.7459)" class="st28" cx="106.5" cy="231.4" rx="105.8" ry="105.7"/>
	
		<ellipse transform="matrix(0.5054 -0.8629 0.8629 0.5054 -132.0104 151.0538)" class="st27" cx="65.8" cy="190.7" rx="40.7" ry="23.5"/>
	
		<ellipse transform="matrix(0.9622 -0.2723 0.2723 0.9622 -58.9918 37.7459)" class="st7" cx="106.5" cy="231.4" rx="105.8" ry="105.7"/>
</g>
</svg>
