<?xml version="1.0" encoding="utf-8"?>
<!-- Generator: Adobe Illustrator 25.4.1, SVG Export Plug-In . SVG Version: 6.00 Build 0)  -->
<svg version="1.1" id="Capa_1" xmlns="http://www.w3.org/2000/svg" xmlns:xlink="http://www.w3.org/1999/xlink" x="0px" y="0px"
	 viewBox="0 0 41 48.4" style="enable-background:new 0 0 41 48.4;" xml:space="preserve">
<style type="text/css">
	.st0{fill:#02f994;}
</style>
<g>
	<path class="st0" d="M11.9,17.6h5.5c0.5,0,1-0.3,1.2-0.7l1.2-2.1c0.2-0.3,0.5-0.4,0.7-0.4c0.3,0,0.6,0.1,0.7,0.4l1.2,2.1
		c0.2,0.4,0.7,0.7,1.2,0.7h5.5c0.5,0,0.8-0.5,0.5-0.9l-5.1-8.8c-0.2-0.4-0.7-0.7-1.2-0.7h-5.7c-0.5,0-0.9,0.3-1.2,0.7l-5.1,8.8
		C11.1,17.1,11.4,17.6,11.9,17.6z"/>
	<path class="st0" d="M14.6,33.3c-0.2-0.4-0.7-0.7-1.2-0.7H11c-0.3,0-0.6-0.2-0.7-0.4c-0.1-0.2-0.2-0.6,0-0.9l1.2-2.1
		c0.2-0.4,0.2-1,0-1.4l-2.7-4.7c-0.2-0.4-0.8-0.4-1.1,0l-5.1,8.8c-0.2,0.4-0.2,1,0,1.4l2.9,5C5.7,38.7,6.1,39,6.6,39l10.2,0
		c0.5,0,0.8-0.5,0.5-0.9L14.6,33.3z"/>
	<path class="st0" d="M35.6,38.3l2.9-5c0.2-0.4,0.2-1,0-1.4l-5.1-8.8c-0.2-0.4-0.8-0.4-1.1,0l-2.7,4.7c-0.2,0.4-0.2,1,0,1.4l1.2,2.1
		c0.2,0.3,0.1,0.6,0,0.9c-0.1,0.2-0.4,0.4-0.7,0.4h-2.4c-0.5,0-1,0.3-1.2,0.7L23.7,38c-0.2,0.4,0.1,0.9,0.5,0.9l10.2,0
		C34.9,39,35.4,38.7,35.6,38.3z"/>
	<path class="st0" d="M25.6,28.5c0.5,0,1-0.4,1-1v-2c0-3.3-2.7-6-6.1-6c-3.3,0-6.1,2.7-6.1,6v2c0,0.5,0.4,1,1,1c0.9,0,1.7,0.5,2,1.3
		l0.6,2.2c0.2,0.3,0.5,0.5,0.9,0.5h3.1c0.4,0,0.7-0.2,0.9-0.5l0.6-2.2C24,29,24.7,28.5,25.6,28.5z M18.2,27.1
		c-0.7,0-1.3-0.6-1.3-1.3c0-0.7,0.6-1.3,1.3-1.3c0.7,0,1.3,0.6,1.3,1.3C19.4,26.6,18.9,27.1,18.2,27.1z M22.9,27.1
		c-0.7,0-1.3-0.6-1.3-1.3c0-0.7,0.6-1.3,1.3-1.3c0.7,0,1.3,0.6,1.3,1.3C24.1,26.6,23.6,27.1,22.9,27.1z"/>
	<path class="st0" d="M2.6,5.3c0.3,0.5,0.7,0.8,1.3,0.8h5.5c0.5,0,0.8-0.5,0.6-0.9L7.3,0.8C7.1,0.3,6.6,0,6.1,0H0.6
		C0.2,0-0.1,0.5,0.1,0.9L2.6,5.3z"/>
	<path class="st0" d="M31.7,6.1h5.5c0.5,0,1-0.3,1.3-0.8l2.5-4.4C41.2,0.5,40.9,0,40.4,0h-5.5c-0.5,0-1,0.3-1.3,0.8l-2.5,4.4
		C30.9,5.5,31.2,6.1,31.7,6.1z"/>
	<path class="st0" d="M38.4,43.1c-0.3-0.5-0.7-0.8-1.3-0.8h-5.5c-0.5,0-0.8,0.5-0.6,0.9l2.5,4.4c0.3,0.5,0.7,0.8,1.3,0.8h5.5
		c0.5,0,0.8-0.5,0.6-0.9L38.4,43.1z"/>
	<path class="st0" d="M9.3,42.4H3.9c-0.5,0-1,0.3-1.3,0.8l-2.5,4.4c-0.2,0.4,0.1,0.9,0.6,0.9h5.5c0.5,0,1-0.3,1.3-0.8l2.5-4.4
		C10.1,42.9,9.8,42.4,9.3,42.4z"/>
</g>
</svg>
