<?xml version="1.0" encoding="utf-8"?>
<!-- Generator: Adobe Illustrator 25.4.1, SVG Export Plug-In . SVG Version: 6.00 Build 0)  -->
<svg version="1.1" id="Capa_1" xmlns="http://www.w3.org/2000/svg" xmlns:xlink="http://www.w3.org/1999/xlink" x="0px" y="0px"
	 viewBox="0 0 48.4 48.4" style="enable-background:new 0 0 48.4 48.4;" xml:space="preserve">
<style type="text/css">
	.st0{fill:#FB6977;}
</style>
<path class="st0" d="M39.1,0L39.1,0c-5.1,0-9.3,4.2-9.3,9.3v6.3c0,1.7-1.3,3-3,3H16c-1.2,0-2.3,0.7-2.9,1.8l-13,26
	c-0.5,0.9,0.2,2,1.3,2h11.5c1.2,0,2.3-0.7,2.9-1.8l12.7-25.4l0,0c0.8-1.6,2.4-2.6,4.2-2.6h6.4c5.1,0,9.3-4.2,9.3-9.3
	C48.4,4.2,44.2,0,39.1,0z"/>
</svg>
