<?xml version="1.0" encoding="utf-8"?>
<!-- Generator: Adobe Illustrator 25.4.1, SVG Export Plug-In . SVG Version: 6.00 Build 0)  -->
<svg version="1.1" id="Capa_1" xmlns="http://www.w3.org/2000/svg" xmlns:xlink="http://www.w3.org/1999/xlink" x="0px" y="0px"
	 viewBox="0 0 41 48.4" style="enable-background:new 0 0 41 48.4;" xml:space="preserve">
<style type="text/css">
	.st0{fill:#02f994;}
</style>
<g>
	<path class="st0" d="M38.4,9.7h-4.6c-1.5,0-2.9-0.9-3.5-2.2l0.3,0.6l-3.3-6.6C26.8,0.6,25.9,0,24.9,0h-8.7c-1,0-1.9,0.6-2.3,1.4
		l-3.4,6.8l0.4-0.7c-0.7,1.3-2,2.2-3.5,2.2H2.6C1.2,9.7,0,10.9,0,12.3v23.8c0,1.5,1.2,2.6,2.6,2.6h4.6c1.5,0,2.9,0.9,3.5,2.2
		l-0.4-0.8l3.4,6.9c0.4,0.9,1.3,1.4,2.3,1.4h8.7c1,0,1.9-0.6,2.3-1.4l3.4-6.7l-0.3,0.7c0.7-1.3,2-2.2,3.5-2.2h4.6
		c1.5,0,2.6-1.2,2.6-2.6V12.3C41,10.9,39.8,9.7,38.4,9.7z M31.3,36.7c0,1.1-0.9,2.1-2.1,2.1H11.8c-1.1,0-2.1-0.9-2.1-2.1l0,2.1l0,0
		v-2.1V11.8V9.7l0,0l0,2.1c0-1.1,0.9-2.1,2.1-2.1h17.5c1.1,0,2.1,0.9,2.1,2.1V36.7z"/>
	<circle class="st0" cx="20.5" cy="24.2" r="4.8"/>
</g>
</svg>
