<?xml version="1.0" encoding="utf-8"?>
<!-- Generator: Adobe Illustrator 25.4.1, SVG Export Plug-In . SVG Version: 6.00 Build 0)  -->
<svg version="1.1" id="Capa_1" xmlns="http://www.w3.org/2000/svg" xmlns:xlink="http://www.w3.org/1999/xlink" x="0px" y="0px"
	 viewBox="0 0 68.2 48.4" style="enable-background:new 0 0 68.2 48.4;" xml:space="preserve">
<style type="text/css">
	.st0{fill:#02f994;}
</style>
<g>
	<path class="st0" d="M68.1,14.3l-6.5-13C61.2,0.5,60.4,0,59.5,0H39.6c-0.9,0-1.7,0.5-2.1,1.3l-6.5,13c-0.3,0.7,0.2,1.5,0.9,1.5h7.4
		c0.9,0,1.7-0.5,2.1-1.3l5.7-11.4c1-2,3.9-2,4.9,0l5.7,11.4c0.4,0.8,1.2,1.3,2.1,1.3h7.4C67.9,15.8,68.4,15,68.1,14.3z"/>
	<path class="st0" d="M37,19.9h-7.4c-0.9,0-1.7,0.5-2.1,1.3L14.7,46.9c-0.3,0.7,0.2,1.5,0.9,1.5H23c0.9,0,1.7-0.5,2.1-1.3l12.8-25.7
		C38.3,20.7,37.8,19.9,37,19.9z"/>
	<path class="st0" d="M18.4,27.9H11c-0.9,0-1.7,0.5-2.1,1.3L0.1,46.9c-0.3,0.7,0.2,1.5,0.9,1.5h7.4c0.9,0,1.7-0.5,2.1-1.3l8.8-17.6
		C19.7,28.8,19.2,27.9,18.4,27.9z"/>
	<path class="st0" d="M53.6,15.8h-7.4c-0.9,0-1.7,0.5-2.1,1.3L29.2,46.9c-0.3,0.7,0.2,1.5,0.9,1.5h7.4c0.9,0,1.7-0.5,2.1-1.3
		l14.8-29.8C54.8,16.7,54.3,15.8,53.6,15.8z"/>
</g>
</svg>
