<?xml version="1.0" encoding="utf-8"?>
<!-- Generator: Adobe Illustrator 25.4.1, SVG Export Plug-In . SVG Version: 6.00 Build 0)  -->
<svg version="1.1" id="Capa_1" xmlns="http://www.w3.org/2000/svg" xmlns:xlink="http://www.w3.org/1999/xlink" x="0px" y="0px"
	 viewBox="0 0 43.5 48.4" style="enable-background:new 0 0 43.5 48.4;" xml:space="preserve">
<style type="text/css">
	.st0{fill:#FB6977;}
</style>
<g>
	<ellipse transform="matrix(0.3827 -0.9239 0.9239 0.3827 7.881 23.8311)" class="st0" cx="21.8" cy="6" rx="6" ry="6"/>
	<path class="st0" d="M21.8,36.4c-3.3,0-6,2.7-6,6c0,3.3,2.7,6,6,6c3.3,0,6-2.7,6-6C27.8,39.1,25.1,36.4,21.8,36.4z"/>
	<path class="st0" d="M9,9.9c-2.9-1.7-6.6-0.7-8.2,2.2S0.1,18.7,3,20.3c2.9,1.7,6.6,0.7,8.2-2.2C12.9,15.2,11.9,11.6,9,9.9z"/>
	<path class="st0" d="M40.5,28.1c-2.9-1.7-6.6-0.7-8.2,2.2c-1.7,2.9-0.7,6.6,2.2,8.2c2.9,1.7,6.6,0.7,8.2-2.2
		C44.4,33.4,43.4,29.8,40.5,28.1z"/>
	<path class="st0" d="M3,28.1c-2.9,1.7-3.9,5.3-2.2,8.2c1.7,2.9,5.3,3.9,8.2,2.2c2.9-1.7,3.9-5.3,2.2-8.2C9.6,27.4,5.9,26.4,3,28.1z
		"/>
	<path class="st0" d="M40.5,20.3c2.9-1.7,3.9-5.3,2.2-8.2c-1.7-2.9-5.3-3.9-8.2-2.2c-2.9,1.7-3.9,5.3-2.2,8.2S37.7,22,40.5,20.3z"/>
	<ellipse transform="matrix(0.3827 -0.9239 0.9239 0.3827 -8.9256 35.0609)" class="st0" cx="21.8" cy="24.2" rx="6" ry="6"/>
</g>
</svg>
