<?xml version="1.0" encoding="utf-8"?>
<!-- Generator: Adobe Illustrator 25.4.1, SVG Export Plug-In . SVG Version: 6.00 Build 0)  -->
<svg version="1.1" id="Capa_1" xmlns="http://www.w3.org/2000/svg" xmlns:xlink="http://www.w3.org/1999/xlink" x="0px" y="0px"
	 viewBox="0 0 327.2 413" style="enable-background:new 0 0 327.2 413;" xml:space="preserve">
<style type="text/css">
	.st0{stroke:#000000;stroke-width:1.4331;stroke-miterlimit:10;}
	.st1{fill:url(#SVGID_1_);stroke:#000000;stroke-width:1.4331;stroke-miterlimit:10;}
	.st2{fill:#EEEEEE;stroke:#000000;stroke-width:1.4331;stroke-miterlimit:10;}
	
		.st3{fill:url(#SVGID_00000180355111678648359120000003156604163931238541_);stroke:#000000;stroke-width:1.4331;stroke-miterlimit:10;}
	.st4{fill:#EEEEEE;}
	.st5{clip-path:url(#SVGID_00000056395888689176699770000011357607252791130543_);fill:#FFFFFF;}
	.st6{fill:none;}
	.st7{fill:none;stroke:#000000;stroke-width:1.4331;stroke-miterlimit:10;}
	.st8{fill:#C8C8C8;}
	.st9{clip-path:url(#SVGID_00000131367098484678007440000010684367649270102438_);fill:#FFFFFF;}
	.st10{clip-path:url(#SVGID_00000139274278912948548620000010140266477143935632_);fill:#02F994;}
	.st11{clip-path:url(#SVGID_00000130625242279547946850000017100470790385936306_);fill:#02F994;}
	.st12{clip-path:url(#SVGID_00000095302010902250910830000011464622504196765059_);fill:#02F994;}
	.st13{clip-path:url(#SVGID_00000057145358393701998670000003723785814780456338_);fill:#02F994;}
	.st14{fill:none;stroke:#1D1D1B;stroke-width:1.4331;stroke-miterlimit:10;}
	.st15{clip-path:url(#SVGID_00000160173697479039397920000005927453082375355021_);fill:#02F994;}
	.st16{clip-path:url(#SVGID_00000043452021485299948760000002827776304202402749_);fill:#02F994;}
	.st17{clip-path:url(#SVGID_00000141413090698108412120000017818588053199284157_);fill:#02F994;}
	.st18{clip-path:url(#SVGID_00000079458924845814851590000016706896145851733388_);fill:#02F994;}
	
		.st19{fill:url(#SVGID_00000132785418843961104450000017121450857925777059_);stroke:#000000;stroke-width:1.4331;stroke-miterlimit:10;}
	.st20{clip-path:url(#SVGID_00000015324481100460783810000007075014301785125518_);fill:#FFFFFF;}
	.st21{clip-path:url(#SVGID_00000067194148471524004020000013743928051949388929_);fill:#FFFFFF;}
	.st22{clip-path:url(#SVGID_00000069374059712885676080000009845622855993222835_);fill:#FFFFFF;}
	.st23{clip-path:url(#SVGID_00000058574667740354796360000002165591406066727325_);fill:#FFFFFF;}
	
		.st24{fill:url(#SVGID_00000000199035065273374630000004471486927182589349_);stroke:#000000;stroke-width:1.4331;stroke-miterlimit:10;}
	.st25{fill:#02F994;}
	.st26{fill:#FFAFA5;stroke:#000000;stroke-width:1.4331;stroke-miterlimit:10;}
	.st27{fill:#FFFFFF;}
	.st28{opacity:0.5;fill:#02F994;}
	
		.st29{fill:url(#SVGID_00000093158123849592361200000001228177515163025300_);stroke:#000000;stroke-width:1.4331;stroke-miterlimit:10;}
	.st30{clip-path:url(#SVGID_00000181787529510363905100000009439159866845533106_);fill:#FFFFFF;}
	.st31{fill:#C8C8C8;stroke:#000000;stroke-width:1.4331;stroke-miterlimit:10;}
	.st32{clip-path:url(#SVGID_00000170252220553034836300000018395317597085927089_);fill:#FFFFFF;}
	
		.st33{fill:url(#SVGID_00000098178570938227088640000007211034953678636197_);stroke:#000000;stroke-width:1.4331;stroke-miterlimit:10;}
	.st34{fill:#1D1D1B;}
	.st35{clip-path:url(#SVGID_00000163051016498848717730000005373084801348818344_);}
	.st36{fill:#FFAFA5;}
	.st37{clip-path:url(#SVGID_00000089542251565659749050000015781707319072755115_);}
	.st38{fill:#02F994;stroke:#000000;stroke-width:1.4331;stroke-miterlimit:10;}
	.st39{clip-path:url(#SVGID_00000051367336245076874170000016366666123345943682_);}
</style>
<g>
	<g>
		<g>
			<path class="st0" d="M320.3,311.2l-133.9-77.3c-7.1-4.1-15.9-4.5-23.2-0.6c-0.3,0.1-0.5,0.3-0.7,0.4L29.6,310.3
				c-8.4,4.9-8.4,17,0,21.9l132.8,76.7c7.8,4.5,17.5,4.5,25.3,0l132.8-76.7c0.2-0.1,0.4-0.2,0.6-0.4
				C328.6,327,328.1,315.7,320.3,311.2z"/>
		</g>
		<g>
			<g>
				<linearGradient id="SVGID_1_" gradientUnits="userSpaceOnUse" x1="152.4558" y1="398.4759" x2="152.4558" y2="302.9302">
					<stop  offset="0" style="stop-color:#02F994"/>
					<stop  offset="1" style="stop-color:#FFFFFF"/>
				</linearGradient>
				<path class="st1" d="M0.8,302.9v8.7c0,2.5,1.3,4.8,3.5,6.1L137,394.3c4.7,2.7,10,4.1,15.4,4.1s10.7-1.4,15.4-4.1l132.8-76.7
					c0,0,0,0,0,0c2.2-1.3,3.5-3.6,3.5-6.2v-8.6L0.8,302.9z"/>
				<path class="st2" d="M165.1,214.3L297.9,291c8.4,4.9,8.4,17,0,21.9l-132.8,76.7c-7.8,4.5-17.5,4.5-25.3,0L7,312.9
					c-8.4-4.9-8.4-17,0-21.9l132.8-76.7C147.6,209.8,157.3,209.8,165.1,214.3z"/>
				
					<linearGradient id="SVGID_00000131333657602434412480000002543397061503531960_" gradientUnits="userSpaceOnUse" x1="152.5427" y1="242.4065" x2="152.5427" y2="60.4347">
					<stop  offset="0" style="stop-color:#02F994"/>
					<stop  offset="1" style="stop-color:#FFFFFF"/>
				</linearGradient>
				
					<path style="fill:url(#SVGID_00000131333657602434412480000002543397061503531960_);stroke:#000000;stroke-width:1.4331;stroke-miterlimit:10;" d="
					M165.2,63.8L298,140.5c8.4,4.9,8.4,17,0,21.9L165.2,239c-7.8,4.5-17.5,4.5-25.3,0L7.1,162.4c-8.4-4.9-8.4-17,0-21.9l132.8-76.7
					C147.7,59.3,157.4,59.3,165.2,63.8z"/>
				<g>
					<g>
						<g>
							<path class="st4" d="M7,162.4c-4.2-2.4-6.3-6.7-6.3-11l0,0v149.5l0,0c-0.4,4.6,1.7,9.3,6.3,12l132.8,76.7
								c3.9,2.3,8.3,3.4,12.6,3.4V242.4c-4.4,0-8.7-1.1-12.6-3.4L7,162.4z"/>
							<g>
								<defs>
									<path id="SVGID_00000146486869768052642470000001094267465380548259_" d="M7,162.4c-4.2-2.4-6.3-6.7-6.3-11l0,0v149.5l0,0
										c-0.4,4.6,1.7,9.3,6.3,12l132.8,76.7c3.9,2.3,8.3,3.4,12.6,3.4V242.4c-4.4,0-8.7-1.1-12.6-3.4L7,162.4z"/>
								</defs>
								<clipPath id="SVGID_00000141432004123714516170000000609627233438172302_">
									<use xlink:href="#SVGID_00000146486869768052642470000001094267465380548259_"  style="overflow:visible;"/>
								</clipPath>
								
									<rect x="0.7" y="151.4" style="clip-path:url(#SVGID_00000141432004123714516170000000609627233438172302_);fill:#FFFFFF;" width="12.6" height="165.2"/>
								
									<rect x="133.5" y="231.6" style="clip-path:url(#SVGID_00000141432004123714516170000000609627233438172302_);fill:#FFFFFF;" width="12.6" height="161.3"/>
							</g>
							<g>
								<ellipse transform="matrix(0.8629 -0.5054 0.5054 0.8629 -174.0416 123.0896)" cx="139.8" cy="382.3" rx="1.3" ry="2.2"/>
							</g>
							<g>
								<ellipse transform="matrix(0.8629 -0.5054 0.5054 0.8629 -105.3237 104.4448)" cx="139.8" cy="246.3" rx="1.3" ry="2.2"/>
							</g>
							<g>
								<ellipse transform="matrix(0.8629 -0.5054 0.5054 0.8629 -84.7824 26.8228)" cx="7" cy="169.6" rx="1.3" ry="2.2"/>
								<polygon class="st6" points="13.4,180.6 0.7,173.3 0.7,158.7 13.4,166 								"/>
							</g>
							<polyline class="st7" points="13.4,166 13.4,185.2 24.5,204.4 24.5,291.1 13.4,297.4 13.4,316.6 							"/>
							<path class="st7" d="M7,162.4c-4.2-2.4-6.3-6.7-6.3-11l0,0v149.5l0,0c-0.4,4.6,1.7,9.3,6.3,12l132.8,76.7
								c3.9,2.3,8.3,3.4,12.6,3.4V242.4c-4.4,0-8.7-1.1-12.6-3.4L7,162.4z"/>
							<polyline class="st7" points="127.2,231.7 127.2,250.9 116,257.2 116,343.9 127.2,363.1 127.2,382.3 							"/>
						</g>
						<ellipse transform="matrix(0.8629 -0.5054 0.5054 0.8629 -153.4886 45.511)" cx="7.1" cy="305.6" rx="1.3" ry="2.2"/>
					</g>
					<g>
						<g>
							<path class="st8" d="M297.9,162.4c4.2-2.4,6.3-6.7,6.3-11l0,0v149.5l0,0c0.4,4.6-1.7,9.3-6.3,12l-132.8,76.7
								c-3.9,2.3-8.3,3.4-12.6,3.4V242.4c4.4,0,8.7-1.1,12.6-3.4L297.9,162.4z"/>
							<g>
								<defs>
									<path id="SVGID_00000038384459627874671490000008378109755543523234_" d="M297.9,162.4c4.2-2.4,6.3-6.7,6.3-11l0,0v149.5
										l0,0c0.4,4.6-1.7,9.3-6.3,12l-132.8,76.7c-3.9,2.3-8.3,3.4-12.6,3.4V242.4c4.4,0,8.7-1.1,12.6-3.4L297.9,162.4z"/>
								</defs>
								<clipPath id="SVGID_00000115480947370726328310000013930746785232837283_">
									<use xlink:href="#SVGID_00000038384459627874671490000008378109755543523234_"  style="overflow:visible;"/>
								</clipPath>
								
									<rect x="152.5" y="231.6" style="clip-path:url(#SVGID_00000115480947370726328310000013930746785232837283_);fill:#FFFFFF;" width="6.3" height="161.3"/>
							</g>
							<g>
								<polygon class="st6" points="291.6,180.6 304.2,173.3 304.2,158.7 291.6,166 								"/>
							</g>
							<polyline class="st7" points="291.6,166 291.6,185.2 280.4,204.4 280.4,291.1 291.6,297.4 291.6,316.6 							"/>
							<path class="st7" d="M297.9,162.4c4.2-2.4,6.3-6.7,6.3-11l0,0v149.5l0,0c0.4,4.6-1.7,9.3-6.3,12l-132.8,76.7
								c-3.9,2.3-8.3,3.4-12.6,3.4V242.4c4.4,0,8.7-1.1,12.6-3.4L297.9,162.4z"/>
							<polyline class="st7" points="177.7,231.7 177.7,250.9 188.9,257.2 188.9,343.9 177.7,363.1 177.7,382.3 							"/>
						</g>
					</g>
				</g>
				<g>
					<ellipse transform="matrix(0.5054 -0.8629 0.8629 0.5054 -130.8832 264.2771)" cx="165.1" cy="246.3" rx="2.2" ry="1.3"/>
				</g>
				<ellipse transform="matrix(0.5054 -0.8629 0.8629 0.5054 0.932 340.926)" cx="297.9" cy="169.6" rx="2.2" ry="1.3"/>
				<g>
					<g>
						<ellipse transform="matrix(0.5054 -0.8629 0.8629 0.5054 -248.1953 331.5161)" cx="165.1" cy="382.3" rx="2.2" ry="1.3"/>
					</g>
					<ellipse transform="matrix(0.5054 -0.8629 0.8629 0.5054 -116.3801 408.165)" cx="297.9" cy="305.6" rx="2.2" ry="1.3"/>
				</g>
				<g>
					<path class="st4" d="M214,329.5l-0.5,0.3c-1.8,1-3.2-0.1-3.2-2.5v-78c0-2.4,1.4-5.2,3.2-6.2l0.5-0.3c1.8-1,3.2,0.1,3.2,2.5v78
						C217.2,325.6,215.8,328.4,214,329.5z"/>
					<g>
						<defs>
							<path id="SVGID_00000016060487663958241960000011191850818706726027_" d="M214,329.5l-0.5,0.3c-1.8,1-3.2-0.1-3.2-2.5v-78
								c0-2.4,1.4-5.2,3.2-6.2l0.5-0.3c1.8-1,3.2,0.1,3.2,2.5v78C217.2,325.6,215.8,328.4,214,329.5z"/>
						</defs>
						<clipPath id="SVGID_00000131338355097737536180000005712137918832774313_">
							<use xlink:href="#SVGID_00000016060487663958241960000011191850818706726027_"  style="overflow:visible;"/>
						</clipPath>
						<polygon style="clip-path:url(#SVGID_00000131338355097737536180000005712137918832774313_);fill:#02F994;" points="
							217.2,327.6 210.2,331.6 210.2,288.3 217.2,284.2 						"/>
					</g>
					<path class="st4" d="M227.9,321.4l-0.5,0.3c-1.8,1-3.2-0.1-3.2-2.5v-78c0-2.4,1.4-5.2,3.2-6.2l0.5-0.3c1.8-1,3.2,0.1,3.2,2.5
						v78C231.2,317.6,229.7,320.3,227.9,321.4z"/>
					<g>
						<defs>
							<path id="SVGID_00000180326898851685728540000016172969283328658102_" d="M227.9,321.4l-0.5,0.3c-1.8,1-3.2-0.1-3.2-2.5v-78
								c0-2.4,1.4-5.2,3.2-6.2l0.5-0.3c1.8-1,3.2,0.1,3.2,2.5v78C231.2,317.6,229.7,320.3,227.9,321.4z"/>
						</defs>
						<clipPath id="SVGID_00000093870657051683726220000007330609920583369897_">
							<use xlink:href="#SVGID_00000180326898851685728540000016172969283328658102_"  style="overflow:visible;"/>
						</clipPath>
						<polygon style="clip-path:url(#SVGID_00000093870657051683726220000007330609920583369897_);fill:#02F994;" points="
							231.2,319.5 224.2,323.5 224.2,307.5 231.2,303.5 						"/>
					</g>
					<path class="st4" d="M241.9,313.3l-0.5,0.3c-1.8,1-3.2-0.1-3.2-2.5v-78c0-2.4,1.4-5.2,3.2-6.2l0.5-0.3c1.8-1,3.2,0.1,3.2,2.5
						v78C245.1,309.5,243.7,312.3,241.9,313.3z"/>
					<g>
						<defs>
							<path id="SVGID_00000027593925083787103380000006758858679133167264_" d="M241.9,313.3l-0.5,0.3c-1.8,1-3.2-0.1-3.2-2.5v-78
								c0-2.4,1.4-5.2,3.2-6.2l0.5-0.3c1.8-1,3.2,0.1,3.2,2.5v78C245.1,309.5,243.7,312.3,241.9,313.3z"/>
						</defs>
						<clipPath id="SVGID_00000170962893142844396380000006514686144491582353_">
							<use xlink:href="#SVGID_00000027593925083787103380000006758858679133167264_"  style="overflow:visible;"/>
						</clipPath>
						<polygon style="clip-path:url(#SVGID_00000170962893142844396380000006514686144491582353_);fill:#02F994;" points="
							245.1,311.4 238.1,315.5 238.1,244.8 245.1,240.8 						"/>
					</g>
					<path class="st4" d="M255.8,305.2l-0.5,0.3c-1.8,1-3.2-0.1-3.2-2.5v-78c0-2.4,1.4-5.2,3.2-6.2l0.5-0.3c1.8-1,3.2,0.1,3.2,2.5
						v78C259.1,301.4,257.6,304.2,255.8,305.2z"/>
					<g>
						<defs>
							<path id="SVGID_00000100362886479287608990000007187371866926677658_" d="M255.8,305.2l-0.5,0.3c-1.8,1-3.2-0.1-3.2-2.5v-78
								c0-2.4,1.4-5.2,3.2-6.2l0.5-0.3c1.8-1,3.2,0.1,3.2,2.5v78C259.1,301.4,257.6,304.2,255.8,305.2z"/>
						</defs>
						<clipPath id="SVGID_00000133508057090771999830000012662639945540258712_">
							<use xlink:href="#SVGID_00000100362886479287608990000007187371866926677658_"  style="overflow:visible;"/>
						</clipPath>
						<polygon style="clip-path:url(#SVGID_00000133508057090771999830000012662639945540258712_);fill:#02F994;" points="
							259.1,303.3 252.1,307.4 252.1,220.7 259.1,216.7 						"/>
					</g>
					<g>
						<path class="st14" d="M214,242.8l-0.5,0.3c-1.8,1-3.2,3.8-3.2,6.2v78c0,2.4,1.4,3.5,3.2,2.5l0.5-0.3c1.8-1,3.2-3.8,3.2-6.2
							v-78C217.2,242.8,215.8,241.7,214,242.8z"/>
						<path class="st14" d="M227.9,234.7l-0.5,0.3c-1.8,1-3.2,3.8-3.2,6.2v78c0,2.4,1.4,3.5,3.2,2.5l0.5-0.3c1.8-1,3.2-3.8,3.2-6.2
							v-78C231.2,234.8,229.7,233.7,227.9,234.7z"/>
						<path class="st14" d="M241.9,226.6l-0.5,0.3c-1.8,1-3.2,3.8-3.2,6.2v78c0,2.4,1.4,3.5,3.2,2.5l0.5-0.3c1.8-1,3.2-3.8,3.2-6.2
							v-78C245.1,226.7,243.7,225.6,241.9,226.6z"/>
						<path class="st14" d="M255.8,218.5l-0.5,0.3c-1.8,1-3.2,3.8-3.2,6.2v78c0,2.4,1.4,3.5,3.2,2.5l0.5-0.3c1.8-1,3.2-3.8,3.2-6.2
							v-78C259.1,218.6,257.6,217.5,255.8,218.5z"/>
					</g>
				</g>
				<g>
					<path class="st4" d="M91,329.5l0.5,0.3c1.8,1,3.2-0.1,3.2-2.5v-78c0-2.4-1.4-5.2-3.2-6.2l-0.5-0.3c-1.8-1-3.2,0.1-3.2,2.5v78
						C87.8,325.6,89.2,328.4,91,329.5z"/>
					<g>
						<defs>
							<path id="SVGID_00000054247664585345985200000007031653956329915527_" d="M91,329.5l0.5,0.3c1.8,1,3.2-0.1,3.2-2.5v-78
								c0-2.4-1.4-5.2-3.2-6.2l-0.5-0.3c-1.8-1-3.2,0.1-3.2,2.5v78C87.8,325.6,89.2,328.4,91,329.5z"/>
						</defs>
						<clipPath id="SVGID_00000150066081948218016030000011058741665115881103_">
							<use xlink:href="#SVGID_00000054247664585345985200000007031653956329915527_"  style="overflow:visible;"/>
						</clipPath>
						<polygon style="clip-path:url(#SVGID_00000150066081948218016030000011058741665115881103_);fill:#02F994;" points="
							87.8,327.6 94.8,331.6 94.8,288.3 87.8,284.2 						"/>
					</g>
					<path class="st4" d="M77.1,321.4l0.5,0.3c1.8,1,3.2-0.1,3.2-2.5v-78c0-2.4-1.4-5.2-3.2-6.2l-0.5-0.3c-1.8-1-3.2,0.1-3.2,2.5v78
						C73.8,317.6,75.3,320.3,77.1,321.4z"/>
					<g>
						<defs>
							<path id="SVGID_00000040551941541891616060000015982195021528189826_" d="M77.1,321.4l0.5,0.3c1.8,1,3.2-0.1,3.2-2.5v-78
								c0-2.4-1.4-5.2-3.2-6.2l-0.5-0.3c-1.8-1-3.2,0.1-3.2,2.5v78C73.8,317.6,75.3,320.3,77.1,321.4z"/>
						</defs>
						<clipPath id="SVGID_00000021801656715651906230000014200335150734688681_">
							<use xlink:href="#SVGID_00000040551941541891616060000015982195021528189826_"  style="overflow:visible;"/>
						</clipPath>
						<polygon style="clip-path:url(#SVGID_00000021801656715651906230000014200335150734688681_);fill:#02F994;" points="
							73.8,319.5 80.8,323.5 80.8,307.5 73.8,303.5 						"/>
					</g>
					<path class="st4" d="M63.1,313.3l0.5,0.3c1.8,1,3.2-0.1,3.2-2.5v-78c0-2.4-1.4-5.2-3.2-6.2l-0.5-0.3c-1.8-1-3.2,0.1-3.2,2.5v78
						C59.9,309.5,61.3,312.3,63.1,313.3z"/>
					<g>
						<defs>
							<path id="SVGID_00000067933445240839747430000013317326599892834227_" d="M63.1,313.3l0.5,0.3c1.8,1,3.2-0.1,3.2-2.5v-78
								c0-2.4-1.4-5.2-3.2-6.2l-0.5-0.3c-1.8-1-3.2,0.1-3.2,2.5v78C59.9,309.5,61.3,312.3,63.1,313.3z"/>
						</defs>
						<clipPath id="SVGID_00000064333964097972416430000002030632296967712395_">
							<use xlink:href="#SVGID_00000067933445240839747430000013317326599892834227_"  style="overflow:visible;"/>
						</clipPath>
						<polygon style="clip-path:url(#SVGID_00000064333964097972416430000002030632296967712395_);fill:#02F994;" points="
							59.9,311.4 66.9,315.5 66.9,244.8 59.9,240.8 						"/>
					</g>
					<path class="st4" d="M49.2,305.2l0.5,0.3c1.8,1,3.2-0.1,3.2-2.5v-78c0-2.4-1.4-5.2-3.2-6.2l-0.5-0.3c-1.8-1-3.2,0.1-3.2,2.5v78
						C45.9,301.4,47.4,304.2,49.2,305.2z"/>
					<g>
						<defs>
							<path id="SVGID_00000007399548498500600370000001591998027498559418_" d="M49.2,305.2l0.5,0.3c1.8,1,3.2-0.1,3.2-2.5v-78
								c0-2.4-1.4-5.2-3.2-6.2l-0.5-0.3c-1.8-1-3.2,0.1-3.2,2.5v78C45.9,301.4,47.4,304.2,49.2,305.2z"/>
						</defs>
						<clipPath id="SVGID_00000068677112434331333200000011035244997482832568_">
							<use xlink:href="#SVGID_00000007399548498500600370000001591998027498559418_"  style="overflow:visible;"/>
						</clipPath>
						<polygon style="clip-path:url(#SVGID_00000068677112434331333200000011035244997482832568_);fill:#02F994;" points="
							45.9,303.3 52.9,307.4 52.9,220.7 45.9,216.7 						"/>
					</g>
					<g>
						<path class="st14" d="M91,242.8l0.5,0.3c1.8,1,3.2,3.8,3.2,6.2v78c0,2.4-1.4,3.5-3.2,2.5l-0.5-0.3c-1.8-1-3.2-3.8-3.2-6.2v-78
							C87.8,242.8,89.2,241.7,91,242.8z"/>
						<path class="st14" d="M77.1,234.7l0.5,0.3c1.8,1,3.2,3.8,3.2,6.2v78c0,2.4-1.4,3.5-3.2,2.5l-0.5-0.3c-1.8-1-3.2-3.8-3.2-6.2
							v-78C73.8,234.8,75.3,233.7,77.1,234.7z"/>
						<path class="st14" d="M63.1,226.6l0.5,0.3c1.8,1,3.2,3.8,3.2,6.2v78c0,2.4-1.4,3.5-3.2,2.5l-0.5-0.3c-1.8-1-3.2-3.8-3.2-6.2
							v-78C59.9,226.7,61.3,225.6,63.1,226.6z"/>
						<path class="st14" d="M49.2,218.5l0.5,0.3c1.8,1,3.2,3.8,3.2,6.2v78c0,2.4-1.4,3.5-3.2,2.5l-0.5-0.3c-1.8-1-3.2-3.8-3.2-6.2
							v-78C45.9,218.6,47.4,217.5,49.2,218.5z"/>
					</g>
				</g>
			</g>
			<g>
				<path class="st2" d="M159.3,104.1l71.7,41.4c4.6,2.6,4.6,9.2,0,11.8l-71.7,41.4c-4.2,2.4-9.4,2.4-13.7,0l-71.7-41.4
					c-4.6-2.6-4.6-9.2,0-11.8l71.7-41.4C149.9,101.6,155.1,101.6,159.3,104.1z"/>
				
					<linearGradient id="SVGID_00000017499095551084133350000000516444648637911685_" gradientUnits="userSpaceOnUse" x1="152.5225" y1="119.246" x2="152.5225" y2="20.9242">
					<stop  offset="0" style="stop-color:#02F994"/>
					<stop  offset="1" style="stop-color:#FFFFFF"/>
				</linearGradient>
				
					<path style="fill:url(#SVGID_00000017499095551084133350000000516444648637911685_);stroke:#000000;stroke-width:1.4331;stroke-miterlimit:10;" d="
					M159.4,22.8l71.7,41.4c4.6,2.6,4.6,9.2,0,11.8l-71.7,41.4c-4.2,2.4-9.4,2.4-13.7,0L74,76c-4.6-2.6-4.6-9.2,0-11.8l71.7-41.4
					C149.9,20.3,155.1,20.3,159.4,22.8z"/>
				<g>
					<g>
						<g>
							<path class="st4" d="M73.9,76c-2.3-1.3-3.4-3.6-3.4-5.9l0,0v80.8l0,0c-0.2,2.5,0.9,5,3.4,6.5l71.7,41.4
								c2.1,1.2,4.5,1.8,6.8,1.8v-81.3c-2.4,0-4.7-0.6-6.8-1.8L73.9,76z"/>
							<g>
								<defs>
									<path id="SVGID_00000002384417927998572030000000635799261195497631_" d="M73.9,76c-2.3-1.3-3.4-3.6-3.4-5.9l0,0v80.8l0,0
										c-0.2,2.5,0.9,5,3.4,6.5l71.7,41.4c2.1,1.2,4.5,1.8,6.8,1.8v-81.3c-2.4,0-4.7-0.6-6.8-1.8L73.9,76z"/>
								</defs>
								<clipPath id="SVGID_00000112612773431644008630000011085769251232846997_">
									<use xlink:href="#SVGID_00000002384417927998572030000000635799261195497631_"  style="overflow:visible;"/>
								</clipPath>
								
									<rect x="70.5" y="70.1" style="clip-path:url(#SVGID_00000112612773431644008630000011085769251232846997_);fill:#FFFFFF;" width="6.8" height="89.2"/>
								
									<rect x="142.2" y="113.4" style="clip-path:url(#SVGID_00000112612773431644008630000011085769251232846997_);fill:#FFFFFF;" width="6.8" height="87.2"/>
							</g>
							<g>
								<ellipse transform="matrix(0.8629 -0.5054 0.5054 0.8629 -78.4949 100.3305)" cx="145.6" cy="194.8" rx="0.7" ry="1.2"/>
							</g>
							<g>
								<ellipse transform="matrix(0.8629 -0.5054 0.5054 0.8629 -41.3657 90.2564)" cx="145.6" cy="121.4" rx="0.7" ry="1.2"/>
							</g>
							<g>
								<ellipse transform="matrix(0.8629 -0.5054 0.5054 0.8629 -30.267 48.3163)" cx="73.9" cy="79.9" rx="0.7" ry="1.2"/>
								<polygon class="st6" points="77.3,85.8 70.5,81.9 70.5,74 77.3,78 								"/>
							</g>
							<polyline class="st7" points="77.3,78 77.3,88.3 83.3,98.7 83.3,145.5 77.3,149 77.3,159.3 							"/>
							<path class="st7" d="M73.9,76c-2.3-1.3-3.4-3.6-3.4-5.9l0,0v80.8l0,0c-0.2,2.5,0.9,5,3.4,6.5l71.7,41.4
								c2.1,1.2,4.5,1.8,6.8,1.8v-81.3c-2.4,0-4.7-0.6-6.8-1.8L73.9,76z"/>
							<polyline class="st7" points="138.8,113.5 138.8,123.8 132.8,127.3 132.8,174.1 138.8,184.5 138.8,194.8 							"/>
						</g>
						<ellipse transform="matrix(0.8629 -0.5054 0.5054 0.8629 -67.3898 58.4138)" cx="74" cy="153.4" rx="0.7" ry="1.2"/>
					</g>
					<g>
						<g>
							<path class="st8" d="M231,76c2.3-1.3,3.4-3.6,3.4-5.9l0,0v80.8l0,0c0.2,2.5-0.9,5-3.4,6.5l-71.7,41.4
								c-2.1,1.2-4.5,1.8-6.8,1.8v-81.3c2.4,0,4.7-0.6,6.8-1.8L231,76z"/>
							<g>
								<defs>
									<path id="SVGID_00000163061204991978778510000005252412278737250457_" d="M231,76c2.3-1.3,3.4-3.6,3.4-5.9l0,0v80.8l0,0
										c0.2,2.5-0.9,5-3.4,6.5l-71.7,41.4c-2.1,1.2-4.5,1.8-6.8,1.8v-81.3c2.4,0,4.7-0.6,6.8-1.8L231,76z"/>
								</defs>
								<clipPath id="SVGID_00000088091480188988110630000011532862532120681600_">
									<use xlink:href="#SVGID_00000163061204991978778510000005252412278737250457_"  style="overflow:visible;"/>
								</clipPath>
								
									<rect x="152.5" y="113.4" style="clip-path:url(#SVGID_00000088091480188988110630000011532862532120681600_);fill:#FFFFFF;" width="3.4" height="87.2"/>
							</g>
							<g>
								<polygon class="st6" points="227.6,85.8 234.5,81.9 234.5,74 227.6,78 								"/>
							</g>
							<polyline class="st7" points="227.6,78 227.6,88.3 221.6,98.7 221.6,145.5 227.6,149 227.6,159.3 							"/>
							<path class="st7" d="M231,76c2.3-1.3,3.4-3.6,3.4-5.9l0,0v80.8l0,0c0.2,2.5-0.9,5-3.4,6.5l-71.7,41.4
								c-2.1,1.2-4.5,1.8-6.8,1.8v-81.3c2.4,0,4.7-0.6,6.8-1.8L231,76z"/>
							<polyline class="st7" points="166.1,113.5 166.1,123.8 172.2,127.3 172.2,174.1 166.1,184.5 166.1,194.8 							"/>
						</g>
					</g>
				</g>
				<g>
					<ellipse transform="matrix(0.5054 -0.8629 0.8629 0.5054 -25.9275 197.4795)" cx="159.3" cy="121.4" rx="1.2" ry="0.7"/>
				</g>
				<ellipse transform="matrix(0.5054 -0.8629 0.8629 0.5054 45.294 238.8939)" cx="231" cy="79.9" rx="1.2" ry="0.7"/>
				<g>
					<g>
						<ellipse transform="matrix(0.5054 -0.8629 0.8629 0.5054 -89.3127 233.8096)" cx="159.3" cy="194.8" rx="1.2" ry="0.7"/>
					</g>
					<ellipse transform="matrix(0.5054 -0.8629 0.8629 0.5054 -18.0912 275.2241)" cx="231" cy="153.4" rx="1.2" ry="0.7"/>
				</g>
			</g>
			<g>
				<path class="st2" d="M156.1,44.9l38.1,22c2.4,1.4,2.4,4.9,0,6.3l-38.1,22c-2.2,1.3-5,1.3-7.3,0l-38.1-22c-2.4-1.4-2.4-4.9,0-6.3
					l38.1-22C151.1,43.6,153.8,43.6,156.1,44.9z"/>
				<g>
					<g>
						<g>
							<path class="st4" d="M110.7,30c-1.2-0.7-1.8-1.9-1.8-3.1l0,0v42.9l0,0c-0.1,1.3,0.5,2.7,1.8,3.4l38.1,22c1.1,0.6,2.4,1,3.6,1
								V53c-1.3,0-2.5-0.3-3.6-1L110.7,30z"/>
							<g>
								<defs>
									<path id="SVGID_00000015322508462186320800000002149961375212429710_" d="M110.7,30c-1.2-0.7-1.8-1.9-1.8-3.1l0,0v42.9l0,0
										c-0.1,1.3,0.5,2.7,1.8,3.4l38.1,22c1.1,0.6,2.4,1,3.6,1V53c-1.3,0-2.5-0.3-3.6-1L110.7,30z"/>
								</defs>
								<clipPath id="SVGID_00000093163019092251292350000017275652049784214454_">
									<use xlink:href="#SVGID_00000015322508462186320800000002149961375212429710_"  style="overflow:visible;"/>
								</clipPath>
								
									<rect x="108.9" y="26.8" style="clip-path:url(#SVGID_00000093163019092251292350000017275652049784214454_);fill:#FFFFFF;" width="3.6" height="47.4"/>
								
									<rect x="147" y="49.9" style="clip-path:url(#SVGID_00000093163019092251292350000017275652049784214454_);fill:#FFFFFF;" width="3.6" height="46.3"/>
							</g>
							<g>
								<ellipse transform="matrix(0.8629 -0.5054 0.5054 0.8629 -26.6687 87.9884)" cx="148.8" cy="93.1" rx="0.4" ry="0.6"/>
							</g>
							<g>
								<ellipse transform="matrix(0.8629 -0.5054 0.5054 0.8629 -6.9347 82.6341)" cx="148.8" cy="54.1" rx="0.4" ry="0.6"/>
							</g>
							<g>
								<ellipse transform="matrix(0.8629 -0.5054 0.5054 0.8629 -1.0358 60.3431)" cx="110.7" cy="32.1" rx="0.4" ry="0.6"/>
								<polygon class="st6" points="112.5,35.2 108.9,33.1 108.9,28.9 112.5,31 								"/>
							</g>
							<polyline class="st7" points="112.5,31 112.5,36.5 115.7,42.1 115.7,66.9 112.5,68.8 112.5,74.3 							"/>
							<path class="st7" d="M110.7,30c-1.2-0.7-1.8-1.9-1.8-3.1l0,0v42.9l0,0c-0.1,1.3,0.5,2.7,1.8,3.4l38.1,22c1.1,0.6,2.4,1,3.6,1
								V53c-1.3,0-2.5-0.3-3.6-1L110.7,30z"/>
							<polyline class="st7" points="145.2,49.9 145.2,55.4 142,57.2 142,82.1 145.2,87.6 145.2,93.1 							"/>
						</g>
						<ellipse transform="matrix(0.8629 -0.5054 0.5054 0.8629 -20.7664 65.7098)" cx="110.7" cy="71.1" rx="0.4" ry="0.6"/>
					</g>
					<g>
						<g>
							<path class="st8" d="M194.2,30c1.2-0.7,1.8-1.9,1.8-3.1l0,0v42.9l0,0c0.1,1.3-0.5,2.7-1.8,3.4l-38.1,22c-1.1,0.6-2.4,1-3.6,1
								V53c1.3,0,2.5-0.3,3.6-1L194.2,30z"/>
							<g>
								<defs>
									<path id="SVGID_00000072262414881339967480000014159927018905496986_" d="M194.2,30c1.2-0.7,1.8-1.9,1.8-3.1l0,0v42.9l0,0
										c0.1,1.3-0.5,2.7-1.8,3.4l-38.1,22c-1.1,0.6-2.4,1-3.6,1V53c1.3,0,2.5-0.3,3.6-1L194.2,30z"/>
								</defs>
								<clipPath id="SVGID_00000038390340597841045400000003646937003489175197_">
									<use xlink:href="#SVGID_00000072262414881339967480000014159927018905496986_"  style="overflow:visible;"/>
								</clipPath>
								
									<rect x="152.4" y="49.9" style="clip-path:url(#SVGID_00000038390340597841045400000003646937003489175197_);fill:#FFFFFF;" width="1.8" height="46.3"/>
							</g>
							<g>
								<polygon class="st6" points="192.4,35.2 196,33.1 196,28.9 192.4,31 								"/>
							</g>
							<polyline class="st7" points="192.4,31 192.4,36.5 189.2,42.1 189.2,66.9 192.4,68.8 192.4,74.3 							"/>
							<path class="st7" d="M194.2,30c1.2-0.7,1.8-1.9,1.8-3.1l0,0v42.9l0,0c0.1,1.3-0.5,2.7-1.8,3.4l-38.1,22c-1.1,0.6-2.4,1-3.6,1
								V53c1.3,0,2.5-0.3,3.6-1L194.2,30z"/>
							<polyline class="st7" points="159.7,49.9 159.7,55.4 162.9,57.2 162.9,82.1 159.7,87.6 159.7,93.1 							"/>
						</g>
					</g>
				</g>
				<g>
					<ellipse transform="matrix(0.5054 -0.8629 0.8629 0.5054 30.5108 161.4251)" cx="156.1" cy="54.1" rx="0.6" ry="0.4"/>
				</g>
				<ellipse transform="matrix(0.5054 -0.8629 0.8629 0.5054 68.3647 183.4366)" cx="194.2" cy="32.1" rx="0.6" ry="0.4"/>
				<g>
					<g>
						<ellipse transform="matrix(0.5054 -0.8629 0.8629 0.5054 -3.1782 180.7344)" cx="156.1" cy="93.1" rx="0.6" ry="0.4"/>
					</g>
					<ellipse transform="matrix(0.5054 -0.8629 0.8629 0.5054 34.6757 202.7459)" cx="194.2" cy="71.1" rx="0.6" ry="0.4"/>
				</g>
				
					<linearGradient id="SVGID_00000150784624135449987150000001372714529134616711_" gradientUnits="userSpaceOnUse" x1="152.4684" y1="52.9741" x2="152.4684" y2="0.7165">
					<stop  offset="0" style="stop-color:#02F994"/>
					<stop  offset="1" style="stop-color:#FFFFFF"/>
				</linearGradient>
				
					<path style="fill:url(#SVGID_00000150784624135449987150000001372714529134616711_);stroke:#000000;stroke-width:1.4331;stroke-miterlimit:10;" d="
					M156.1,1.7l38.1,22c2.4,1.4,2.4,4.9,0,6.3l-38.1,22c-2.2,1.3-5,1.3-7.3,0l-38.1-22c-2.4-1.4-2.4-4.9,0-6.3l38.1-22
					C151.1,0.4,153.9,0.4,156.1,1.7z"/>
			</g>
		</g>
	</g>
</g>
</svg>
