<?xml version="1.0" encoding="utf-8"?>
<!-- Generator: Adobe Illustrator 25.4.1, SVG Export Plug-In . SVG Version: 6.00 Build 0)  -->
<svg version="1.1" id="Capa_1" xmlns="http://www.w3.org/2000/svg" xmlns:xlink="http://www.w3.org/1999/xlink" x="0px" y="0px"
	 viewBox="0 0 290.7 465.5" style="enable-background:new 0 0 290.7 465.5;" xml:space="preserve">
<style type="text/css">
	.st0{stroke:#000000;stroke-width:1.4331;stroke-miterlimit:10;}
	.st1{fill:url(#SVGID_1_);stroke:#000000;stroke-width:1.4331;stroke-miterlimit:10;}
	.st2{fill:#EEEEEE;stroke:#000000;stroke-width:1.4331;stroke-miterlimit:10;}
	
		.st3{fill:url(#SVGID_00000162351792374207392950000004604359312210805898_);stroke:#000000;stroke-width:1.4331;stroke-miterlimit:10;}
	.st4{fill:#EEEEEE;}
	.st5{clip-path:url(#SVGID_00000039112346234548571290000016546150369912557714_);fill:#FFFFFF;}
	.st6{fill:none;}
	.st7{fill:none;stroke:#000000;stroke-width:1.4331;stroke-miterlimit:10;}
	.st8{fill:#C8C8C8;}
	.st9{clip-path:url(#SVGID_00000085929995451579757800000005168336636583929505_);fill:#FFFFFF;}
	.st10{clip-path:url(#SVGID_00000176033058569667376240000011222412190242321841_);fill:#02F994;}
	.st11{clip-path:url(#SVGID_00000026883640032067769760000015697738622630806458_);fill:#02F994;}
	.st12{clip-path:url(#SVGID_00000012438847124091008520000007241966810421934268_);fill:#02F994;}
	.st13{clip-path:url(#SVGID_00000079476146054071698250000007636047425586500785_);fill:#02F994;}
	.st14{fill:none;stroke:#1D1D1B;stroke-width:1.4331;stroke-miterlimit:10;}
	.st15{clip-path:url(#SVGID_00000070115136502888325060000017944397609846002819_);fill:#02F994;}
	.st16{clip-path:url(#SVGID_00000001665512636826843420000018318933891137611402_);fill:#02F994;}
	.st17{clip-path:url(#SVGID_00000116915659676354576670000014734867962267474078_);fill:#02F994;}
	.st18{clip-path:url(#SVGID_00000085961475710046011140000017380129036614599056_);fill:#02F994;}
	
		.st19{fill:url(#SVGID_00000090975378118271111970000008962243219014245523_);stroke:#000000;stroke-width:1.4331;stroke-miterlimit:10;}
	.st20{clip-path:url(#SVGID_00000092449917935552568980000008075922901998362006_);fill:#FFFFFF;}
	.st21{clip-path:url(#SVGID_00000089549656409102338140000015294097388001436548_);fill:#FFFFFF;}
	.st22{clip-path:url(#SVGID_00000008830172337667962310000002796676259380900239_);fill:#FFFFFF;}
	.st23{clip-path:url(#SVGID_00000118369195565507690730000014565257908346111624_);fill:#FFFFFF;}
	
		.st24{fill:url(#SVGID_00000178889485775492454350000000734816799018315428_);stroke:#000000;stroke-width:1.4331;stroke-miterlimit:10;}
	.st25{fill:#02F994;}
	.st26{fill:#FFAFA5;stroke:#000000;stroke-width:1.4331;stroke-miterlimit:10;}
	.st27{fill:#FFFFFF;}
	.st28{opacity:0.5;fill:#02F994;}
	
		.st29{fill:url(#SVGID_00000090283176059305437700000000177983334978311099_);stroke:#000000;stroke-width:1.4331;stroke-miterlimit:10;}
	.st30{clip-path:url(#SVGID_00000112633452505634968050000005991675799605359256_);fill:#FFFFFF;}
	.st31{fill:#C8C8C8;stroke:#000000;stroke-width:1.4331;stroke-miterlimit:10;}
	.st32{clip-path:url(#SVGID_00000096030467270287239340000014006261106443878822_);fill:#FFFFFF;}
	
		.st33{fill:url(#SVGID_00000103949423105453876670000004437326441091360191_);stroke:#000000;stroke-width:1.4331;stroke-miterlimit:10;}
	.st34{fill:#1D1D1B;}
	.st35{clip-path:url(#SVGID_00000178199085692090812000000015156021174060399006_);}
	.st36{fill:#FFAFA5;}
	.st37{clip-path:url(#SVGID_00000103251704931862069760000000472956681023191464_);}
	.st38{fill:#02F994;stroke:#000000;stroke-width:1.4331;stroke-miterlimit:10;}
	.st39{clip-path:url(#SVGID_00000078750711675935702610000000976268077782363835_);}
</style>
<g>
	<g>
		<g>
			<g>
				<path class="st0" d="M284.5,374l-120.3-69.5c-6.4-3.7-14.3-4-20.9-0.5c-0.2,0.1-0.4,0.2-0.7,0.4L23.4,373.2
					c-7.6,4.4-7.6,15.3,0,19.7l119.2,68.8c7,4.1,15.7,4.1,22.7,0l119.2-68.8c0.2-0.1,0.3-0.2,0.5-0.3
					C292,388.2,291.5,378.1,284.5,374z"/>
			</g>
			<linearGradient id="SVGID_1_" gradientUnits="userSpaceOnUse" x1="136.9962" y1="454.1929" x2="136.9962" y2="368.3816">
				<stop  offset="0" style="stop-color:#02F994"/>
				<stop  offset="1" style="stop-color:#FFFFFF"/>
			</linearGradient>
			<path class="st1" d="M0.8,368.4v7.8c0,2.3,1.2,4.3,3.2,5.5l119.2,68.8c4.2,2.4,9,3.7,13.8,3.7c4.9,0,9.6-1.3,13.8-3.7l119.2-68.8
				c0,0,0,0,0,0c2-1.1,3.1-3.3,3.1-5.5v-7.7L0.8,368.4z"/>
			<path class="st2" d="M148.4,288.8l119.2,68.8c7.6,4.4,7.6,15.3,0,19.7l-119.2,68.8c-7,4.1-15.7,4.1-22.7,0L6.4,377.3
				c-7.6-4.4-7.6-15.3,0-19.7l119.2-68.8C132.7,284.8,141.3,284.8,148.4,288.8z"/>
			<path class="st4" d="M148.4,242.5l119.2,68.8c7.6,4.4,7.6,15.3,0,19.7l-119.2,68.8c-7,4.1-15.7,4.1-22.7,0L6.5,331.1
				c-7.6-4.4-7.6-15.3,0-19.7l119.2-68.8C132.7,238.5,141.4,238.5,148.4,242.5z"/>
			<g>
				<g>
					<path class="st4" d="M6.4,331c-3.8-2.2-5.7-6-5.7-9.8l0,0v45.4l0,0c-0.3,4.1,1.6,8.4,5.6,10.8l119.2,68.8c3.5,2,7.4,3,11.4,3
						v-46.3c-3.9,0-7.8-1-11.4-3L6.4,331z"/>
					<g>
						<defs>
							<path id="SVGID_00000130606963336173363230000014360300779722181517_" d="M6.4,331c-3.8-2.2-5.7-6-5.7-9.8l0,0v45.4l0,0
								c-0.3,4.1,1.6,8.4,5.6,10.8l119.2,68.8c3.5,2,7.4,3,11.4,3v-46.3c-3.9,0-7.8-1-11.4-3L6.4,331z"/>
						</defs>
						<clipPath id="SVGID_00000057116209126869757760000007449585147079209918_">
							<use xlink:href="#SVGID_00000130606963336173363230000014360300779722181517_"  style="overflow:visible;"/>
						</clipPath>
						
							<rect x="0.7" y="321.2" style="clip-path:url(#SVGID_00000057116209126869757760000007449585147079209918_);fill:#FFFFFF;" width="11.4" height="59.5"/>
						
							<rect x="120" y="393.2" style="clip-path:url(#SVGID_00000057116209126869757760000007449585147079209918_);fill:#FFFFFF;" width="11.4" height="56"/>
					</g>
					<polyline class="st7" points="12.1,334.3 12.1,340.2 22.1,357.4 22.1,369.1 12.1,374.8 12.1,380.6 					"/>
					<path class="st7" d="M6.4,331c-3.8-2.2-5.7-6-5.7-9.8l0,0v45.4l0,0c-0.3,4.1,1.6,8.4,5.6,10.8l119.2,68.8c3.5,2,7.4,3,11.4,3
						v-46.3c-3.9,0-7.8-1-11.4-3L6.4,331z"/>
					<polyline class="st7" points="114.3,393.3 114.3,399.2 104.3,404.9 104.3,416.5 114.3,433.8 114.3,439.6 					"/>
					<g>
						<g>
							<ellipse transform="matrix(0.8629 -0.5054 0.5054 0.8629 -188.1959 119.24)" cx="125.6" cy="406.4" rx="1.2" ry="2"/>
						</g>
						<g>
							<ellipse transform="matrix(0.8629 -0.5054 0.5054 0.8629 -169.7474 49.5263)" cx="6.4" cy="337.6" rx="1.2" ry="2"/>
						</g>
						<g>
							<ellipse transform="matrix(0.8629 -0.5054 0.5054 0.8629 -204.981 123.7942)" cx="125.6" cy="439.6" rx="1.2" ry="2"/>
						</g>
						<g>
							<ellipse transform="matrix(0.8629 -0.5054 0.5054 0.8629 -186.5325 54.0805)" cx="6.4" cy="370.8" rx="1.2" ry="2"/>
						</g>
					</g>
				</g>
			</g>
			<g>
				<g>
					<path class="st31" d="M267.6,331c3.8-2.2,5.7-6,5.7-9.8l0,0v45.4l0,0c0.3,4.1-1.6,8.4-5.6,10.8l-119.2,68.8
						c-3.5,2-7.4,3-11.4,3v-46.3c3.9,0,7.8-1,11.4-3L267.6,331z"/>
					<g>
						<defs>
							<path id="SVGID_00000176014212947683154450000008356889287059661462_" d="M267.6,331c3.8-2.2,5.7-6,5.7-9.8l0,0v45.4l0,0
								c0.3,4.1-1.6,8.4-5.6,10.8l-119.2,68.8c-3.5,2-7.4,3-11.4,3v-46.3c3.9,0,7.8-1,11.4-3L267.6,331z"/>
						</defs>
						<clipPath id="SVGID_00000160904128226670850360000017327380205346672268_">
							<use xlink:href="#SVGID_00000176014212947683154450000008356889287059661462_"  style="overflow:visible;"/>
						</clipPath>
						
							<rect x="137" y="393.2" style="clip-path:url(#SVGID_00000160904128226670850360000017327380205346672268_);fill:#FFFFFF;" width="5.7" height="56"/>
					</g>
					<polyline class="st7" points="261.9,334.3 261.9,340.2 251.9,357.4 251.9,369.1 261.9,374.8 261.9,380.6 					"/>
					<path class="st7" d="M267.6,331c3.8-2.2,5.7-6,5.7-9.8l0,0v45.4l0,0c0.3,4.1-1.6,8.4-5.6,10.8l-119.2,68.8c-3.5,2-7.4,3-11.4,3
						v-46.3c3.9,0,7.8-1,11.4-3L267.6,331z"/>
					<polyline class="st7" points="159.7,393.3 159.7,399.2 169.7,404.9 169.7,416.5 159.7,433.8 159.7,439.6 					"/>
					<g>
						<g>
							<ellipse transform="matrix(0.5054 -0.8629 0.8629 0.5054 -277.324 329.013)" cx="148.4" cy="406.4" rx="2" ry="1.2"/>
						</g>
						<g>
							<ellipse transform="matrix(0.5054 -0.8629 0.8629 0.5054 -158.9385 397.8528)" cx="267.6" cy="337.6" rx="2" ry="1.2"/>
						</g>
						<g>
							<ellipse transform="matrix(0.5054 -0.8629 0.8629 0.5054 -305.9788 345.4369)" cx="148.4" cy="439.6" rx="2" ry="1.2"/>
						</g>
						<g>
							<ellipse transform="matrix(0.5054 -0.8629 0.8629 0.5054 -187.5933 414.2766)" cx="267.6" cy="370.8" rx="2" ry="1.2"/>
						</g>
					</g>
				</g>
			</g>
			
				<linearGradient id="SVGID_00000034791772567471981060000009717556160751795336_" gradientUnits="userSpaceOnUse" x1="136.9962" y1="402.9178" x2="136.9962" y2="239.457">
				<stop  offset="0" style="stop-color:#02F994"/>
				<stop  offset="1" style="stop-color:#FFFFFF"/>
			</linearGradient>
			
				<path style="fill:url(#SVGID_00000034791772567471981060000009717556160751795336_);stroke:#000000;stroke-width:1.4331;stroke-miterlimit:10;" d="
				M137,244.4c3.1,0,6.2,0.8,8.9,2.4l119.2,68.8c2.9,1.7,3.2,4.4,3.2,5.5c0,1.1-0.3,3.9-3.2,5.5l-119.2,68.8
				c-2.7,1.6-5.8,2.4-8.9,2.4c-3.1,0-6.2-0.8-8.9-2.4L8.9,326.7c-2.9-1.7-3.2-4.4-3.2-5.5c0-1.1,0.3-3.9,3.2-5.5l119.2-68.8
				C130.8,245.2,133.9,244.4,137,244.4 M137,239.5c-3.9,0-7.8,1-11.4,3L6.4,311.3c-7.6,4.4-7.6,15.3,0,19.7l119.2,68.8
				c3.5,2,7.4,3,11.4,3s7.8-1,11.4-3L267.6,331c7.6-4.4,7.6-15.3,0-19.7l-119.2-68.8C144.8,240.5,140.9,239.5,137,239.5L137,239.5z"
				/>
		</g>
		<path class="st0" d="M195,296.2L91.3,356c-1.7,1-3.7,1-5.4,0l-6.9-4c-2.2-1.3-2.2-4.5,0-5.8l103.6-59.8c1.7-1,3.7-1,5.4,0l6.9,4
			C197.2,291.6,197.2,294.9,195,296.2z"/>
		<path class="st34" d="M190.6,232.9c0.5-0.4,1-0.8,1.5-1.2C191.6,232.1,191.1,232.5,190.6,232.9z M192.3,231.6
			c0.4-0.4,0.9-0.8,1.3-1.2C193.1,230.8,192.7,231.2,192.3,231.6z M193.8,230.2c0.4-0.4,0.7-0.8,1.1-1.2
			C194.5,229.4,194.2,229.8,193.8,230.2z M195.2,228.7c0.3-0.4,0.6-0.8,0.9-1.2C195.8,227.9,195.5,228.3,195.2,228.7z"/>
		<g>
			<g>
				<g>
					<defs>
						<path id="SVGID_00000155864507664269761680000001121288213246408631_" d="M196.6,227.5c-1.5,2.3-3.5,4.3-6,6.1
							c-18.3,13-55.7,5.3-83.6-17.2c-23.4-18.9-32.7-42.3-24.1-56.9l-6.9,12c-7.3,14.7,2,37.3,24.8,55.7
							c27.9,22.5,65.3,30.2,83.6,17.2c3-2.1,5.2-4.6,6.9-7.5l0,0L196.6,227.5z"/>
					</defs>
					<clipPath id="SVGID_00000104692691788004254300000004425333003563803288_">
						<use xlink:href="#SVGID_00000155864507664269761680000001121288213246408631_"  style="overflow:visible;"/>
					</clipPath>
					<g style="clip-path:url(#SVGID_00000104692691788004254300000004425333003563803288_);">
						<path class="st36" d="M196.6,227.5c-1.5,2.3-3.5,4.3-6,6.1c-18.3,13-55.7,5.3-83.6-17.2c-23.4-18.9-32.7-42.3-24.1-56.9
							l-6.9,12c-7.3,14.7,2,37.3,24.8,55.7c27.9,22.5,65.3,30.2,83.6,17.2c3-2.1,5.2-4.6,6.9-7.5l0,0L196.6,227.5z"/>
						<line class="st7" x1="83.4" y1="158.5" x2="26.8" y2="256.6"/>
						<line class="st7" x1="94.4" y1="158.5" x2="37.8" y2="256.6"/>
						<line class="st7" x1="105.3" y1="158.5" x2="48.7" y2="256.6"/>
						<line class="st7" x1="116.2" y1="158.5" x2="59.6" y2="256.6"/>
						<line class="st7" x1="127.1" y1="158.5" x2="70.6" y2="256.6"/>
						<line class="st7" x1="138.1" y1="158.5" x2="81.5" y2="256.6"/>
						<line class="st7" x1="149" y1="158.5" x2="92.4" y2="256.6"/>
						<line class="st7" x1="159.9" y1="158.5" x2="103.3" y2="256.6"/>
						<line class="st7" x1="170.9" y1="158.5" x2="114.3" y2="256.6"/>
						<line class="st7" x1="181.8" y1="158.5" x2="125.2" y2="256.6"/>
						<line class="st7" x1="192.7" y1="158.5" x2="136.1" y2="256.6"/>
						<line class="st7" x1="203.7" y1="158.5" x2="147.1" y2="256.6"/>
						<line class="st7" x1="214.6" y1="158.5" x2="158" y2="256.6"/>
						<line class="st7" x1="225.5" y1="158.5" x2="168.9" y2="256.6"/>
						<line class="st7" x1="236.5" y1="158.5" x2="179.9" y2="256.6"/>
					</g>
				</g>
				<path class="st7" d="M196.6,227.5c-1.5,2.3-3.5,4.3-6,6.1c-18.3,13-55.7,5.3-83.6-17.2c-23.4-18.9-32.7-42.3-24.1-56.9l-6.9,12
					c-7.3,14.7,2,37.3,24.8,55.7c27.9,22.5,65.3,30.2,83.6,17.2c3-2.1,5.2-4.6,6.9-7.5l0,0L196.6,227.5z"/>
				<g>
					
						<ellipse transform="matrix(0.5054 -0.8629 0.8629 0.5054 -97.1611 216.2973)" class="st2" cx="140.1" cy="192.9" rx="38.3" ry="66.3"/>
				</g>
			</g>
			<g>
				<path class="st26" d="M142.3,180.1C142.3,180.1,142.3,180.1,142.3,180.1c-0.4,0.2-0.5,0.7-0.2,1.3l1.1,1.8
					c0.2,0.3,0.2,0.7,0,0.9c0,0.1-0.1,0.1-0.2,0.1l-4.7,2.7c0,0,0,0,0,0l-0.7,0.4l0.5,0.9l2.3,3.9l6.3-3.7l0,0c0,0,0,0,0,0
					c0.4-0.2,0.5-0.7,0.2-1.3l-1.1-1.8c-0.2-0.3-0.2-0.7,0-0.9c0-0.1,0.1-0.1,0.2-0.1l4.7-2.7c0,0,0,0,0,0l0.7-0.4l-0.5-0.9
					l-2.3-3.9L142.3,180.1L142.3,180.1z"/>
				<path class="st26" d="M136.1,187.4l-1.1-0.4c0,0,0,0,0,0l-7.8-2.7c-0.1,0-0.2-0.1-0.3-0.1c-0.4-0.2-0.8-0.5-1-0.9l-1.1-1.8
					c-0.3-0.5-0.9-1-1.6-1.3c0,0,0,0,0,0l0,0l-10.5-3.7l2.3,3.9l0.5,0.9l1.1,0.4c0,0,0,0,0,0l7.8,2.7c0.1,0,0.2,0.1,0.3,0.1
					c0.4,0.2,0.8,0.5,1,0.9l1.1,1.8c0.3,0.5,0.9,1,1.6,1.3c0,0,0,0,0,0l0,0l10.5,3.7l-2.3-3.9L136.1,187.4z"/>
				<path class="st26" d="M144.2,198.5l1.1,0.4c0,0,0,0,0,0l7.8,2.7c0.1,0,0.2,0.1,0.3,0.1c0.4,0.2,0.8,0.5,1,0.9l1.1,1.8
					c0.3,0.5,0.9,1,1.6,1.3c0,0,0,0,0,0l0,0l10.5,3.7l-2.3-3.9l-0.5-0.9l-1.1-0.4c0,0,0,0,0,0l-7.8-2.7c-0.1,0-0.2-0.1-0.3-0.1
					c-0.4-0.2-0.8-0.5-1-0.9l-1.1-1.8c-0.3-0.5-0.9-1-1.6-1.3c0,0,0,0,0,0l0,0l-10.5-3.7l2.3,3.9L144.2,198.5z"/>
				<path class="st26" d="M133.4,197.3C133.4,197.3,133.4,197.3,133.4,197.3c-0.4,0.2-0.5,0.7-0.2,1.3l1.1,1.8
					c0.2,0.3,0.2,0.7,0,0.9c0,0.1-0.1,0.1-0.2,0.1l-4.7,2.7c0,0,0,0,0,0l-0.7,0.4l0.5,0.9l2.3,3.9l6.3-3.7l0,0c0,0,0,0,0,0
					c0.4-0.2,0.5-0.7,0.2-1.3l-1.1-1.8c-0.2-0.3-0.2-0.7,0-0.9c0-0.1,0.1-0.1,0.2-0.1l4.7-2.7c0,0,0,0,0,0l0.7-0.4l-0.5-0.9
					l-2.3-3.9L133.4,197.3L133.4,197.3z"/>
			</g>
			<path class="st7" d="M125.2,160.1c-11.9-2.5-22.4-1.5-28.2,2.6c-3.1,2.2-4.5,5.1-4.5,9.1c0,4.4,1.8,10,5.2,15.5
				c4,6.6,9.9,13.2,17.3,19.2c11.9,9.6,26.1,16.5,39.9,19.3c11.9,2.5,22.4,1.5,28.2-2.6c3.1-2.2,4.5-5.1,4.5-9.1
				c0-4.4-1.8-10-5.2-15.5c-4-6.6-9.9-13.2-17.3-19.2C153.2,169.8,139.1,162.9,125.2,160.1z"/>
		</g>
		<g>
			<g>
				<g>
					<defs>
						<path id="SVGID_00000064348537843637503580000011891081090660834458_" d="M107.7,170.4c-2.3-1.5-4.3-3.5-6.1-6
							c-13-18.3-5.3-55.7,17.2-83.6c18.9-23.4,42.3-32.7,56.9-24.1l-12-6.9c-14.7-7.3-37.3,2-55.7,24.8
							c-22.5,27.9-30.2,65.3-17.2,83.6c2.1,3,4.6,5.2,7.5,6.9l0,0L107.7,170.4z"/>
					</defs>
					<clipPath id="SVGID_00000069395612165343831880000015872726692885857945_">
						<use xlink:href="#SVGID_00000064348537843637503580000011891081090660834458_"  style="overflow:visible;"/>
					</clipPath>
					<g style="clip-path:url(#SVGID_00000069395612165343831880000015872726692885857945_);">
						<path class="st25" d="M107.7,170.4c-2.3-1.5-4.3-3.5-6.1-6c-13-18.3-5.3-55.7,17.2-83.6c18.9-23.4,42.3-32.7,56.9-24.1
							l-12-6.9c-14.7-7.3-37.3,2-55.7,24.8c-22.5,27.9-30.2,65.3-17.2,83.6c2.1,3,4.6,5.2,7.5,6.9l0,0L107.7,170.4z"/>
						<line class="st7" x1="176.7" y1="57.2" x2="78.7" y2="0.6"/>
						<line class="st7" x1="176.7" y1="68.1" x2="78.7" y2="11.6"/>
						<line class="st7" x1="176.7" y1="79.1" x2="78.7" y2="22.5"/>
						<line class="st7" x1="176.7" y1="90" x2="78.7" y2="33.4"/>
						<line class="st7" x1="176.7" y1="100.9" x2="78.7" y2="44.3"/>
						<line class="st7" x1="176.7" y1="111.9" x2="78.7" y2="55.3"/>
						<line class="st7" x1="176.7" y1="122.8" x2="78.7" y2="66.2"/>
						<line class="st7" x1="176.7" y1="133.7" x2="78.7" y2="77.1"/>
						<line class="st7" x1="176.7" y1="144.7" x2="78.7" y2="88.1"/>
						<line class="st7" x1="176.7" y1="155.6" x2="78.7" y2="99"/>
						<line class="st7" x1="176.7" y1="166.5" x2="78.7" y2="109.9"/>
						<line class="st7" x1="176.7" y1="177.5" x2="78.7" y2="120.9"/>
						<line class="st7" x1="176.7" y1="188.4" x2="78.7" y2="131.8"/>
						<line class="st7" x1="176.7" y1="199.3" x2="78.7" y2="142.7"/>
						<line class="st7" x1="176.7" y1="210.2" x2="78.7" y2="153.7"/>
					</g>
				</g>
				<path class="st7" d="M107.7,170.4c-2.3-1.5-4.3-3.5-6.1-6c-13-18.3-5.3-55.7,17.2-83.6c18.9-23.4,42.3-32.7,56.9-24.1l-12-6.9
					c-14.7-7.3-37.3,2-55.7,24.8c-22.5,27.9-30.2,65.3-17.2,83.6c2.1,3,4.6,5.2,7.5,6.9l0,0L107.7,170.4z"/>
				<g>
					
						<ellipse transform="matrix(0.5054 -0.8629 0.8629 0.5054 -27.8689 179.173)" class="st2" cx="142.4" cy="113.9" rx="66.3" ry="38.3"/>
				</g>
			</g>
			<g>
				<path class="st38" d="M155.1,116.1C155.1,116.1,155.1,116.1,155.1,116.1c-0.2-0.4-0.7-0.5-1.3-0.2L152,117
					c-0.3,0.2-0.7,0.2-0.9,0c-0.1,0-0.1-0.1-0.1-0.2l-2.7-4.7c0,0,0,0,0,0l-0.4-0.7L147,112l-3.9,2.3l3.7,6.3l0,0c0,0,0,0,0,0
					c0.2,0.4,0.7,0.5,1.3,0.2l1.8-1.1c0.3-0.2,0.7-0.2,0.9,0c0.1,0,0.1,0.1,0.1,0.2l2.7,4.7c0,0,0,0,0,0l0.4,0.7l0.9-0.5l3.9-2.3
					L155.1,116.1L155.1,116.1z"/>
				<path class="st38" d="M147.9,109.9l0.4-1.1c0,0,0,0,0,0l2.7-7.8c0-0.1,0.1-0.2,0.1-0.3c0.2-0.4,0.5-0.8,0.9-1l1.8-1.1
					c0.5-0.3,1-0.9,1.3-1.6c0,0,0,0,0,0l0,0l3.7-10.5l-3.9,2.3l-0.9,0.5l-0.4,1.1c0,0,0,0,0,0l-2.7,7.8c0,0.1-0.1,0.2-0.1,0.3
					c-0.2,0.4-0.5,0.8-0.9,1l-1.8,1.1c-0.5,0.3-1,0.9-1.3,1.6c0,0,0,0,0,0l0,0l-3.7,10.5l3.9-2.3L147.9,109.9z"/>
				<path class="st38" d="M136.8,117.9l-0.4,1.1c0,0,0,0,0,0l-2.7,7.8c0,0.1-0.1,0.2-0.1,0.3c-0.2,0.4-0.5,0.8-0.9,1l-1.8,1.1
					c-0.5,0.3-1,0.9-1.3,1.6c0,0,0,0,0,0l0,0l-3.7,10.5l3.9-2.3l0.9-0.5l0.4-1.1c0,0,0,0,0,0l2.7-7.8c0-0.1,0.1-0.2,0.1-0.3
					c0.2-0.4,0.5-0.8,0.9-1l1.8-1.1c0.5-0.3,1-0.9,1.3-1.6c0,0,0,0,0,0l0,0l3.7-10.5l-3.9,2.3L136.8,117.9z"/>
				<path class="st38" d="M138,107.2C138,107.2,138,107.2,138,107.2c-0.2-0.4-0.7-0.5-1.3-0.2l-1.8,1.1c-0.3,0.2-0.7,0.2-0.9,0
					c-0.1,0-0.1-0.1-0.1-0.2l-2.7-4.7c0,0,0,0,0,0l-0.4-0.7l-0.9,0.5l-3.9,2.3l3.7,6.3l0,0c0,0,0,0,0,0c0.2,0.4,0.7,0.5,1.3,0.2
					l1.8-1.1c0.3-0.2,0.7-0.2,0.9,0c0.1,0,0.1,0.1,0.1,0.2l2.7,4.7c0,0,0,0,0,0l0.4,0.7l0.9-0.5l3.9-2.3L138,107.2L138,107.2z"/>
			</g>
			<path class="st7" d="M175.2,99c2.5-11.9,1.5-22.4-2.6-28.2c-2.2-3.1-5.1-4.5-9.1-4.5c-4.4,0-10,1.8-15.5,5.2
				c-6.6,4-13.2,9.9-19.2,17.3c-9.6,11.9-16.5,26.1-19.3,39.9c-2.5,11.9-1.5,22.4,2.6,28.2c2.2,3.1,5.1,4.5,9.1,4.5
				c4.4,0,10-1.8,15.5-5.2c6.6-4,13.2-9.9,19.2-17.3C165.5,127,172.4,112.9,175.2,99z"/>
		</g>
		<g>
			<path class="st2" d="M189.3,299.4c0.5-10.4-1.5-19.7-6.2-26.4c-13-18.3-41.7-10.5-64.2,17.4c-15.9,19.7-24.4,44.1-23.4,63.3
				L189.3,299.4z"/>
			<path class="st25" d="M85.9,356c1.7,1,3.7,1,5.4,0l4.1-2.4c-1-19.1,7.6-43.6,23.4-63.3c18.9-23.4,42.3-32.7,56.9-24.1l-12-6.9
				c-14.7-7.3-37.3,2-55.7,24.8C89.8,307,81.3,336.1,85.9,356L85.9,356z"/>
			<g>
				<path class="st38" d="M147.9,319.5l0.4-1.1c0,0,0,0,0,0l2.7-7.8c0-0.1,0.1-0.2,0.1-0.3c0.2-0.4,0.5-0.8,0.9-1l1.8-1.1
					c0.5-0.3,1-0.9,1.3-1.6c0,0,0,0,0,0l0,0l3.7-10.5l-3.9,2.3l-0.9,0.5l-0.4,1.1c0,0,0,0,0,0l-2.7,7.8c0,0.1-0.1,0.2-0.1,0.3
					c-0.2,0.4-0.5,0.8-0.9,1l-1.8,1.1c-0.5,0.3-1,0.9-1.3,1.6c0,0,0,0,0,0l0,0l-3.7,10.5l3.9-2.3L147.9,319.5z"/>
				<polygon class="st38" points="136.8,327.6 136.4,328.7 136.4,328.7 135.9,330.3 140.7,327.5 141.6,324.8 137.7,327.1 				"/>
				<polygon class="st38" points="148.9,322.8 148.3,321.8 148.3,321.8 147.9,321.2 147,321.7 143.1,323.9 144.1,325.6 				"/>
				<path class="st38" d="M129.6,321.3C129.6,321.3,129.6,321.3,129.6,321.3c0.2,0.4,0.7,0.5,1.3,0.2l1.8-1.1c0.3-0.2,0.7-0.2,0.9,0
					c0.1,0,0.1,0.1,0.1,0.2l2.7,4.7c0,0,0,0,0,0l0.4,0.7l0.9-0.5l3.9-2.3l-3.7-6.3l0,0c0,0,0,0,0,0c-0.2-0.4-0.7-0.5-1.3-0.2
					l-1.8,1.1c-0.3,0.2-0.7,0.2-0.9,0c-0.1,0-0.1-0.1-0.1-0.2l-2.7-4.7c0,0,0,0,0,0l-0.4-0.7l-0.9,0.5l-3.9,2.3L129.6,321.3
					L129.6,321.3z"/>
			</g>
			<path class="st7" d="M175.4,307.5c2.1-11.4,1.1-21.4-2.8-27c-2.2-3.1-5.1-4.5-9.1-4.5c-4.4,0-10,1.8-15.5,5.2
				c-6.6,4-13.2,9.9-19.2,17.3c-9.6,11.9-16.5,26.1-19.3,39.9c-0.6,2.7-0.9,5.3-1.1,7.8"/>
			<path class="st7" d="M85.9,356c1.7,1,3.7,1,5.4,0l4.1-2.4c-1-19.1,7.6-43.6,23.4-63.3c18.9-23.4,42.3-32.7,56.9-24.1l-12-6.9
				c-14.7-7.3-37.3,2-55.7,24.8C89.8,307,81.3,336.1,85.9,356L85.9,356z"/>
			<g>
				<defs>
					<path id="SVGID_00000132064549613363793910000017538690839148433536_" d="M85.9,356c1.7,1,3.7,1,5.4,0l4.1-2.4
						c-1-19.1,7.6-43.6,23.4-63.3c18.9-23.4,42.3-32.7,56.9-24.1l-12-6.9c-14.7-7.3-37.3,2-55.7,24.8C89.8,307,81.3,336.1,85.9,356
						L85.9,356z"/>
				</defs>
				<clipPath id="SVGID_00000150076390803838075620000008930446330125927603_">
					<use xlink:href="#SVGID_00000132064549613363793910000017538690839148433536_"  style="overflow:visible;"/>
				</clipPath>
				<g style="clip-path:url(#SVGID_00000150076390803838075620000008930446330125927603_);">
					<line class="st7" x1="176.7" y1="266.8" x2="78.7" y2="210.2"/>
					<line class="st7" x1="176.7" y1="277.8" x2="78.7" y2="221.2"/>
					<line class="st7" x1="176.7" y1="288.7" x2="78.7" y2="232.1"/>
					<line class="st7" x1="176.7" y1="299.6" x2="78.7" y2="243"/>
					<line class="st7" x1="176.7" y1="310.6" x2="78.7" y2="254"/>
					<line class="st7" x1="176.7" y1="321.5" x2="78.7" y2="264.9"/>
					<line class="st7" x1="176.7" y1="332.4" x2="78.7" y2="275.8"/>
					<line class="st7" x1="176.7" y1="343.4" x2="78.7" y2="286.8"/>
					<line class="st7" x1="176.7" y1="354.3" x2="78.7" y2="297.7"/>
					<line class="st7" x1="176.7" y1="365.2" x2="78.7" y2="308.6"/>
					<line class="st7" x1="176.7" y1="376.2" x2="78.7" y2="319.6"/>
					<line class="st7" x1="176.7" y1="387.1" x2="78.7" y2="330.5"/>
					<line class="st7" x1="176.7" y1="398" x2="78.7" y2="341.4"/>
				</g>
			</g>
		</g>
	</g>
</g>
</svg>
