<?xml version="1.0" encoding="utf-8"?>
<!-- Generator: Adobe Illustrator 25.4.1, SVG Export Plug-In . SVG Version: 6.00 Build 0)  -->
<svg version="1.1" id="Capa_1" xmlns="http://www.w3.org/2000/svg" xmlns:xlink="http://www.w3.org/1999/xlink" x="0px" y="0px"
	 viewBox="0 0 41 48.4" style="enable-background:new 0 0 41 48.4;" xml:space="preserve">
<style type="text/css">
	.st0{fill:#02FA95;}
</style>
<path class="st0" d="M39,11.4h-9.9c-0.8,0-1.4-0.4-1.8-1l-4.9-9.2c-0.8-1.6-3.1-1.6-3.9,0l-4.9,9.2c-0.3,0.6-1,1-1.8,1H2
	c-1.1,0-2,0.9-2,1.9v18.9c0,1.1,0.5,2.2,1.5,2.9l17.4,12.7c1,0.7,2.3,0.7,3.3,0l17.4-12.7c0.9-0.7,1.5-1.8,1.5-2.9V13.3
	C41,12.2,40.1,11.4,39,11.4z M20.5,31.5c-2.7,0-4.8-2.2-4.8-4.8s2.2-4.8,4.8-4.8c2.7,0,4.8,2.2,4.8,4.8S23.2,31.5,20.5,31.5z"/>
</svg>
