<?xml version="1.0" encoding="utf-8"?>
<!-- Generator: Adobe Illustrator 25.4.1, SVG Export Plug-In . SVG Version: 6.00 Build 0)  -->
<svg version="1.1" id="Capa_1" xmlns="http://www.w3.org/2000/svg" xmlns:xlink="http://www.w3.org/1999/xlink" x="0px" y="0px"
	 viewBox="0 0 46.6 48.4" style="enable-background:new 0 0 46.6 48.4;" xml:space="preserve">
<style type="text/css">
	.st0{fill:#02FA95;}
</style>
<g>
	<path class="st0" d="M32.9,17.4l-7.4,14.8c-0.4,0.8-1.2,1.3-2.1,1.3h-4.5v0c-0.9,0-1.7,0.5-2.1,1.3l0,0l-6.1,12.3
		c-0.4,0.8-1.2,1.3-2.1,1.3H1c-0.8,0-1.3-0.8-0.9-1.5l7.4-14.8c0.4-0.8,1.2-1.3,2.1-1.3h4.5v0c0.9,0,1.7-0.5,2.1-1.3l0,0l6.1-12.3
		c0.4-0.8,1.2-1.3,2.1-1.3h7.4C32.7,15.8,33.2,16.7,32.9,17.4z"/>
	<path class="st0" d="M46.5,14.3L40,1.3C39.6,0.5,38.7,0,37.8,0H17.9c-0.9,0-1.7,0.5-2.1,1.3l-6.5,13C9,15,9.5,15.8,10.2,15.8h7.4
		c0.9,0,1.7-0.5,2.1-1.3l5.7-11.4c1-2,3.9-2,4.9,0l5.7,11.4c0.4,0.8,1.2,1.3,2.1,1.3h7.4C46.3,15.8,46.8,15,46.5,14.3z"/>
</g>
</svg>
