<?xml version="1.0" encoding="utf-8"?>
<!-- Generator: Adobe Illustrator 25.4.1, SVG Export Plug-In . SVG Version: 6.00 Build 0)  -->
<svg version="1.1" id="Capa_1" xmlns="http://www.w3.org/2000/svg" xmlns:xlink="http://www.w3.org/1999/xlink" x="0px" y="0px"
	 viewBox="0 0 41 48.4" style="enable-background:new 0 0 41 48.4;" xml:space="preserve">
<style type="text/css">
	.st0{fill:#02FA95;}
</style>
<path class="st0" d="M40.9,46.8l-3.3-6.6c-0.4-0.9-1.3-1.4-2.3-1.4h-7.9c-1.1,0-2.1-0.9-2.1-2.1V2.1c0-1.1-0.9-2.1-2.1-2.1h-7.6H5.7
	c-1,0-1.9,0.6-2.3,1.4L0.1,8c-0.4,0.8,0.2,1.7,1,1.7h8.1c1,0,1.9-0.6,2.3-1.4l2.7-5.5l0,0c0.1-0.2,0.4-0.4,0.6-0.4
	c0.4,0,0.7,0.3,0.7,0.7v33.6c0,1.1-0.9,2.1-2.1,2.1H5.7c-1,0-1.9,0.6-2.3,1.4l-3.3,6.6c-0.4,0.8,0.2,1.7,1,1.7h8.1
	c1,0,1.9-0.6,2.3-1.4l3.4-6.8l-0.4,0.7c0.7-1.3,2-2.2,3.6-2.2h4.8c1.5,0,2.9,0.8,3.6,2.2l-0.4-0.7l3.4,6.8c0.4,0.9,1.3,1.4,2.3,1.4
	h8.1C40.7,48.4,41.3,47.5,40.9,46.8z"/>
</svg>
